<?xml version="1.0" standalone="no"?>
<!DOCTYPE svg PUBLIC "-//W3C//DTD SVG 1.1//EN" "http://www.w3.org/Graphics/SVG/1.1/DTD/svg11.dtd" >
<svg xmlns="http://www.w3.org/2000/svg" xmlns:xlink="http://www.w3.org/1999/xlink" version="1.1">
<metadata></metadata>
<defs>
<font id="retro_signatureregular" horiz-adv-x="450" >
<font-face units-per-em="2048" ascent="1638" descent="-410" />
<missing-glyph horiz-adv-x="811" />
<glyph horiz-adv-x="0" />
<glyph horiz-adv-x="0" />
<glyph horiz-adv-x="682" />
<glyph unicode="&#xa;" horiz-adv-x="0" />
<glyph unicode="&#xd;" horiz-adv-x="0" />
<glyph unicode=" "  horiz-adv-x="811" />
<glyph unicode="&#x09;" horiz-adv-x="811" />
<glyph unicode="&#xa0;" horiz-adv-x="811" />
<glyph unicode="!" horiz-adv-x="686" d="M45.5 381q0.5 6 9.5 25q12 28 31 28v2q11 0 13.5 -3.5t2.5 -18.5q0 -17 -10.5 -35.5t-19.5 -18.5q-6 0 -19 9q-8 6 -7.5 12zM119 516q-7 6 1 27.5t40 81.5q94 171 240.5 399t187.5 266q10 10 22 10q15 0 23 -8t-12 -43q-19 -37 -27 -37q-17 0 -165 -229t-232 -385 q-47 -83 -60 -86q-14 0 -18 4z" />
<glyph unicode="&#x22;" horiz-adv-x="309" d="M59 1202q23 54 49.5 78.5t43.5 9.5h-5q8 -8 -18 -51q-30 -47 -37 -78q-6 -21 -10.5 -27t-15.5 -6q-39 0 -7 74zM153 1182q17 52 54 90q13 15 29 19t20 -7l2 -2q4 -8 -18 -37q-52 -66 -52 -104q0 -27 -20 -27q-4 0 -12 4q-20 12 -3 64z" />
<glyph unicode="#" horiz-adv-x="1241" d="M45 696q-4 11 4 19q6 5 76 13.5t139 12.5l55 4l43 82q48 86 56 97q4 6 5 9t-1.5 4t-9.5 1q-51 0 -234 -20q-34 -5 -45 6q-16 16 14 25q36 10 177 22q100 9 114.5 15t30.5 33q9 14 12 19q32 53 65 100.5t42 53.5q10 6 22.5 1t12.5 -15q0 -12 -33 -58q-30 -43 -57.5 -89.5 t-24.5 -47.5q28 0 151 6l148 6l67 103q61 94 81.5 120.5t31.5 26.5q22 -3 8 -34q-13 -28 -61 -101q-70 -106 -70 -111q0 -4 150 -4q110 0 132 -1.5t34 -10.5l-6 -8q10 -9 11 -13t-7 -10q-10 -7 -39 -2q-25 5 -115 5.5t-145 -3.5l-50 -4l-47 -86q-50 -86 -53 -100l-4 -14 l143 -3q97 -1 122.5 -3.5t33.5 -10.5q16 -18 -6 -22q-20 -2 -80 2q-86 4 -156 4l-77 -2l-25 -51q-83 -169 -86 -209q-3 -22 -19 -25q-14 0 -24 10q-6 7 -4.5 16.5t12.5 41.5q34 95 92 213q4 7 -7 8q-13 1 -103 -2q-108 -3 -154 -8q-29 -3 -36 -7.5t-19 -27.5 q-24 -44 -48 -99t-24 -67q0 -20 -11 -25.5t-24 6.5q-10 9 -11 16t5 27q7 27 41 101q33 72 31 74q-3 3 -191 -13q-51 -5 -55 4zM373 754q-3 -8 8 -10q17 -3 135 -1q147 0 152 5q7 7 30 55q8 16 28.5 53t25.5 47l26 47l-112 -4q-100 -3 -154 -8l-41 -4l-47 -84 q-45 -79 -51 -96z" />
<glyph unicode="$" horiz-adv-x="794" d="M57 458q-16 22 5 28q3 1 6 1q16 3 28 -12q13 -16 41 -16h29l61 121l62 120l-51 23q-46 21 -67.5 35.5t-31.5 34.5q-26 51 17.5 118t148.5 138q42 29 112.5 66t112.5 52q33 12 43.5 21t32.5 43q20 29 30 39.5t19 9.5q7 0 13 -6q7 -8 5 -13.5t-18 -31.5l-22 -37h37 q24 0 34 -3t23 -15l2 4q15 -12 18.5 -20.5t2.5 -31.5q-4 -36 -39 -87.5t-77 -86.5t-65 -28q-24 8 27 50q3 2 6 5q51 41 82.5 93t20.5 77q-4 11 -47.5 8.5t-53.5 -14.5q-11 -11 -128 -203.5t-120 -204.5q-3 -8 7 -15t43 -20q60 -26 80.5 -50.5t13.5 -59.5q-9 -38 -87.5 -84 t-172.5 -68l-45 -10l-25 -63q-15 -37 -23.5 -50.5t-17.5 -15.5q-14 -4 -18 8t14 60q18 49 18 51q0 4 -28 8q-37 5 -58 32zM184 801q13 -17 61 -40.5t56 -17.5q7 3 37 62q25 48 115 190l-7 2q40 63 61.5 98t20.5 35q-9 0 -78 -36.5t-102 -59.5q-109 -71 -152.5 -133 t-11.5 -100zM217 477q1 0 64 19q73 23 124.5 58.5t51.5 63.5q0 11 -21 27.5t-51 28.5h-2q-40 16 -49 16q-8 0 -13.5 -6t-13.5 -22q-23 -43 -45 -86.5t-34.5 -71t-10.5 -27.5z" />
<glyph unicode="%" horiz-adv-x="1069" d="M47 293q-8 7 9 29q27 35 294 303q265 268 438 426q194 174 211 174q9 0 17 -8l2 -5q7 -7 -8 -23.5t-82 -74.5q-231 -198 -733 -706q-86 -86 -111 -105t-37 -10zM336 963q-22 22 6 81.5t80 102.5q46 37 82 37q27 0 49 -25q15 -15 10 -47q-3 -22 -11.5 -34.5t-41.5 -41.5 l-2 2q-130 -117 -172 -75zM372 996q1 -7 5 -7q8 0 72 53q39 33 52.5 48t16.5 28q6 33 -14 33q-18 0 -47.5 -25t-57.5 -67v2q-29 -41 -27 -65zM494 377q-36 29 14 108q24 39 53.5 64.5t48.5 25.5q16 0 19 -16q3 -14 20 -14v2q56 0 17 -80q-29 -58 -84.5 -87t-87.5 -3z M522 414q0 -18 26 -7q15 7 32 23v-2q56 50 47 92q-4 19 -11 19q-14 0 -54 -53t-40 -72z" />
<glyph unicode="&#x26;" horiz-adv-x="874" d="M47 442q12 120 322 351q88 66 88 77q0 16 24.5 71.5t44.5 82.5q39 56 93.5 91.5t99.5 37.5q25 0 43 -12q43 -27 -2 -90q-18 -24 -90.5 -87.5t-134.5 -107.5l-41 -29v-77q0 -81 14 -138q14 -59 18 -63q6 -5 114.5 76t131.5 108l-2 4q25 30 46 26q17 -5 1 -32 q-9 -15 -81.5 -73t-133.5 -99q-59 -41 -59 -49q0 -15 37 -75t65 -89q11 -11 11 -19t-9.5 -8.5t-25.5 5.5q-13 6 -46.5 48.5t-52.5 76.5l-22 38q-27 -14 -58 -32q-112 -63 -209 -87t-143 -1q-28 13 -37 29.5t-6 45.5zM100 403q7 -9 17.5 -10.5t44.5 0.5q48 3 104 23 q53 17 135 61l-4 2q61 33 69 42q13 14 3 52q0 3 -10 39q-18 75 -21 123l-4 64l-96 -76q-170 -136 -221 -219q-42 -69 -17 -101zM510 903l37 25q41 28 90 71q42 36 69 67.5t27 43.5q0 10 -12 10q-19 2 -53.5 -15.5t-61.5 -43.5q-22 -20 -52 -67t-38 -72z" />
<glyph unicode="'" horiz-adv-x="202" d="M42 1157q3 16 15 43q23 54 49.5 78.5t43.5 9.5q7 -7 -19 -51q-30 -47 -37 -78q-6 -21 -10.5 -27t-15.5 -6h-5q-14 0 -19 7.5t-2 23.5z" />
<glyph unicode="(" horiz-adv-x="677" d="M46 406.5q-7 101.5 30 218.5q82 259 303 477q175 172 229 166h-2q22 -3 20.5 -16t-24.5 -23q-24 -11 -88 -64.5t-113 -103.5q-114 -117 -190 -252t-105 -272q-19 -89 -4.5 -169.5t54.5 -111.5q14 -10 10 -20.5t-23 -10.5t-41 25q-49 55 -56 156.5z" />
<glyph unicode=")" horiz-adv-x="745" d="M50.5 245.5q5.5 8.5 27.5 8.5q61 0 192 126t217 269q36 58 70 131q65 135 84.5 232.5t-0.5 185.5q-11 46 -10.5 55t12.5 9q15 0 24 -11t19 -43h2q14 -42 10.5 -130t-22.5 -144q-58 -180 -170 -346.5t-252 -282.5q-69 -57 -120.5 -78t-74.5 -2q-14 12 -8.5 20.5z" />
<glyph unicode="*" horiz-adv-x="366" d="M47 1071q0 12 51 31l52 20l-33 27q-28 22 -32 29t7 14q8 5 20.5 2.5t12.5 -8.5t22 -17l23 -12l8 27q7 23 17 32.5t22 6.5q24 -7 4 -52q-7 -19 -4 -22q4 -4 35 4q65 18 65 -2q0 -11 -10 -17.5t-39 -13.5v-2q-31 -8 -35 -12q-1 -1 2.5 -6t10.5 -13t16 -16q27 -26 30.5 -33 t-7.5 -14q-11 -8 -56 27l-43 34l-8 -24q-23 -75 -53 -51q-7 6 -7 11t7 19q13 26 9 31t-32 -6q-55 -22 -55 6z" />
<glyph unicode="+" horiz-adv-x="438" d="M51 625q-10 13 10 19q17 4 66 9l70 9l18 51q12 30 19 39.5t18 11.5q17 1 20 -10.5t-8 -42.5q-12 -36 -12 -41q0 -6 59 -6q25 0 40.5 -1t24.5 -3.5t12 -6.5t1 -10q-2 -8 -15 -10.5t-65 -3.5l-78 -2l-18 -58q-12 -37 -18 -47t-17 -12q-16 -3 -20 8q-4 12 10 60l14 47 l-45 -4q-51 -5 -65.5 -4t-20.5 8z" />
<glyph unicode="," horiz-adv-x="182" d="M53 338q-14 12 17 43q22 20 14 31q-7 12 -2.5 21t18.5 9v-2q31 0 35 -23.5t-22 -49.5q-43 -43 -60 -29z" />
<glyph unicode="-" horiz-adv-x="387" d="M45 645q0 4 3 6.5t15.5 4.5t35.5 3t65 3q119 4 141 0l-2 -3q27 -2 34 -16q3 -6 -3 -10q-8 -6 -136.5 -9t-140.5 3q-12 8 -12 18z" />
<glyph unicode="." horiz-adv-x="157" d="M47 437q2 13 14 18h-2q22 9 39 -4.5t6 -30.5q-6 -9 -22.5 -10.5t-26.5 6.5t-8 21z" />
<glyph unicode="/" horiz-adv-x="821" d="M52 217q17 41 212 367q211 357 322 518q146 215 164 219q7 3 18 -4v4q4 -4 5 -9t-6.5 -18.5t-21.5 -35t-40 -58.5q-185 -262 -539 -862q-63 -106 -81.5 -130t-31.5 -18q-11 5 -1 27z" />
<glyph unicode="0" horiz-adv-x="624" d="M47.5 514.5q-1.5 68.5 13.5 126.5q29 113 91.5 215.5t140.5 167.5q81 66 156 66v-5q40 0 65 -13.5t45 -47.5q14 -24 17.5 -42t3.5 -79q0 -88 -17 -143q-53 -165 -161 -287t-209 -129q-30 -4 -50 4q-22 7 -42.5 25.5t-32.5 40.5q-19 32 -20.5 100.5zM98 524q0 -93 37 -125 q31 -27 86 -8q92 32 184.5 164.5t120.5 271.5q19 93 0 152q-21 68 -73 68q-26 0 -62 -19q-74 -38 -142.5 -123t-109.5 -188.5t-41 -192.5z" />
<glyph unicode="1" horiz-adv-x="499" d="M45 360q0 15 86.5 183t179.5 331q49 85 49 91q0 3 -26 -19q-24 -22 -37 -14q-11 7 -14 14q-2 5 57 59.5t76 63.5q14 8 26 0.5t11 -22.5l-2 -9q0 -17 -111 -215q-201 -359 -234 -434q-12 -28 -28.5 -40t-28.5 -3q-4 4 -4 14z" />
<glyph unicode="2" horiz-adv-x="817" d="M52 355q-1 11 11 20t44 18.5t49 9.5t83.5 38t125.5 81q179 132 292 314q35 57 48.5 91t13.5 66q0 23 -3.5 32.5t-15.5 18.5q-12 11 -20.5 13.5t-28.5 1.5q-118 -12 -219 -94q-40 -34 -53 -31q-30 10 12 52q49 49 133 83q147 58 205 10q40 -34 39.5 -84.5t-41.5 -132.5 q-54 -106 -160.5 -216.5t-232.5 -192.5l4 -9l-59 -41q14 -4 30 -8q24 -4 73 -24.5t67 -32.5q10 -7 10.5 -23.5t-8.5 -19.5q-10 0 -48 20q-64 34 -129.5 45t-103.5 -4q-78 -31 -104 -18q-13 6 -14 17z" />
<glyph unicode="3" horiz-adv-x="692" d="M47 375q0 26 43 10q61 -26 174 8q134 43 212.5 125t55.5 154q-15 46 -49.5 67.5t-107.5 28.5q-46 4 -57 8t-13 15q-1 9 10.5 17.5t59.5 33.5q93 47 158.5 100.5t62.5 79.5q-1 9 -6.5 11.5t-22.5 4.5q-38 3 -105.5 -23t-111.5 -61q-38 -30 -55 -20q-15 8 7 34q7 9 17 17 q44 35 109.5 61.5t122.5 30.5l-6 2q57 4 81.5 -22.5t4.5 -69.5q-12 -26 -69 -73.5t-111 -75.5q-13 -7 -24 -14t-16.5 -11.5t-4.5 -5.5q5 -5 32 -8q48 -6 90 -45t52 -88q17 -71 -33 -140q-34 -48 -101 -95t-139 -71q-111 -38 -174 -28q-86 12 -86 43z" />
<glyph unicode="4" horiz-adv-x="641" d="M51.5 734.5q8.5 23.5 65.5 90.5q140 170 143 174q75 94 82 97q9 4 18 -3t9 -18q0 -24 -162 -209q-109 -123 -109 -135q0 -4 138 -4l137 2l55 102q127 234 150 234l-5 2q21 0 14 -26q-9 -32 -75 -150q-82 -146 -82 -152t25 -6q26 0 43 -10q11 -8 12.5 -11.5t-4.5 -9.5 q-8 -8 -53 -8h-45l-66 -137q-70 -144 -82 -178q-14 -41 -22 -49q-6 -6 -15.5 -7t-15.5 3q-19 16 98 264q45 88 45 94q0 4 -131 4q-129 0 -149 10q-27 13 -18.5 36.5z" />
<glyph unicode="5" horiz-adv-x="749" d="M49 387q0 13 11.5 17t23.5 -5q17 -12 50.5 -19.5t58.5 -4.5q75 7 139.5 57.5t95.5 124.5q42 106 -25 154q-23 17 -49.5 22t-77.5 2q-49 -3 -65 1.5t-16 19.5q0 19 114 190q56 81 56 88q0 6 -17 10q-16 3 -16 17q0 9 6.5 12t32.5 8q34 6 186 6h145v-14l5 -6q0 -9 -5.5 -12 t-27.5 -6q-45 -5 -103 -5q-66 0 -106 -4l-37 -4l-25 -39q-20 -39 -81 -129q-60 -85 -60 -90q0 -4 53 -4q83 0 136 -45q47 -41 47 -104q0 -80 -61.5 -160.5t-147.5 -112.5q-95 -38 -176 -12q-64 20 -64 47z" />
<glyph unicode="6" horiz-adv-x="555" d="M51 512q-9 9 4 27q15 25 21 59q15 71 60 157.5t106 162.5t128.5 126t106.5 48q12 0 19 -7l2 2q25 -17 -20 -33q-1 0 -3 -1q-82 -29 -189 -162t-145 -254l-10 -33l37 25q53 35 102 47t80.5 0.5t49 -38.5t10.5 -72.5t-39 -98.5q-31 -51 -92 -92t-105 -41q-25 0 -45 10 t-33 27q-14 18 -25.5 50.5t-11.5 55.5q0 27 -8 35zM111 487q0 -55 17 -85.5t48 -30.5q20 0 57 22q51 28 86 76.5t39 99.5q3 37 -7.5 52.5t-39.5 15.5q-54 0 -141 -62l-59 -45v-43z" />
<glyph unicode="7" horiz-adv-x="686" d="M51 358q0 25 148 203l80 98l-29 -4q-25 -3 -37 4t-6 21q6 12 47 14q39 3 53 8q11 3 145 167.5t130 168.5q-3 3 -70 -8q-66 -11 -166 -18q-69 -5 -86.5 -4t-26.5 8q-13 10 -6 20t84 15q135 7 254 32l2 -2q59 14 70 -14q5 -14 -27 -61t-118 -154q-101 -125 -101 -127 q0 -4 15 -4q14 0 24 -10q6 -7 5 -13.5t-11.5 -11.5t-26.5 -6q-27 -3 -41 -8q-10 -5 -77 -84.5t-134 -167.5q-41 -53 -59.5 -68t-30.5 -6q-4 4 -4 12z" />
<glyph unicode="8" horiz-adv-x="618" d="M49 485q0 59 36 139t93 146q28 33 34 44t3 28q-5 27 3.5 64.5t25.5 66.5q30 53 103.5 93t135.5 38q17 0 25 -2l-2 4q28 -6 39.5 -17.5t19.5 -39.5q25 -97 -137 -279q-65 -76 -68 -82q-4 -8 21 -43q28 -38 35 -69t-4 -66q-28 -92 -121 -138.5t-168 -6.5q-74 39 -74 120z M96.5 467.5q7.5 -50.5 61.5 -70.5q20 -7 26.5 -7t40.5 7q35 8 74 39q38 31 50.5 53t12.5 60l3 4q0 28 -3.5 40.5t-17.5 31.5l-20 30l-23 -22q-31 -32 -41 -38.5t-22 -0.5q-15 7 -12 16.5t30 38.5q16 17 24 29t8 19t-7 10q-10 5 -27 32l-21 31l-12 -14q-58 -66 -94 -150 q-38 -88 -30.5 -138.5zM272.5 940.5q-34.5 -79.5 8.5 -154.5q18 -33 27.5 -45t15.5 -10q6 0 59 60l-2 2q139 157 139 237q0 46 -45 43q-27 0 -76 -18q-92 -35 -126.5 -114.5z" />
<glyph unicode="9" horiz-adv-x="663" d="M49 391q3 17 51 2q54 -19 135.5 44.5t151.5 178.5q39 64 101 195.5t73 173.5l6 21l-22 -19q-24 -20 -82 -78q-207 -203 -277 -145q-27 21 -3.5 86t81.5 131q41 47 83.5 73.5t74.5 24.5h6q14 -3 35.5 -19t34.5 -34q5 -7 10.5 -5.5t26.5 15.5q28 20 41.5 23.5t27.5 -6.5v2 q9 -8 11 -16t-1 -31q-6 -47 -67.5 -186.5t-116.5 -231.5q-46 -77 -110 -142.5t-113 -85.5q-28 -12 -62.5 -15t-56.5 5q-46 16 -39 39zM214 798.5q2 -3.5 11 -3.5q15 0 47 18q74 45 156 127h-2q28 28 33.5 37.5t1.5 19.5q-9 18 -25 31q-15 12 -22 12q-3 0 -15 -4 q-49 -19 -110.5 -92t-73.5 -127q-3 -15 -1 -18.5z" />
<glyph unicode=":" horiz-adv-x="303" d="M46 501q-1 7 7 19q7 10 25 10q17 0 28 -8l3 2q11 -9 11 -13.5t-11 -16.5t-25.5 -14t-26.5 7q-10 7 -11 14zM195 834q12 12 24 12q13 0 25 -12h-2q14 -16 4 -29q-9 -12 -24 -13.5t-25 7.5q-20 17 -2 35z" />
<glyph unicode=";" horiz-adv-x="296" d="M53 430q-4 8 15 27q26 29 13 34q-1 1 -3 1q-6 0 -9.5 9t-0.5 17q6 12 22 12q10 0 19 -6h4q20 -11 19 -35.5t-23 -46.5q-17 -17 -33.5 -20.5t-22.5 8.5zM187.5 807q-1.5 17 7.5 24q11 7 18 7q15 0 25 -13h2q10 -12 10 -20t-10 -17q-16 -13 -41 -2q-10 4 -11.5 21z" />
<glyph unicode="&#x3c;" horiz-adv-x="567" d="M49.5 650.5q-0.5 3.5 2 8t7.5 9.5t15 11.5t23 14.5t33 18.5t43 23t56 28.5q218 109 246 137q10 10 29 10q16 0 16 -14q0 -20 -60 -57.5t-220 -114.5h2q-138 -67 -138 -72q0 -3 25.5 -9.5t38.5 -6.5q12 0 127.5 -28.5t144.5 -37.5q49 -17 49 -30q-1 -5 -4 -9 q-7 -7 -12.5 -7.5t-15.5 5.5q-16 8 -103.5 30.5t-156.5 35.5q-78 15 -106.5 24.5t-37.5 22.5q-3 4 -3.5 7.5z" />
<glyph unicode="=" horiz-adv-x="503" d="M50.5 566.5q1.5 8.5 15.5 13.5q24 7 113.5 12.5t168.5 5.5q76 0 88 -6l2 -2q15 -8 15 -19q0 -7 -15 -8.5t-90 -1.5q-188 0 -262 -16q-19 -4 -27 4q-10 9 -8.5 17.5zM84 676q-17 17 5 23q29 9 224 14q41 2 88 2q40 0 48 -8v-2q17 -15 -7 -20q-26 -6 -137 -9 q-128 -3 -174 -8q-36 -3 -47 8z" />
<glyph unicode="&#x3e;" horiz-adv-x="647" d="M45 522q0 12 117 64q277 127 346 162l31 16l-19 8q-22 9 -131 41q-126 37 -170.5 54t-46.5 26q-4 17 12 17q20 -1 82 -21q98 -30 123 -37q60 -15 126 -38t75 -32l2 -2q16 -16 -6 -34q-35 -28 -293 -144h-1h-1l-1 -1h-1l-2 -1q-157 -70 -190 -82.5t-44 -9.5q-8 4 -8 14z " />
<glyph unicode="?" horiz-adv-x="770" d="M51 950q0 69 92.5 148.5t227.5 126.5q128 46 209 43q46 0 86 -19l-2 -8q32 -15 44.5 -35.5t12.5 -54.5q0 -58 -51.5 -127t-190.5 -199q-83 -76 -189 -193.5t-104 -129.5q3 -17 -4 -20.5t-26 5.5q-13 9 -13 21q0 21 102 135.5t242 251.5q107 104 149 163t42 105 q0 57 -70 66q-88 10 -228 -42.5t-212 -123.5q-47 -46 -66 -82t-4 -53q9 -10 6 -17.5t-16 -7.5q-37 0 -37 47zM101.5 398q10.5 20 27.5 20h-2q29 0 20 -31q-6 -21 -19.5 -26.5t-25.5 6.5q-11 11 -0.5 31z" />
<glyph unicode="@" horiz-adv-x="1021" d="M53 640.5q13 91.5 60 176.5q67 122 179.5 212t239.5 126q50 14 134 14q69 0 111 -11t93 -42q47 -28 71.5 -64.5t31.5 -93.5q11 -84 -60.5 -194.5t-160.5 -147.5q-71 -30 -109 -10l-8 2q-15 8 -25 34t-6 46q4 19 -2 19q-8 0 -41 -33q-32 -32 -84 -69.5t-80 -47.5 q-44 -16 -69 6q-17 13 -8.5 47.5t28 72.5t52 75.5t65.5 56.5q41 25 80.5 17.5t48.5 -41.5q4 -17 8 -17q2 0 25 19q22 20 35 12q12 -6 12 -20.5t-12 -49.5q-12 -37 -9 -63q1 -20 4.5 -25.5t14.5 -7.5q44 -7 119 59q81 72 113.5 167t-1.5 159q-31 60 -113.5 91.5t-175.5 19.5 q-146 -20 -286 -134q-118 -96 -182 -212t-57.5 -218t83.5 -157q206 -147 594 108q76 50 76 17q0 -14 -81.5 -65.5t-158.5 -86.5q-73 -34 -159 -49t-148 -6q-72 10 -133.5 49t-89.5 92q-32 76 -19 167.5zM370.5 588.5q6.5 -5.5 47.5 19.5q42 25 90 70l57 47l-4 35 q-3 23 -6.5 29.5t-13.5 7.5h-6q-29 -2 -79.5 -55t-72.5 -105q-19 -43 -12.5 -48.5z" />
<glyph unicode="A" horiz-adv-x="1300" d="M-37 522q0 35 285 74l98 12l29 37q189 244 370.5 437t301.5 278q88 61 137 61q63 0 63 -104q0 -53 -16 -130.5t-68 -273.5q-63 -232 -63 -239q0 -4 63 -4h8q29 0 48 -1.5t31 -4.5t17 -7.5t3 -11.5q-1 -9 -13.5 -10.5t-74.5 -1.5h-84l-25 -90q-45 -171 -73 -313 q-24 -121 -24 -165q0 -8 1 -14q4 -30 0 -37q-5 -9 -23 -8t-24 10q-7 10 -7 39q0 21 4 52q9 73 44 235q32 161 65 272l4 15l-61 -4q-197 -12 -442 -35q-146 -15 -148 -15q-9 0 -133 -189t-143 -232q-7 -20 -13.5 -26.5t-17.5 -6.5q-12 0 -16 4q-6 5 -5 15q1 18 57 114 q58 100 138 217q55 78 55 89q0 2 -6 2q-19 0 -97 -12q-100 -16 -155 -30q-53 -14 -71 -14h-2q-18 0 -17 16zM420 618q0 -2 9 -2l108 11q232 26 487 39l29 2l14 53l-2 2q1 2 21 78t34 125q43 153 60 223q25 100 29 162q1 11 1 20q0 43 -16 49h-6h-2q-38 0 -166 -104 q-190 -156 -424 -434q-39 -46 -107.5 -133.5t-68.5 -90.5z" />
<glyph unicode="B" horiz-adv-x="1382" d="M109 123q9 67 100 141q86 72 217 123q59 21 59 29q0 10 47 102q48 94 48 100q0 5 -19 5q-15 0 -24 9t-5 19q4 11 35 19q6 2 15.5 4t16 3.5t9.5 2.5q8 3 70 113q144 257 246 389q31 40 44 52.5t23 12.5q22 0 16 -19q-8 -20 -55 -85q-56 -76 -149 -232q-47 -78 -70 -118 t-37.5 -66t-13 -28.5t3.5 -6.5q13 0 119 45q224 92 400 215t241 232q26 42 26 78q0 24 -12 45q-13 23 -34 36t-66 27q-32 9 -58.5 11.5t-107.5 2.5q-104 0 -179.5 -11t-174.5 -42q-148 -44 -300 -129.5t-227 -167.5q-46 -50 -58 -75.5t-5 -57.5q2 -9 -5 -13t-17 -1.5 t-17 10.5q-9 10 -9 26q0 20 15 50q35 70 136.5 150.5t239.5 149t277 105.5q157 44 322 47q97 0 154 -14q88 -22 129 -61l4 -2q23 -22 31.5 -46t5.5 -61q-8 -109 -192.5 -260t-442.5 -258q-72 -30 -72 -33q0 -4 29 -8q61 -7 114.5 -35.5t75.5 -64.5q14 -23 14 -64.5 t-14 -75.5q-58 -139 -226 -250t-401 -165q-78 -19 -132 -19q-24 0 -44 4q-61 10 -91 40q-26 25 -26 59q0 6 1 12zM154 111q0 -17 19 -35.5t44 -24.5q23 -5 49 -5q32 0 68 7q205 38 378 138.5t244 220.5q40 68 40 114q0 10 -2 20q-11 50 -85 79l2 6q-70 28 -155 28 q-23 0 -33 -2q-46 -5 -60.5 -12.5t-29.5 -36.5q-15 -25 -35.5 -65t-35 -70t-13.5 -31q1 0 12.5 3t35.5 9l44 11q104 29 158 29q24 0 38 -6t11 -17q-2 -10 -47 -10q-80 -3 -221 -53q-43 -15 -53 -26.5t-7 -43.5q3 -24 -10 -27q-29 -6 -39 31q-4 18 -8 18q-8 0 -54.5 -21 t-78.5 -40q-73 -41 -124.5 -96t-51.5 -92z" />
<glyph unicode="C" horiz-adv-x="1345" d="M47 362l4 -4q0 60 3.5 88t15.5 68q58 190 176 369q128 194 316.5 339t363.5 183q31 6 58 6q40 0 72 -12q56 -21 70 -70q4 -13 4 -30q0 -45 -29 -117q-40 -100 -112 -189q-85 -108 -112 -108q-37 0 0 39l4 4q82 82 140 188t58 174q0 34 -2.5 42t-19.5 20q-23 16 -64 16 q-80 0 -189.5 -50.5t-221.5 -139.5q-141 -112 -242 -245.5t-176 -305.5q-69 -158 -69 -280q0 -43 9 -83q27 -124 127 -158q43 -14 98 -14q69 0 156 23q145 42 316 149q176 109 334 240q38 32 61 49.5t38.5 26.5t22.5 8.5t11 -8.5q2 -3 -8 -14.5t-34 -32.5t-63 -52 q-218 -180 -375.5 -272.5t-302.5 -126.5q-57 -12 -93 -18q-27 -4 -60 -4q-12 0 -25 1q-49 2 -92 17q-110 36 -156 155q-12 35 -12 129z" />
<glyph unicode="D" horiz-adv-x="1452" d="M42 946.5q0 28.5 19 61.5q44 83 117 149q93 80 263 150t339 98q75 12 174 12t162 -12q280 -56 369 -264q15 -33 19 -99q2 -22 1 -41q0 -39 -6 -67q-38 -180 -221.5 -389t-441.5 -367q-179 -111 -347 -155q-59 -15 -133 -17h-15q-64 0 -105 12q-86 26 -120 88 q-19 34 -20 74q0 33 13 70q68 207 356 328q36 15 49 23t16 17q25 66 136 300q28 56 84.5 149.5t93.5 144.5q28 39 39 50t20 10q17 -2 17 -17t-18 -43q-5 -9 -13 -20q-92 -129 -168 -274q-31 -61 -80 -165t-53 -120q-3 -11 -1.5 -12t13.5 2q58 13 121 13q19 0 37 -1 q84 -5 98 -27q13 -22 1.5 -30t-34.5 6q-20 12 -91 12t-122 -12q-44 -10 -51 -17q-11 -15 -30.5 -77.5t-20.5 -86.5q-1 -32 -10.5 -43t-24.5 0q-12 8 -10.5 43.5t18.5 83.5q19 58 17 60h-1q-7 0 -59 -26q-57 -29 -94 -52q-86 -55 -141.5 -135.5t-55.5 -149.5 q0 -66 50.5 -100.5t146.5 -34.5q132 0 313 87.5t371 244.5q164 135 273.5 278.5t144.5 270.5q10 38 10 98t-10 92q-31 97 -122.5 164t-223.5 90q-63 11 -132 11q-140 0 -306 -44q-333 -90 -478 -241q-32 -32 -63 -81.5t-31 -68.5q0 -31 -27 -28l-4 -7q-17 3 -17 31.5z" />
<glyph unicode="E" horiz-adv-x="1050" d="M45 266q2 49 33 99q50 85 144.5 159.5t211.5 120.5q54 22 54 26q-2 2 -9 3q-69 4 -140 26.5t-112 51.5q-25 19 -44 49t-19 51l6 2q0 54 71.5 134.5t196.5 166.5q106 74 264.5 149.5t270.5 106.5q63 16 139 16q54 0 68 -2t32 -14q30 -19 41 -39.5t11 -56.5 q-2 -65 -62 -162.5t-143 -169.5q-51 -44 -68.5 -54t-29.5 -1q-4 3 -4.5 6t3.5 9t13.5 15t27.5 25q87 75 150 173.5t63 160.5q0 23 -14.5 43t-34.5 26q-17 6 -43 6q-38 0 -94 -13q-94 -21 -211 -70q-189 -78 -353 -191.5t-218 -202.5q-26 -42 -26 -71v-6q4 -30 44 -61.5 t103.5 -48.5t173.5 -26q101 -7 101 -25l-1 -5q-5 -10 -25 -13q-17 -3 -96 -26q-104 -34 -197 -95.5t-153 -136.5q-39 -48 -52.5 -79t-13.5 -72q0 -49 24 -82.5t75 -58.5q23 -11 39.5 -14t60.5 -3q60 0 100.5 9.5t96.5 35.5q68 32 141 86.5t98 91.5q7 11 7 16t-7 11 q-10 9 -5 18t20 9q17 0 28 -10t11 -25q0 -29 -67.5 -92.5t-143.5 -106.5q-104 -60 -206 -78q-41 -7 -78 -7q-56 0 -103 16q-44 15 -81.5 46t-54.5 68q-10 23 -13 39t-1 47z" />
<glyph unicode="F" horiz-adv-x="1361" d="M45 889q0 71 143.5 177t358.5 194q171 71 364.5 119.5t329.5 54.5q35 2 53 2h14q14 -2 33 -13l-2 -4q29 -16 37 -41q6 -17 5 -29.5t-11 -45.5q-19 -62 -64.5 -148t-158.5 -272q-149 -248 -153 -263q-1 -6 3 -5q1 0 7 1q22 5 98 19q57 8 82 8q13 0 18 -2q9 -3 13.5 -7.5 t3.5 -8.5q-3 -12 -45 -15q-45 -4 -115 -18q-56 -11 -86 -19q-16 -3 -72 -104q-151 -281 -205 -403q-25 -57 -39 -60q-14 0 -18 4t-4 23q0 14 54.5 127.5t135.5 265.5q66 126 66 137q0 2 -4 0q-6 -2 -174.5 -38.5t-198.5 -41.5q-12 -2 -25.5 5t-13.5 14t47.5 19.5t194.5 43.5 q197 43 201 47q12 10 185.5 303.5t194.5 337.5q33 73 33 108q0 20 -10 28q-13 11 -56 11q-55 0 -157 -18q-184 -32 -371 -92q-195 -64 -377 -162q-124 -67 -202 -139q-69 -65 -69 -102q0 -4 1 -8q3 -12 -2 -21.5t-14 -9.5q-11 0 -20 13t-9 28z" />
<glyph unicode="G" horiz-adv-x="1153" d="M47 276q-1 11 -1 24q0 46 13 119q17 95 41 159h-2q96 256 287 488.5t410 354.5q47 27 95 42t96 17q4 1 9 1q42 0 77 -23q37 -24 54 -76q5 -16 5 -42q0 -27 -6 -66q-12 -73 -38 -131q-40 -91 -87 -167t-66 -79q-18 -3 -15 12q2 18 35 68q100 151 125 283q10 49 11 65.5 t-7 42.5q-20 70 -93 70q-1 1 -2 1q-73 0 -171 -59q-152 -86 -317.5 -260t-270.5 -372q-87 -162 -121 -319q-16 -78 -16 -138q0 -62 17 -105q36 -91 117 -91q12 0 26 3q101 15 233 146q51 51 109 123q178 222 178 229q0 3 -58 -8q-57 -10 -81 -17q-20 -6 -30 -1.5t-5 18.5 q3 9 12.5 13.5t38.5 12.5q90 23 199 30q36 3 61 3q51 0 58 -10q7 -8 6 -13.5t-9.5 -8t-23.5 -1.5q-27 4 -61 0l-35 -4l-37 -61q-70 -116 -152 -293.5t-94 -241.5q-4 -20 -9.5 -30t-12.5 -10t-15 10t-2 47q4 26 48 137.5t73 171.5q15 33 12 33q-2 0 -8 -6 q-118 -135 -175 -187.5t-122 -85.5q-65 -31 -119 -31q-44 0 -81 21q-88 48 -103 192z" />
<glyph unicode="H" horiz-adv-x="1439" d="M45 698q5 9 82 17.5t186 11.5l121 4l31 51q199 345 286.5 481.5t110.5 139.5q18 2 17 -10q-1 -21 -64 -119q-53 -82 -178.5 -296t-134.5 -237l-6 -16h110q132 0 223 -6q74 -5 205 -10l94 -4l78 139q121 219 241.5 407.5t139.5 188.5t19 -11q-1 -20 -78 -141 q-100 -157 -221 -367q-115 -200 -115 -215q0 -5 37 -10q29 -3 49 -10.5t26 -17t-1 -21.5q-8 -8 -27 0q-20 8 -68 8l-47 2l-28 -53q-59 -105 -172.5 -350t-116.5 -274q-4 -26 -15 -37q-9 -9 -22 -12t-19 3q-1 1 -1 5q0 24 51 143q139 318 233 506l37 76h-10q-8 8 -439 22 q-77 2 -123 2q-65 0 -69 -4q-20 -17 -113 -217t-100 -244q-3 -17 -7.5 -20.5t-19.5 -3.5t-17 3t1 25q4 32 79 203.5t116 245.5q5 9 -9 11l-43 1q-43 0 -136.5 -5.5t-129.5 -10.5q-22 -3 -35.5 5.5t-7.5 20.5z" />
<glyph unicode="I" horiz-adv-x="1067" d="M49 72q-1 6 6.5 11t20.5 7q46 9 272 25l27 2l28 65l5 4q156 370 589 1026q129 194 129 199q-7 4 -53.5 2.5t-120 -8.5t-127.5 -16q-44 -7 -55 2q-22 19 31 31q7 2 14 3q191 31 488 31q298 0 319 -18q12 -10 6.5 -21t-20.5 -8q-18 3 -202 7q-99 2 -150 2q-44 0 -52 -1 q-20 -3 -47 -47q-9 -16 -108 -170q-346 -531 -494 -815q-39 -75 -82 -165.5t-43 -96.5q0 -4 152 -4q150 0 168 -10q15 -8 17 -18t-8 -13.5t-26 2.5q-15 6 -158 6q-103 -2 -124.5 -3.5t-28.5 -8.5q-9 -11 -22.5 -12t-22.5 8q-6 6 -35 6q-16 0 -39 -2q-121 -7 -209 -17 q-20 -3 -35 4q-9 5 -10 11z" />
<glyph unicode="J" horiz-adv-x="1437" d="M58 4q-14 29 -14 69q0 43 17 97q30 97 111 199q72 89 193.5 177.5t230.5 133.5q65 28 178 56t156 28q24 0 45 -7.5t30 -18.5t1 -21q-4 -6 -19 -4.5t-18 8.5q-4 9 -28 9q-34 0 -105 -16q-123 -27 -226 -71q-102 -43 -215 -126t-178 -163q-91 -113 -117 -219q-8 -34 -8 -61 q0 -58 37 -86q13 -10 28 -12.5t62 -2.5q70 0 125 17q357 107 653 409q219 225 353 506q47 99 64 167q13 58 13 126v25q-2 48 -5.5 65.5t-16.5 40.5q-15 27 -34.5 42t-59.5 30q-34 12 -108 12t-140 -12q-121 -23 -246.5 -76t-202.5 -113q-33 -26 -45 -32.5t-18 -1.5 q-14 9 -9.5 20t31.5 35q52 46 165.5 99.5t219.5 82.5q134 37 237 37q60 0 109 -12q135 -34 166 -152q11 -41 11 -89q0 -104 -52 -239q-75 -196 -243 -415l-4 -6q-170 -223 -398 -383t-448 -211q-79 -17 -131 -17q-17 0 -31 2q-86 11 -116 74z" />
<glyph unicode="K" horiz-adv-x="1404" d="M49 72q-3 4 -3 15q0 24 18 81q26 81 75 186l27 60q0 4 -19 4q-15 0 -21 9t1 19q8 12 37 19q21 5 29 14q13 15 83 154q69 134 209 364t226 351q25 35 35.5 45.5t19.5 9.5q18 0 18 -13q0 -14 -90 -151q-98 -149 -196 -315q-80 -130 -160 -279q-75 -139 -74 -152q0 -2 3 -2 q23 0 180 67q174 74 298 138q260 133 580.5 337.5t460.5 326.5q46 40 63.5 47t24.5 -10q1 -1 1 -3q-1 -18 -65 -74q-70 -61 -202 -152.5t-297 -194.5q-507 -317 -893 -469l-94 -37l71 -14q188 -35 465 -144q242 -99 242 -137q0 -15 -11 -15q-14 0 -47 25q-46 34 -224 104.5 t-302 104.5q-60 15 -154 31q-89 16 -111 16h-3q-12 -1 -20.5 -14.5t-32.5 -65.5q-26 -55 -58.5 -133.5t-40.5 -103.5q-6 -16 6 -19q10 -3 9 -11t-13 -17q-13 -9 -29 -8.5t-22 10.5v-4z" />
<glyph unicode="L" horiz-adv-x="1234" d="M53 208q5 10 19 15q19 6 98 17.5t102 11.5q15 0 20.5 4.5t14.5 26.5h2q29 68 133 274.5t176 339.5q49 92 166.5 281t145.5 221q27 30 51 10q7 -7 -16 -57q-24 -50 -37 -54q-11 -3 -107.5 -156.5t-165.5 -279.5q-54 -98 -128 -242q-74 -142 -126 -248q-49 -100 -49 -107 q0 -1 16 0t46 3t57 4q114 8 341 10q36 0 67 1q168 0 213 -7q96 -14 96 -41q0 -7 -8 -18q-10 -13 -31 -13t-21 13q0 12 -8 16q-12 6 -137 13q-64 4 -139 4t-160 -4q-330 -14 -520 -41q-48 -8 -84 -15q-19 -4 -23 0q-9 8 -4 18z" />
<glyph unicode="M" horiz-adv-x="1531" d="M47 178q-1 2 -1 4q0 46 212 416q185 321 327.5 535t186.5 237q13 7 20 7.5t19 -5.5q17 -7 25 -26q3 -8 3 -22q0 -86 -96 -392q-47 -151 -85 -287q-34 -123 -33 -137q1 -4 7 2t23 25.5t42 47.5t71 81q105 121 387 411q121 126 187.5 189t152.5 135q63 52 89.5 68t49.5 16 q34 0 35 -34q0 -7 -2 -15q-9 -47 -65 -160q-8 -18 -95 -187q-165 -322 -239 -485q-78 -171 -148 -367q-63 -176 -63 -213v-6q6 -19 -14.5 -26t-30.5 10q-2 3 -2 12q0 45 63 234q103 303 402 889q139 271 139 298q0 3 -2 3q-7 0 -90 -70.5t-144 -128.5q-106 -100 -303.5 -307 t-357.5 -387q-88 -97 -115 -97q-12 0 -22.5 12t-10.5 27q0 24 39 174t78 277q49 148 66 219q14 57 23 111.5t5 54.5q-3 0 -24.5 -27t-52.5 -69t-56 -80q-45 -67 -168.5 -270t-197.5 -332q-92 -160 -193 -357v-2q-6 -11 -21 -13t-20 7z" />
<glyph unicode="N" horiz-adv-x="1609" d="M43 72q0 44 315 663q62 121 220 408q131 241 155 270q11 13 26.5 12t24.5 -16q4 -6 4 -23q0 -52 -32 -208q-44 -220 -61 -360t-17 -290q0 -158 17 -254t55 -159q47 -77 126 -77q37 0 82 17q45 18 116 74t114 111q89 110 178 283.5t150 357.5q44 132 87.5 310t43.5 228 q0 14 3.5 17t16.5 2l21 -2l-2 -56q-4 -136 -86.5 -399t-182.5 -461q-137 -272 -300 -412q-128 -110 -239 -110q-30 0 -59 8q-66 20 -106.5 76.5t-65.5 163.5q-26 112 -26 274.5t26 339.5q26 172 70 379q13 52 13 63q0 2 -1 3l-10 -14q-9 -16 -64 -116q-31 -56 -51 -92 q-111 -201 -292 -555t-212 -430q-7 -20 -13 -26t-17 -6l-4 -5q-23 0 -23 11z" />
<glyph unicode="O" horiz-adv-x="1396" d="M52 583q-5 33 -5 66q0 91 39 189q72 181 276 347t429 226v-2q105 27 190 27q143 0 231 -82q136 -124 136 -324q0 -70 -17 -149q-43 -208 -176 -412t-293 -319q-142 -102 -250 -134q-78 -22 -139 -22q-42 0 -76 10q-82 26 -151 131q-23 35 -31.5 67.5t-11.5 90.5l-2 59 l-41 35q-88 75 -108 196zM96 657q-1 -13 0 -25q0 -121 80 -214q23 -27 27 -23t18 70q25 118 105.5 278.5t181.5 294.5q79 103 111 103h2q16 -1 16 -12q0 -14 -25 -42q-77 -85 -160 -225t-137 -276q-17 -42 -36 -116.5t-19 -96.5q0 -9 50 -21t87 -12q39 0 66 12q44 19 49 0 q1 -4 0 -8q-4 -14 -35 -27q-32 -14 -77 -14q-42 0 -95 12l-49 11v-43q0 -74 31 -131q42 -74 103 -100q41 -17 98 -16q27 0 57 3q145 21 334 182q219 186 342 484l-4 -9q42 104 56 163.5t17 144.5q1 14 1 27q0 190 -120 284q-94 74 -204 74h-17q-131 -6 -282 -73.5 t-282.5 -177t-207.5 -233.5q-73 -118 -82 -248z" />
<glyph unicode="P" horiz-adv-x="1554" d="M44.5 902.5q2.5 29.5 25.5 75t57 85.5q118 139 305.5 238t409.5 139l-2 -4q120 20 301 20q75 0 127 -6q148 -15 249.5 -60t141.5 -112q25 -40 27 -97v-9q0 -52 -21 -101q-38 -82 -150 -182t-278 -203q-159 -97 -351 -164.5t-343 -77.5q-5 0 -14 -1q-33 -1 -44 -12 q-14 -13 -58 -106l-15 -30q-92 -194 -92 -228q0 -5 2 -6q10 -8 6 -17.5t-17 -14.5q-19 -6 -22.5 -5.5t-14.5 9.5q-11 11 -6 33q14 57 109 260q49 100 49 108q0 6 -45 10q-65 5 -102 39q-24 22 -24 48q-1 14 7 30q20 44 94 88q53 35 158 66l76 22l61 105q43 74 132.5 213.5 t150.5 228.5q23 33 33.5 43t19.5 8q15 0 19 -12q1 -8 -10.5 -27t-77.5 -121q-33 -51 -54 -83q-58 -89 -107 -169t-75.5 -126.5t-22.5 -46.5q1 0 9 1t25 3.5t28 3.5q62 8 113 8q58 0 77 -12q28 -19 16 -30t-44 3q-15 7 -30 8t-56 -4q-63 -7 -119 -18l-55 -11l-58 -104 q-55 -101 -55 -113q0 -7 27 -4q215 23 448.5 127.5t433.5 265.5q112 91 163.5 165.5t51.5 146.5q0 75 -63 127q-109 89 -360 107q-53 4 -106 3q-196 0 -384 -51q-148 -40 -287 -118.5t-232 -172.5t-112 -178q-6 -28 -12.5 -36t-18.5 -3q-17 9 -14.5 38.5zM299 522 q0 -19 10 -26q35 -23 101 -23h36l50 94l4 -2q51 98 51 109q0 3 -4 2q-1 0 -21 -4q-86 -25 -156.5 -71.5t-70.5 -78.5z" />
<glyph unicode="Q" horiz-adv-x="1341" d="M52 583q-5 33 -5 66q0 91 39 189q72 181 276 347t429 226h4q79 21 147 27q16 1 31 1q121 0 217 -64q109 -72 145 -212q10 -35 10 -113q0 -11 -1 -22q-1 -96 -13 -145q-51 -212 -181.5 -416t-287.5 -317q-6 -4 -18.5 -12.5t-18.5 -12.5q98 -33 182 -67t93 -44 q11 -11 0 -22q-8 -8 -30.5 -1.5t-115.5 42.5q-100 38 -172 63q-88 -56 -170 -80q-50 -14 -111 -16h-20q-47 0 -80 8q-37 9 -84.5 48t-70.5 79q-22 39 -31 71.5t-12 86.5l-2 59l-41 35q-88 75 -108 196zM106 662q-1 -13 -1 -25q0 -122 81 -215q23 -27 27 -23t18 70 q25 118 105.5 278.5t181.5 294.5q79 103 109 103h2q16 -1 16 -12q0 -13 -24 -41q-77 -85 -160 -225.5t-137 -276.5q-17 -42 -36.5 -116.5t-19.5 -96.5q0 -9 50.5 -21t87.5 -12q38 0 65 12q44 19 49 0q1 -4 0 -8q-3 -13 -35 -26q-33 -15 -79 -15q-42 0 -93 12l-49 11v-43 q0 -132 94 -207q41 -34 82 -42q16 -2 36 -2q32 0 75 7q79 14 182 72q-100 33 -127 37q-24 3 -28 16q-5 12 6 17.5t34 2.5q36 -5 160 -45q57 37 105 80q219 186 342 484l4 -7q42 105 56.5 164t17.5 144v17q0 46 -9 93q-11 54 -37.5 105.5t-66 90t-98.5 60.5q-52 19 -114 19 h-17q-131 -6 -282.5 -73.5t-283 -177t-207.5 -233.5q-73 -118 -82 -247z" />
<glyph unicode="R" horiz-adv-x="1667" d="M55 866q-13 9 -13 27q0 27 26 71q46 76 137 148q137 113 351 192.5t458 108.5q149 18 274 18q126 -1 230 -19q204 -38 288 -144q19 -24 31 -58t12 -59q0 -87 -95 -192t-258.5 -203t-358.5 -164q-183 -62 -459 -107q-99 -16 -99 -21l1 -1q159 -29 251.5 -53t264.5 -80 q174 -57 228 -82q46 -21 45 -39q0 -3 -1 -6q-4 -9 -19 -9t-24 9q-20 20 -274 100q-367 117 -533 123l-37 2l-24 -47q-27 -52 -65.5 -140.5t-53.5 -131.5q-12 -35 -12.5 -44.5t8.5 -13.5q30 -17 -6 -39t-54 -4l-6 2q-10 10 0 51q8 34 49.5 138.5t75.5 173.5q27 59 27 64 t-111 5q-106 0 -114 11q-12 15 11 20t116 8q116 6 127 13q7 7 53 86q87 161 311 501q2 3 82 133q56 91 66 101q12 12 24 8.5t12 -18.5q0 -24 -268 -443q-73 -116 -143 -236q-66 -113 -66 -121q0 -2 9 -2q34 0 197 31q197 38 284 64q201 58 372.5 148t284.5 194 q73 70 103 122q26 45 27 89q0 7 -1 14q-8 96 -120 155q-110 59 -298 69q-40 2 -83 2q-158 0 -355 -29q-234 -37 -430.5 -120t-312.5 -193q-40 -39 -74.5 -88.5t-34.5 -69.5q0 -17 -11 -25t-22 0z" />
<glyph unicode="S" horiz-adv-x="970" d="M56 21q-10 20 -9 41q0 25 14 51q17 29 46 55.5t86 64.5q123 84 174 84q25 0 42 -10.5t17 -25.5q0 -9 -13.5 -11t-19.5 6q-4 6 -15 6q-20 0 -64 -22q-66 -32 -138 -90q-83 -69 -83 -116q0 -27 26 -46q12 -9 24 -11.5t45 -2.5q55 0 97 10q198 43 330.5 119.5t134.5 148.5 q0 29 -23 50.5t-85.5 50.5t-205.5 84q-135 53 -213 105.5t-119 119.5q-19 31 -22.5 46t-3.5 63q0 46 4 61t27 53q72 121 247 248q341 253 656 289q26 3 49 3q69 0 109 -28q45 -32 45 -96q0 -11 -1 -23q-3 -32 -18 -73q-55 -154 -229 -346q-61 -69 -111 -112q-44 -39 -58 -39 q-2 0 -3 1q-12 4 -12 12q0 14 30 41q65 59 145 155.5t125 172.5q50 82 68 141q9 31 12.5 51.5t0 42.5t-18.5 37q-25 25 -85 25q-24 0 -54 -4q-145 -17 -322.5 -101t-335.5 -210q-189 -151 -219 -261q-6 -22 -6 -44q0 -87 96 -169q44 -38 101.5 -67.5t205.5 -89.5 q157 -62 199 -88q73 -47 73 -104q0 -28 -17 -58q-52 -93 -244 -172q-108 -43 -229 -67q-78 -15 -128 -16q-28 0 -47 5l2 2q-57 13 -79 58z" />
<glyph unicode="T" horiz-adv-x="888" d="M48.5 1265q0.5 11 8.5 17q9 6 83.5 21t140.5 24q113 17 299.5 36.5t289.5 25.5l72 4l19 24q20 25 34 23q15 -2 15 -23l-2 -20l49 4q63 5 227 8q64 2 124 2q126 1 237 -7q164 -10 190 -30q10 -6 8 -18.5t-14 -18.5q-13 -8 -23 2q-15 17 -92.5 22t-341.5 5q-332 0 -368 -4 l-33 -6l-123 -213q-40 -69 -97.5 -166t-60.5 -103q-271 -463 -373 -759q-17 -46 -20 -63.5t4 -24.5q10 -15 -2 -27q-27 -24 -47 -4l2 -4q-5 5 -5 18q0 64 116 332q64 149 139.5 289t310.5 543l103 176h-35q-67 0 -297 -23q-327 -37 -453 -63q-65 -13 -76 -13h-2 q-7 3 -6.5 14z" />
<glyph unicode="U" horiz-adv-x="1157" d="M66 326q46 416 389 997q43 72 61 90.5t35 7.5q9 -5 5.5 -15.5t-28.5 -53.5q-254 -435 -352 -760q-60 -197 -63 -367v-9q1 -112 25 -142q13 -15 37 -16q26 0 65 16q41 18 123 85.5t141 133.5q139 155 270.5 343.5t347.5 543.5q154 249 164 252t21.5 -3.5t11.5 -15.5 q0 -6 -37 -67q-67 -110 -160 -295.5t-147 -317.5q-110 -270 -127 -450q-4 -42 -4 -63v-14q2 -16 20 -22q33 -11 6 -32q-15 -12 -33.5 -12t-29.5 12q-12 15 -12 66q-1 28 3 67q10 110 40 215q34 127 86 248q5 12 7 18t5 13.5t4 10.5t0 3t-53 -74q-223 -333 -441 -545 q-86 -82 -170 -125q-66 -34 -112 -34q-13 0 -25 3l13 5q-60 13 -80 87q-12 43 -12 108q0 48 6 108z" />
<glyph unicode="V" horiz-adv-x="886" d="M44 210q-1 27 -1 58q0 137 23 369q34 373 104 678q20 87 25.5 102t16.5 15h1q20 0 23 -20q0 -3 -1 -6q0 -23 -12 -81q-60 -284 -100 -652q-29 -268 -29 -409q0 -53 4 -88q6 -56 13.5 -77t21.5 -21q17 0 67 47.5t107 118.5q99 124 220.5 299t338.5 506q206 313 223 333 q10 11 20 11h3q21 3 21 -11q0 -12 -174.5 -283.5t-317.5 -480.5q-187 -273 -300.5 -409.5t-174.5 -161.5q-23 -10 -41 -10q-16 0 -29 8l-4 -2q-42 25 -48 167z" />
<glyph unicode="W" horiz-adv-x="1824" d="M46 351q-1 15 -1 29q0 37 6 73q15 78 55 186t89 203q83 158 191 296q104 134 142 134h2q19 -3 19 -14q0 -16 -35 -50q-100 -95 -213 -290.5t-164 -360.5q-39 -125 -39 -196q0 -32 8 -54q15 -40 51 -40q58 0 172 103q36 33 77 76q78 82 278.5 322t230.5 287q25 40 50 40 q6 0 12 -3q14 -5 11.5 -18t-23.5 -42q-40 -52 -106.5 -189t-98.5 -233q-54 -154 -54 -273q0 -12 1 -24q5 -119 52.5 -181t133.5 -62q100 0 243.5 89t272.5 230q95 104 191.5 265t162.5 325q44 110 62.5 183t21.5 151l4 84l-18 2q-12 1 -17.5 7.5t-3 14.5t12.5 13 q19 8 36.5 2t26.5 -23q11 -22 11 -81v-10q-1 -66 -13 -128q-38 -184 -169.5 -431.5t-274.5 -404.5q-47 -52 -137 -127.5t-146 -109.5q-67 -43 -145 -69q-75 -26 -123 -25h-4q-17 0 -45 4q-55 10 -101 51q-92 80 -92 252q0 95 28 197t97 266q2 5 -27 -27l-57 -65 q-234 -281 -343 -377.5t-191 -96.5q-26 0 -52 13t-41 35q-13 20 -17 72z" />
<glyph unicode="X" horiz-adv-x="1538" d="M51 8l4 -4q-10 10 13 33q35 37 253.5 210t409.5 316q53 40 86 65.5t49 40t15 17.5q-8 16 -49.5 133.5t-53.5 157.5q-48 160 -84 350q-10 50 -11 64.5t7 19.5q15 12 26.5 0t18.5 -49q34 -161 90 -352t99 -291q1 -3 39 21t100 67q327 230 633 419q296 183 338 183h2 q11 -3 14 -14q1 -6 -13 -15t-57 -32q-159 -80 -487 -297q-384 -252 -522 -359l-31 -24l31 -70q55 -130 157 -307q84 -145 144 -205q21 -21 25 -29.5t-3 -15.5q-6 -7 -15 -7q-43 0 -147 159l-40 63q-112 182 -172 317q-20 49 -27 56h-1q-13 1 -285 -207q-280 -214 -435 -342 q-99 -80 -104 -80q-9 0 -17 8z" />
<glyph unicode="Y" horiz-adv-x="1007" d="M94 915q54 128 165 280t198 218q25 19 34.5 23t18.5 0q14 -7 14 -15q0 -10 -51 -57q-99 -94 -190 -227t-141 -255q-40 -98 -40 -159q0 -15 2 -27q15 -86 125 -86q119 0 310 123q60 40 167 126t173 147q77 71 198.5 195.5t163.5 176.5q29 36 46 54.5t30 28t20 8t13 -12.5 q4 -7 -8 -26t-60 -76q-138 -168 -311.5 -421t-276.5 -435q-79 -139 -138 -269q-53 -118 -53 -148q0 -3 1 -5q6 -23 -16 -35.5t-39 4.5l2 -6q-9 8 -1.5 38.5t37.5 102.5q95 231 248 479q49 80 126 197.5t110 161.5q9 13 6 12q-2 0 -23 -20q-412 -384 -659 -437q-32 -6 -62 -6 q-35 0 -67 8q-120 29 -120 150q0 77 48 190z" />
<glyph unicode="Z" horiz-adv-x="1769" d="M53 63l6 7q-9 7 -2 21t27 26q65 40 211 137q24 16 385 250q46 30 79 51.5t62 41t44 29.5t14 11q-3 3 -58 -4q-93 -10 -119 -11t-32 7q-16 14 13 21t120 14q128 11 139 14q22 8 246 165t393 283q112 83 217 167.5t105 92.5q0 17 -213 17q-138 0 -244.5 -9t-286.5 -36 q-326 -48 -530 -129q-28 -11 -43 -16t-24.5 -5.5t-12 2.5t-2.5 11q0 32 248 100q170 46 387 76q188 27 296 35q88 7 195 6h51q162 -3 185 -11q19 -8 30 -22q9 -12 8.5 -18.5t-12.5 -26.5q-30 -45 -272.5 -230t-536.5 -387l-90 -61h101q27 1 47 1q10 -1 19 -1q26 0 41 -2.5 t20.5 -6.5t3.5 -11q-3 -11 -86 -13q-78 0 -148 -4l-63 -4l-125 -82q-209 -137 -391 -254q-47 -30 -91 -58.5t-91.5 -59.5t-76.5 -50t-28 -20q45 6 100 16q221 36 645 70q123 8 359 8q217 0 296.5 -8t96.5 -31q8 -11 -1 -21.5t-28 -11.5q-19 -3 -22 11q-4 12 -23 16 q-20 4 -313 4q-195 0 -274.5 -2.5t-215.5 -13.5q-303 -25 -540 -66q-134 -22 -161 -25.5t-34 0.5z" />
<glyph unicode="[" horiz-adv-x="831" d="M47 377q13 45 136 280.5t225 411.5q108 189 136 233.5t40 47.5q18 5 96 8l-4 6q67 3 85.5 -2t18.5 -25q0 -10 -7 -12t-46 -2q-50 0 -90 -4l-37 -4l-78 -129q-76 -126 -181 -319t-178 -338t-67 -150q3 -3 92 12q77 13 100 14t31 -8q7 -7 2 -18t-16 -10q-3 0 -100 -19 q-92 -18 -109 -18q-18 0 -35 14q-19 16 -14 31z" />
<glyph unicode="\" horiz-adv-x="405" d="M50 1307q6 10 20 10q20 0 33 -28t38 -122q10 -40 58 -209h6q167 -562 157 -585q-5 -10 -17 -8t-21 14q-12 16 -41 123q-36 134 -103 360t-96 336q-21 80 -31 90q-9 9 -3 19z" />
<glyph unicode="]" horiz-adv-x="792" d="M49 322q3 11 101 26q97 14 108 25q14 17 180 366q278 588 260 592q-11 0 -116.5 -15.5t-108.5 -17.5q-4 -4 -13 4.5t-9 16.5q0 12 25 19t122 20h-2q109 15 127.5 11.5t17.5 -38.5q0 -48 -198 -467q-171 -363 -209 -439.5t-55 -86.5q-21 -13 -84 -23q-79 -14 -103 -16 t-35 4q-12 8 -8 19z" />
<glyph unicode="^" horiz-adv-x="358" d="M49 1130q-8 8 7.5 28t72.5 77q32 33 45.5 40t32.5 1l-4 2q15 -6 61.5 -69t42.5 -72q-13 -29 -66 36l-26 35l-2 2q-15 22 -23 21q-10 -1 -54 -47l-1 -1l-1 -1l-1 -1l-10 -10q-49 -49 -57 -49q-9 0 -17 8z" />
<glyph unicode="_" horiz-adv-x="569" d="M47 422q-7 15 8 20q21 6 142 9q299 9 317 0l-4 -2q12 -4 8 -17q-2 -8 -20 -10.5t-92 -5.5q-118 -4 -232 -4q-122 0 -127 10z" />
<glyph unicode="`" horiz-adv-x="192" d="M49 1102l14 2l-2 -2q11 0 46.5 -36t35.5 -46q0 -20 -34 6q-14 11 -29 27q-42 42 -31 49z" />
<glyph unicode="a" d="M-141 436q-18 11 -18 34q1 24 21 62q40 74 115 117q45 25 78 25q46 0 64 -37l10 -21l21 17q17 14 25.5 15.5t17.5 -7.5q6 -7 3.5 -15.5t-16.5 -33.5q-28 -51 -28 -81q0 -14 6 -24q10 -12 39 -10q68 6 198 111q60 45 64 47l-4 2q43 30 48 12q1 -3 1 -10q0 -6 -23 -29 q-30 -30 -80 -68.5t-88 -60.5q-67 -37 -109 -43q-8 -1 -15 -1q-33 0 -58 20q-17 13 -21 22t-4 33v35l-49 -37q-107 -83 -166 -83q-18 0 -32 9zM-111 481q-4 -19 6 -19q12 0 54 25q35 22 90 62l4 -2q36 26 41.5 34t1.5 23q-8 24 -14 27q-4 4 -11 4h-2q-34 -1 -96 -55 q-64 -56 -74 -99z" />
<glyph unicode="b" horiz-adv-x="550" d="M-125 395q-3 3 -3 9q0 21 26 81q23 57 73 151.5t97 170.5q38 63 111.5 169t86.5 118q10 10 26 8q19 -2 19 -14q0 -15 -53 -89q-146 -207 -264 -432l-25 -47l64 55q124 104 190 104q24 0 41 -13q19 -16 19 -40q0 -27 -23 -63q-6 -10 -10.5 -18.5t-6.5 -13.5t-1 -5 q4 -3 48 5t64 16q6 2 29 10t32.5 11.5t27 11t31.5 16.5t28 20q21 16 33.5 24.5t23 13t15.5 1.5t6 -12l-9 2q3 -12 -43 -47q-78 -59 -135.5 -78.5t-156.5 -27.5q-51 -5 -89 -27q-47 -26 -94 -26q-10 0 -21 1q-35 4 -33 22q1 11 17 23q39 27 107 33q24 3 34.5 8t24.5 19 q46 46 47 79q-1 16 -14 17q-31 0 -103.5 -55t-146.5 -133q-41 -42 -60 -54.5t-30 -3.5z" />
<glyph unicode="c" horiz-adv-x="458" d="M-55 537q19 69 75 113q40 32 75 33q13 0 26 -5q28 -10 37 -46q9 -32 -12 -37l-5 -1q-12 0 -17.5 7t-10.5 26q-3 15 -13 20q-12 3 -44.5 -25t-47.5 -55q-22 -37 -21 -61q0 -35 44 -43q15 -3 32 -3q117 0 334 148l2 -4q69 47 91 47q7 0 9 -5q1 -3 1 -7q0 -11 -43 -43 q-102 -76 -238 -137q-46 -19 -100 -31q-35 -8 -57 -8q-11 0 -19 2q-2 1 -27 6q-40 8 -60 40q-14 21 -14 45q0 12 3 24z" />
<glyph unicode="d" horiz-adv-x="589" d="M-66 498q0 38 36.5 94t74.5 78q22 13 43 13q25 0 49 -19l25 -21l43 59q48 65 213 314q57 88 76 88q4 0 12 -4q12 -7 9.5 -18.5t-23.5 -43.5q-88 -130 -172 -326q-72 -168 -72 -224q0 -9 2 -15q6 -19 28 -20q41 0 138 67q20 14 43 31q93 69 125 89t41 17l-7 -2 q22 -7 -6 -35q-19 -19 -69 -59q-120 -91 -182 -123q-49 -25 -89 -26q-10 0 -20 2q-15 4 -33 18q-12 11 -15 22t-3 46q0 50 20 106q22 56 22 65q0 1 -1 1q-2 1 -18 -19l-13 -16q-45 -58 -91 -104.5t-73 -61.5q-33 -19 -60 -19q-9 0 -19 2q-34 8 -34 44zM-18 492q2 -4 7 -5 q16 0 63 42q14 12 30 28l2 -2q34 36 39.5 46.5t-2.5 21.5q-14 22 -29 22q-4 0 -16 -4q-26 -12 -64 -72q-31 -50 -31 -70q0 -4 1 -7z" />
<glyph unicode="e" horiz-adv-x="399" d="M-59 524q6 53 58.5 101.5t100.5 48.5q13 0 25 -6q27 -12 24.5 -37t-32.5 -51q-27 -23 -72 -27h-20.5h-13.5t-8 -0.5t-5 -2t-4 -5.5q-8 -15 -4 -37q3 -49 80 -49q105 0 303 155l2 -2q54 42 72 42q8 0 8 -9v-4q0 -14 -68 -68q-114 -89 -196 -125q-63 -27 -117 -27 q-17 0 -33 3q-53 10 -79 36q-22 22 -22 52q0 6 1 12zM37 596q9 -4 14 -3.5t25 9.5q15 7 24.5 20.5t3.5 18.5h-4q-19 0 -55 -29l2 6q-19 -16 -10 -22z" />
<glyph unicode="f" horiz-adv-x="335" d="M-154 106q-23 16 -23 63q0 65 46 191q30 80 43 103l18 35l-22 12q-23 14 -19 24t33 13l33 2l41 72q116 204 235 364q68 94 86 94q16 0 19 -10q3 -7 -11 -28t-92 -132q-42 -60 -126.5 -194t-94.5 -158q-3 -8 6 -8q6 -1 33 2q24 2 86 12q33 6 103 30.5t112 45.5l6 4 q11 6 20 9t16.5 4t11.5 -1t4 -8q0 -16 -33 -33q-159 -77 -311 -92q-71 -7 -74 -10t12 -18q13 -13 33 -45q10 -20 13 -37.5t3 -61.5q0 -68 -20 -114q-34 -82 -90 -120q-32 -22 -59 -22q-20 0 -38 12zM-123 174q0 -36 7.5 -40.5t35.5 13.5q38 26 68 102q25 63 25 113 q0 10 -1 19v-2q-3 24 -17 54t-22 30q-18 -15 -57 -132.5t-39 -156.5z" />
<glyph unicode="g" horiz-adv-x="546" d="M-223 80q-14 13 -14 32q0 28 29 69q50 70 171 157q124 89 236 156q20 12 29 25t24 52q19 51 19 61q0 2 -1 3q-9 8 -41 -12.5t-108 -81.5q-85 -69 -119.5 -89t-60.5 -14q-31 6 -31 42q0 32 24 74q26 45 70 83q29 26 42 32.5t36 8.5q23 1 33 -1t22 -11q20 -16 23 -25 q3 -6 11 -3.5t36 17.5q36 20 56.5 22.5t37.5 -11.5q11 -8 13 -16.5t-1 -33.5q-3 -32 -8 -51q-3 -8 3 -7q10 2 54 24q54 27 140 59q46 16 59 16h4l-4 2q23 -10 -22 -36q-7 -4 -17 -9q-20 -10 -65 -30q-169 -74 -187 -101q-9 -11 -59 -88q-102 -154 -213 -243 q-70 -57 -132 -77q-27 -9 -48 -9q-25 0 -41 14zM-195 121q0 -12 4 -15t17 0q18 4 49 19q52 28 114 86t115 129l-2 4q61 83 62 86q-5 0 -88 -55q-118 -78 -194.5 -150t-76.5 -104zM-39 472q13 1 94 67l-2 2q76 64 76 73q-2 2 -8.5 9t-9.5 10q-5 8 -11 8q-5 0 -24 -8 q-23 -11 -57.5 -49t-49.5 -70q-20 -42 -8 -42z" />
<glyph unicode="h" horiz-adv-x="591" d="M-68 471.5q5 21.5 29 75.5q36 78 123.5 215t170.5 246t107 116q14 5 22 1t5 -17q0 -9 -55 -80q-113 -147 -215 -307q-36 -56 -75 -126q-36 -65 -36 -72q0 -1 1 -1q8 0 67 45q50 38 101 66.5t71 28.5q10 0 28 -9q9 -6 12.5 -20.5t6.5 -61.5l2 -43q1 -12 2 -18t6 -9t8 -3.5 t13 -1.5h5q26 0 75 26q30 16 106.5 67.5t79.5 53.5q32 19 39 4l2 2q3 -5 -25 -33q-41 -38 -115 -87t-112 -62q-26 -9 -51 -9q-14 0 -29 3q-39 8 -49 33q-8 20 -8 71q0 53 -6 53q-12 0 -67 -34.5t-114 -79.5q-88 -70 -100 -70t-20 8q-10 8 -5 29.5z" />
<glyph unicode="i" horiz-adv-x="372" d="M-59 500q0 20 14.5 56t34.5 65q41 61 59 61q9 0 19 -10q6 -6 1 -19t-28 -49q-45 -73 -45 -104q0 -12 7 -17q8 -6 26 -6q35 0 116.5 37.5t178.5 99.5h-2q62 41 84 41q8 0 11 -6q1 -2 1 -4q0 -5 -41 -35q-74 -53 -195 -114q-64 -32 -97 -43t-65 -11q-33 0 -57 19 q-22 17 -22 39zM96 760q-5 9 16 35.5t31 24.5q38 -6 7 -44q-15 -19 -31.5 -23.5t-22.5 7.5z" />
<glyph unicode="j" horiz-adv-x="309" d="M-520 91q4 41 47 95q44 57 148.5 138t220.5 149q43 27 56.5 45.5t43.5 99.5q13 36 22.5 50t20.5 12h6q10 -4 10 -20q0 -21 -16 -64l-16 -49q30 12 65 28q74 34 154 60q56 20 75 23.5t23 -3.5l4 2q10 -7 6 -16q-4 -8 -104 -41q-74 -24 -172 -72q-76 -38 -86 -59 q-67 -127 -125 -211q-88 -126 -187 -189q-69 -43 -121 -43q-24 0 -44 9q-31 13 -31 48v8zM-475 98q-7 -31 9 -36t60 14q37 15 88.5 58t92.5 93h-2q32 38 84.5 117t52.5 88q-11 0 -83 -51t-138 -105q-150 -121 -164 -178zM72 778q-5 11 8.5 30t25.5 19q15 0 18 -11t-7 -30v5 q-9 -17 -24 -21t-21 8z" />
<glyph unicode="k" horiz-adv-x="546" d="M-109 401q-1 1 -1 5q0 16 30 79q38 76 103 185q73 124 177 277.5t128 170.5q9 6 18 6q19 0 19 -16q0 -9 -86 -133q-174 -251 -254 -397l-27 -48l65 52q64 50 117.5 79t86 30t42.5 -23q2 -5 2 -10q0 -24 -39 -54q-19 -14 -59 -30.5t-66 -20.5q-15 -2 -20.5 -9t0 -17.5 t20.5 -22.5q29 -24 73 -24q45 0 106 26q150 68 206 112q33 26 46.5 33.5t19.5 -0.5l-4 6q2 -4 2 -8q0 -18 -37 -47q-94 -73 -227 -129q-59 -26 -110 -26q-28 0 -52 8q-62 19 -84 61q-12 19 -18 16q-7 -3 -78 -71q-72 -68 -80 -68q-11 0 -19 8zM154.5 604q2.5 0 21.5 6 q21 9 49 23q27 16 22 23q-1 1 -5 1q-6 0 -41 -19.5t-43 -27.5q-6 -6 -3.5 -6z" />
<glyph unicode="l" horiz-adv-x="442" d="M-16 453q-8 19 -8 45q0 98 114 288q72 120 169.5 217t166.5 119q24 6 31 6q9 0 22 -8q29 -17 29 -54q0 -36 -26 -80q-26 -46 -69 -95t-106 -99t-133 -90q-55 -29 -74 -34q-18 -6 -25 -16t-22 -52q-20 -55 -22.5 -99t12.5 -57t41 -13q16 0 38 5q54 13 124 56q16 9 139 100 q88 65 90 65v-2q10 0 14 -12q0 -5 -30 -35q-39 -36 -100.5 -82.5t-98.5 -68.5q-110 -62 -182 -62q-22 0 -41 6q-15 4 -30 19.5t-23 32.5zM104 715q10 0 72 41q117 75 199 164q41 44 67 94q20 39 21 60q0 6 -2 11q-3 9 -8 9q-3 0 -21 -7q-51 -22 -136 -107t-142 -171v2 q-52 -80 -52 -93q0 -3 2 -3z" />
<glyph unicode="m" horiz-adv-x="829" d="M-49 469q0 37 40.5 128t59.5 97q11 4 19 -4q7 -7 1 -26t-34 -80q-11 -23 -17.5 -38.5t-5.5 -15.5t47 37q68 59 107 83t68 24q34 0 44 -21q5 -11 5 -31q0 -18 -4 -44l-7 -35l58 41q102 73 145 78q18 1 25.5 -1.5t15.5 -13.5q9 -10 8 -22.5t-14 -61.5q-20 -67 -22 -78.5 t6 -19.5q6 -7 13 -7.5t30 5.5q40 11 86.5 41t142.5 102q50 37 68.5 45.5t25.5 -4.5h4q5 -11 -8.5 -23.5t-83.5 -64.5q-115 -86 -184 -115q-42 -18 -75 -18q-22 0 -40 8q-27 11 -27 46q0 18 7 42q3 13 20 72q7 26 4 29q-1 1 -3 1q-18 0 -124 -75q-47 -34 -70 -43t-38 0 q-11 6 -12.5 24t4.5 62q3 28 2 35.5t-7 7.5q-20 0 -75.5 -43.5t-124.5 -112.5q-26 -26 -38 -33.5t-24 -5.5t-15 6.5t-3 22.5z" />
<glyph unicode="n" horiz-adv-x="624" d="M-76 483q6 34 51 108.5t66 84.5q12 6 22 -4q9 -7 8 -12.5t-14 -24.5q-21 -27 -49 -75q-34 -57 -33 -64q0 -1 1 -1q9 0 75 52q156 120 219 120q16 0 27 -8q14 -9 14 -31q0 -25 -18 -67q-15 -37 -18.5 -63t8.5 -29q4 -1 10 -1q30 0 95 34q77 40 185 116q42 31 60 37t24 -8 l7 8q3 -10 -33 -39q-45 -39 -118 -86t-126 -69q-49 -22 -84 -22q-42 0 -63 32q-11 17 -7.5 41t23.5 76q18 47 14 51q-1 1 -3 1q-13 0 -63 -30q-58 -34 -99.5 -69t-88.5 -67t-57 -32q-16 0 -27 11q-11 8 -8 30z" />
<glyph unicode="o" horiz-adv-x="434" d="M-97 508q8 50 58 110q30 37 41 41q9 3 29 15q18 12 45 12q28 0 43 -12q24 -23 28 -45.5t-10 -57.5l-10 -28h33q112 0 243 80q41 25 58 31.5t26 -1.5l2 -4q4 -5 -0.5 -13.5t-20.5 -21t-44 -28.5q-142 -82 -272 -82q-43 0 -48 -10q-5 -12 -36.5 -38t-51.5 -32t-38 -6 q-27 0 -48 14q-28 21 -28 58q0 9 1 18zM-49 463q7 -13 19.5 -13t37.5 11t41 31l14 16l-18 10q-38 27 -43 35l-16 22l-17 -28q-23 -38 -22 -64q-1 -11 4 -20zM31 592q0 -18 22 -35q21 -14 29 -10q6 3 14 35h2q3 17 3 29q0 30 -21 32h-6q-15 -2 -29 -18t-14 -33z" />
<glyph unicode="p" horiz-adv-x="505" d="M-311 76q-4 13 6 33q18 38 108 195t148 251q52 84 71.5 110.5t30.5 28.5h6q17 0 17 -7q0 -20 -119 -214q-25 -41 -23 -41q5 0 46 55q71 91 136.5 144t108.5 53q34 0 46.5 -20t0 -54.5t-46.5 -74.5l-28 -35l51 12q74 16 128.5 40t127.5 77q40 29 55 29q2 0 4 -1l-4 -4 q12 -8 12 -14q0 -9 -28 -31q-70 -56 -183 -102q-38 -15 -96 -30t-96 -19q-32 -4 -55 -19q-41 -26 -76.5 -34t-48.5 4q-8 7 -22 -8q-20 -22 -122 -164q-107 -153 -118 -160q-10 -9 -21 -9t-16 9zM14 467l31 8q32 8 47 8v-2q27 0 83 63q51 57 51 85q0 3 -1 6q-1 10 -7 10.5 t-19 -6.5q-31 -14 -91.5 -68t-84.5 -92z" />
<glyph unicode="q" horiz-adv-x="401" d="M-84 135q1 49 39.5 136t97.5 175q8 13 26 39.5t23 34.5l19 29l-51 -43q-72 -59 -112 -59q-9 0 -17 4q-12 5 -16 11q-5 7 -5 27q0 27 21 68q19 34 50 67.5t54 43.5q20 9 38 9q34 0 58 -36q5 -7 10.5 -5t26.5 17q37 27 49 27q5 0 13 -4q10 -8 4 -20.5t-47 -69.5 q-45 -62 -63.5 -89.5t-14.5 -27.5q17 0 141.5 70.5t161.5 101.5q32 29 43 25l8 -7q13 -3 13 -12q0 -13 -29 -37q-31 -25 -126 -80.5t-161 -87.5l-74 -34q-1 0 0.5 -4t5.5 -10t9 -13q21 -31 21 -76v-17q-5 -55 -36 -112q-24 -42 -64 -74q-39 -32 -67 -32h-2q-47 3 -47 65z M-37 137q-3 -27 2.5 -30t28.5 12l2 -2q46 31 76 105q19 48 19 85q0 19 -5 35q-9 31 -18 31q-12 0 -35 -45q-63 -119 -70 -191zM-32 480.5q5 -2.5 34 17.5q27 15 72 57l-4 2q34 30 39.5 38t1.5 21q-7 17 -19 21q-22 0 -62 -42t-55 -81q-12 -31 -7 -33.5z" />
<glyph unicode="r" horiz-adv-x="456" d="M-90 436q-4 4 -4 12q0 34 67 142q33 55 48.5 68t29.5 1q8 -6 7 -10.5t-11 -23.5q-10 -16 -8 -16q5 0 55 40q31 24 46 34.5t28 13t20 -3.5t17 -23q13 -21 27.5 -29t48.5 -8q41 0 84 14l2 -4q31 11 47 11q18 0 18 -13q0 -10 -26 -23q-47 -21 -107 -24q-8 -1 -15 -1 q-62 0 -100 38q-18 18 -24 18q-7 0 -56 -46.5t-102 -104.5q-63 -70 -74 -70q-10 0 -18 8z" />
<glyph unicode="s" horiz-adv-x="352" d="M-134 391.5q0 21.5 13 36.5q10 12 44 36t59 38l16 8l-12 53q-9 35 -9.5 48t7.5 30q19 43 51 43q8 0 12 -2q15 -6 15 -15t-13 -16q-23 -12 -23 -43q0 -14 5 -33q8 -29 12.5 -35t15.5 1q2 2 115 47q33 13 88 32t64 23l-2 -2q14 6 25 9.5t19 5.5t13.5 2t9 -1.5t5 -5 t1.5 -8.5q0 -15 -55 -35q-14 -5 -72.5 -26.5t-93.5 -34.5l-117 -47l-4 -33q-4 -34 -25.5 -61t-52.5 -39q-36 -14 -62 -14q-21 0 -36 9q-13 8 -13 29.5zM-96.5 395.5q2.5 -2.5 14.5 -2.5q19 0 41 15l-2 2q31 20 41 47q6 14 -4 14q-6 0 -44 -28t-44 -37q-5 -8 -2.5 -10.5z" />
<glyph unicode="t" horiz-adv-x="276" d="M-303 37q-2 3 -2 8q1 27 45 123q52 114 145 276q31 54 135 238q46 81 95 164q37 64 37 73q0 2 -14 2q-30 0 -128 -5q-140 -7 -190 -13q-37 -5 -47.5 -4t-16.5 8q-16 18 26 27q14 3 36 6q48 6 161 13.5t162 7.5h41l45 69q47 69 60 72q22 3 20 -15t-28 -61q-33 -57 -33 -59 t219 -6l-2 2q208 -2 231 -11q13 -6 11 -20q-1 -10 -22.5 -14t-31.5 4q-6 6 -189 6h-39q-148 0 -181 -4q-19 -3 -27 -10.5t-25 -36.5q-12 -19 -67 -113q-225 -387 -298 -525.5t-73 -170.5q0 -29 -6 -35q-7 -9 -25 -7.5t-24 11.5z" />
<glyph unicode="u" horiz-adv-x="550" d="M-55 473q-8 10 -8 27q0 40 45 118q26 43 40 53.5t29 -1.5q8 -6 5.5 -15t-21.5 -39q-32 -57 -37 -69q-6 -14 -8.5 -28.5t-1.5 -24t6 -9.5q16 0 151 109q56 45 75.5 53.5t27.5 -8.5q1 -1 1 -3q0 -13 -20 -63q-22 -57 -22 -71q0 -23 25 -23q32 0 105 37q68 35 161 98 q12 9 45 31q28 20 37 2l-2 -2q6 -11 -8 -25.5t-72 -52.5q-84 -58 -156 -91q-69 -32 -107 -32h-2q-41 1 -56.5 24.5t-12.5 55.5l4 41l-55 -45q-67 -54 -106 -64q-11 -3 -20 -3q-25 0 -42 20z" />
<glyph unicode="v" horiz-adv-x="507" d="M-23 473q-1 3 3 57q5 64 17.5 105.5t29.5 42.5q21 1 21 -20q0 -18 -11 -62q-8 -30 -12 -57.5t-3 -44.5t7 -17q9 0 56 46t85 93q53 66 68 66q36 0 10 -39q-16 -24 -16 -39q0 -29 58 -29h15q81 3 178 58l6 -2q47 27 65 27q11 0 11 -10v-5q-4 -11 -51 -37q-54 -33 -117 -51 q-58 -18 -103 -18q-49 0 -81 22l-20 14l-50 -51q-82 -82 -118 -86q-18 -1 -31 11t-17 26z" />
<glyph unicode="w" horiz-adv-x="647" d="M-44 473q-2 8 1 33q7 64 51 145q10 20 17 26.5t18 6.5q20 0 20.5 -12.5t-18.5 -46.5q-18 -31 -36 -83t-13 -57q1 -1 3 -1q13 0 71 67q54 60 71 71.5t35 -1.5q11 -8 8 -58q-1 -11 -1 -22q1 -23 5 -43q6 -29 17 -29q9 0 47 31t53 51q23 33 23 57q0 30 13.5 51.5t33.5 22.5 q2 0 4 1q28 0 28 -28q0 -15 -8 -37q-11 -33 -8 -36q4 -4 45 -4q88 0 172 55q43 27 61 27q12 0 15 -11l12 -2q3 -9 -49 -41q-34 -22 -88 -41q-38 -14 -81 -19q-20 -2 -35 -2q-19 0 -33 3q-28 6 -36 4.5t-18 -14.5q-15 -20 -50 -50.5t-52 -37.5q-25 -11 -48.5 -9t-35.5 15 q-22 22 -27 80l-2 26l-41 -45q-66 -72 -102 -72q-12 0 -29 13q-11 8 -13 16z" />
<glyph unicode="x" horiz-adv-x="479" d="M-96 446q-3 6 27 38.5t57 52.5q22 15 24 26t-10 39q-16 36 -16 62q-1 19 1 23.5t13 6.5t16.5 -5t14.5 -34q3 -9 7 -20.5t6 -18t3 -8.5q3 -10 20 1q12 8 48 38q56 45 71 45h2q33 -4 2 -37q-16 -17 -51 -45l-63 -53q-5 -3 0 -8l14 -14q40 -46 96 -46q32 0 64.5 10t65 30.5 t46 30t39.5 30.5q63 49 84 63t27 9q15 -10 -10 -35q-12 -10 -37 -31q-131 -114 -240 -137q-16 -3 -31 -3q-58 0 -120 46l-27 22q-9 7 -14 2l-15 -14q-77 -75 -102 -75q-4 0 -7 2z" />
<glyph unicode="y" horiz-adv-x="518" d="M-198 116q-3 9 -3 18q0 22 15 48q22 37 116 112t217 152q72 46 74 48q3 3 16 56.5t13 65.5q0 17 -6 17q-7 0 -82 -68q-85 -77 -111 -95t-55 -21q-21 -1 -29 1t-16 11q-12 13 -12 39q0 16 5 37q12 54 46 104q24 37 41 37q8 0 14 -6q8 -6 5.5 -13.5t-19.5 -35.5 q-37 -60 -45 -111q-5 -29 6 -29q18 0 155 129q38 38 70 52q23 9 30.5 9.5t20.5 -7.5q19 -10 23 -28t-4 -56q-7 -44 -4 -47q1 -1 2 -1q14 0 114 56q32 18 55 30t41 21t29 12.5t18.5 4t11 -2t5.5 -8.5h4q1 -3 -11 -12t-39.5 -25t-70.5 -39q-23 -13 -61 -33q-86 -47 -101.5 -58 t-23.5 -33q-1 -3 -2 -5q-13 -36 -50 -98t-65 -96q-47 -58 -112.5 -105t-116.5 -59q-25 -5 -45 -5q-10 0 -19 1q-35 8 -44 36zM-160 119q6 -12 35 -7.5t64 23.5q39 22 82 57.5t69 67.5l-4 2q25 32 63 93t35 67q-14 0 -136 -87t-161 -126q-49 -49 -49 -78q0 -7 2 -12z" />
<glyph unicode="z" horiz-adv-x="542" d="M-59.5 454.5q-2.5 4.5 2.5 11t16.5 14t34.5 20.5q38 21 108.5 68.5t87.5 64.5l15 14l-15 -4q-24 -6 -73 -12q-41 -6 -53.5 -6t-24.5 6q-15 7 -17.5 21.5t9.5 23.5q12 7 28 -4q12 -11 34.5 -9t137.5 25q17 3 29 3q31 0 31 -21q0 -11 -68 -64t-127 -88q-67 -42 -67 -45 q2 -3 19.5 -3t47.5 4.5t60 10.5q172 34 354 152q29 20 48.5 23t21.5 -11l-2 -4q2 -3 -8.5 -12t-28.5 -21q-16 -11 -29.5 -19t-41 -22.5t-44.5 -23.5q-116 -62 -205.5 -87.5t-189.5 -25.5q-70 0 -80 10q-8 6 -10.5 10.5z" />
<glyph unicode="{" horiz-adv-x="755" d="M51 805q-15 24 25 37q31 9 76 4q35 -5 97 27.5t91 70.5q38 49 66 170q29 126 68.5 188.5t105.5 90.5q60 24 106 2l4 -2q24 -13 21 -29q-3 -18 -21 -21q-16 -4 -16 5q0 7 -27.5 6.5t-46.5 -8.5q-20 -7 -47 -31.5t-41 -46.5q-36 -55 -61 -174q-15 -69 -30 -108t-40 -71 q-46 -61 -111 -88q-28 -11 -28 -14q0 -4 14 -18q31 -34 31 -88q0 -31 -17 -73t-63 -124q-65 -116 -77.5 -159.5t13.5 -69.5q12 -12 23.5 -15.5t44.5 -3.5t41 -2.5t10 -11.5q3 -22 -32 -29.5t-78 4.5q-56 14 -72 60q-14 40 6 100.5t84 169.5q63 108 63 162q0 20 -13 44 t-27 29q-20 5 -74 5q-39 0 -50.5 2t-17.5 10z" />
<glyph unicode="|" horiz-adv-x="153" d="M51 1370q1 19 10 23t18.5 -3.5t12.5 -17.5q3 -13 10 -555l4 2q5 -479 0 -525q-5 -27 -16 -28q-7 0 -18 15q-12 18 -17 227q-13 694 -4 862z" />
<glyph unicode="}" horiz-adv-x="761" d="M57 266q9 18 43 0q17 -9 46 -9t51 9q50 21 79 113q41 125 86 190q21 30 60.5 67t66.5 52l19 10l-19 25q-12 17 -15 31t-3 51q0 56 22.5 111.5t88.5 162.5q61 95 77 131q12 29 10.5 53.5t-16.5 34.5q-34 27 -80 27q-20 0 -28 11.5t4 21.5q19 15 64 4t73 -37 q38 -38 27.5 -88.5t-80.5 -167.5q-76 -125 -97.5 -174t-21.5 -102q0 -28 3 -39t15 -23t21.5 -15t34.5 -3l10 2q72 0 72 -33q0 -19 -25.5 -24t-60.5 6q-16 4 -25.5 1.5t-38.5 -18.5q-119 -64 -178 -239q-26 -75 -42 -104t-44 -52q-64 -55 -137 -37q-32 7 -50 22t-12 29z" />
<glyph unicode="~" horiz-adv-x="436" d="M43 561q-8 17 28.5 45.5t67.5 28.5q40 0 64 -33q18 -23 33 -27t38 7q29 12 54 41q29 29 43 26h-2q36 -3 -13 -55q-29 -31 -53.5 -43t-56.5 -12q-23 0 -33.5 4t-32.5 24q-35 31 -45 31t-37 -23q-42 -39 -55 -14z" />
<glyph unicode="&#xa1;" horiz-adv-x="686" d="M51 176q-8 8 12 43q19 37 27 37q17 0 165 229t232 385q47 83 60 86q14 0 18 -4q7 -6 -0.5 -26.5t-40.5 -81.5q-94 -172 -240.5 -400t-187.5 -266q-10 -10 -22 -10q-15 0 -23 8zM582 1053q0 17 10.5 35t19.5 18q7 0 19 -8v-2q8 -6 7.5 -12t-9.5 -25q-7 -17 -13.5 -23 t-17.5 -6q-10 0 -13 4t-3 19z" />
<glyph unicode="&#xa2;" horiz-adv-x="475" d="M51 381q-6 19 35 137q6 17 5.5 23.5t-9.5 13.5q-12 12 -23 41q-29 84 37 197t156 151l43 17l49 81q28 49 41.5 65.5t22.5 16.5q14 0 18 -8t-37 -82q-31 -55 -35.5 -66t4.5 -18q16 -8 21 -8h2q9 0 30 -31t21 -43t-7.5 -16t-17.5 1t-18 17q-12 18 -29.5 36t-23.5 18 q-8 0 -93 -174.5t-79 -178.5q4 -4 35 5.5t53 21.5q28 14 47 37q13 19 23 22t20 -8q8 -8 -8 -31q-20 -28 -67 -52t-97 -31q-22 -3 -28 -10t-21 -46q-24 -58 -27 -82q-3 -22 -6 -27t-14 -5q-18 0 -23 16zM104 606q5 -21 13 -9q5 7 14 30q25 49 74 151h-2q59 121 55 125 q-8 0 -37 -29q-68 -62 -100 -135t-17 -133z" />
<glyph unicode="&#xa3;" horiz-adv-x="772" d="M44 359.5q4 5.5 32 25.5q130 90 180 150q22 28 49 69t27 47q0 4 -19 0q-12 -2 -24 1t-18 8.5t-3 11.5q3 9 43 12q36 4 45 8q6 3 52 101q89 190 118 240t70 85q30 26 49.5 30.5t42.5 -7.5h-6q37 -19 37 -78t-29 -59q-12 0 -14 6t0 37q1 21 -6 45t-15 24q-9 0 -35 -29.5 t-47 -62.5q-33 -58 -86 -178q-14 -31 -30.5 -67t-25 -55t-9.5 -22q-3 -6 2.5 -10t24.5 -8q18 -4 31 -10.5t18 -13.5t0 -13q-7 -10 -33 -2q-28 8 -47 8q-15 0 -24.5 -8.5t-33.5 -46.5q-64 -102 -149 -170l-47 -37l41 4q47 6 134.5 5t129.5 -7q40 -6 67.5 -18.5t30.5 -26.5 q3 -12 -10.5 -18.5t-21.5 2.5q-15 20 -101.5 29t-181.5 1q-84 -7 -135 -18q-38 -6 -48.5 -5.5t-19.5 7.5q-9 8 -5 13.5z" />
<glyph unicode="&#xa4;" horiz-adv-x="538" d="M51 549q0 12 23 35q17 17 18.5 23.5t-6.5 17.5q-41 66 20 174l17 30l-29 21q-32 24 -21 34q12 12 50 -12l24 -16l27 25q36 35 101.5 46t117.5 -16l23 -12l24 19q17 14 31 14q12 0 18 -12l3 4q3 -9 -29 -35q-24 -17 -27.5 -23t0.5 -18q8 -19 4 -64q-2 -45 -26 -88l-25 -41 l27 -22q29 -24 21 -37q-8 -14 -39 6q-5 3 -11 8l-22 19l-39 -21q-31 -19 -64 -28q-28 -6 -63.5 -6t-48.5 6q-11 4 -17.5 1t-23.5 -20q-33 -30 -51 -23q-7 2 -7 11zM119 657q8 -32 53.5 -41t99.5 11q67 24 105 92v4q19 34 20 80t-16 69q-30 35 -96.5 20t-102.5 -56 q-40 -45 -55.5 -92.5t-7.5 -86.5z" />
<glyph unicode="&#xa5;" horiz-adv-x="657" d="M63 822.5q31 102.5 109 203.5q39 48 59 37q3 -1 4.5 -2.5t2 -4t0 -5.5t-2.5 -7.5t-5 -10.5t-8.5 -14t-11.5 -17.5t-15 -22.5q-80 -118 -97 -199q-8 -35 -3 -49.5t24 -11.5q51 7 140.5 80.5t238.5 228.5q33 34 49 49t28.5 23.5t18.5 6.5t12 -11l12 -2q7 -10 -8 -33 q-38 -57 -78 -113q-47 -65 -126 -190l-62 -103l29 -4q43 -4 42 -18q-1 -15 -48 -17q-30 -2 -41.5 -8t-20.5 -26q-2 -4 -6.5 -15t-5.5 -14q-4 -8 9 -9l20 -1q40 0 49 -14q3 -5 -2 -9q-2 -2 -50 -10l-45 -6l-34 -84q-21 -51 -31 -67.5t-19 -18.5q-14 -3 -20 12q-3 13 23 80 q26 69 26 70q0 4 -33 4t-43 10q-20 20 25 27l25 2q32 2 43 10t20 39l4 16l-47 -8q-40 -6 -56 -4t-16 14q0 9 15.5 14t81.5 15l43 8l22 43q17 36 68 115l45 71l-97 -77q-76 -63 -120.5 -87t-83.5 -24q-26 0 -43 10q-40 26 -9 128.5z" />
<glyph unicode="&#xa6;" horiz-adv-x="651" d="M51 326l242 426q7 14 22 6v2q6 -3 8 -10t-1 -13l-242 -426q-2 -4 -10 -8q-6 -3 -13 0q-14 7 -6 23zM330 817l241 426q7 14 23 6v2q14 -7 6 -22l-242 -426q-2 -4 -10 -8q-6 -3 -12 0q-14 7 -6 22z" />
<glyph unicode="&#xa7;" horiz-adv-x="684" d="M57 459q18 35 40 55t38 18q11 -1 15.5 -6.5t1.5 -14t-13 -17.5q-32 -27 -47 -66q-7 -17 5 -31.5t36 -19.5q17 -4 74 7.5t92 25.5q34 13 69.5 41t41.5 45q6 20 -6 35t-54 38q-89 49 -117 75t-28 58q0 19 13 46t32 47q14 14 16 20.5t-2 18.5q-7 19 1 47.5t28 54.5 q32 40 90 83t104 62q46 17 78 17v-2q72 0 72 -37q0 -12 -27 -58.5t-41 -58.5q-12 -11 -26 -13t-17 7q-4 8 29 57q35 56 28 64q-3 4 -18 4q-40 0 -113 -46.5t-116 -99.5q-31 -36 -31 -61q0 -17 5 -25.5t20 -19.5q23 -19 71 -37q51 -22 62.5 -34.5t7.5 -43.5q-3 -27 -18.5 -54 t-36.5 -42l-15 -12l25 -23q39 -36 31 -74q-10 -49 -96 -93.5t-189 -55.5q-57 -5 -100 29t-15 90zM252 698q0 -10 8 -26q9 -12 48.5 -36t51.5 -24q10 0 31 17q17 13 30 35.5t13 37.5q0 9 -8 15.5t-31 15.5q-25 10 -67 31l2 2q-24 12 -29 12q-4 0 -10 -6q-12 -14 -25.5 -39 t-13.5 -35z" />
<glyph unicode="&#xa8;" horiz-adv-x="194" d="M47 1071q0 14 14 14t19 -8.5t-4 -17.5q-14 -14 -25 -6q-4 4 -4 18zM115 1057q-4 10 1.5 19t16.5 7l-2 2q12 -3 12 -18q0 -12 -11.5 -16t-16.5 6z" />
<glyph unicode="&#xa9;" horiz-adv-x="903" d="M47 600q-3 62 8.5 105.5t46.5 103.5q65 110 168 180q148 105 303 105q64 0 125 -23q92 -39 133 -119q14 -28 17.5 -46.5t3.5 -63.5l4 4q0 -67 -18 -115q-46 -120 -154.5 -216.5t-237.5 -131.5q-43 -12 -105 -14.5t-99 6.5q-114 26 -170 121q-15 26 -19.5 43.5t-5.5 60.5z M99 590.5q4 -54.5 24 -86.5q36 -59 88 -80q70 -31 172 -16q121 19 234.5 107t164.5 204v-4q15 36 19 56t4 69q0 63 -9 91.5t-38 59.5q-63 66 -174 66q-85 0 -178 -41q-104 -46 -188 -136.5t-109 -183.5q-14 -51 -10 -105.5zM244 582q-22 85 52 200t177 158q43 18 80 18l-2 3 q55 2 81.5 -31.5t8.5 -89.5q-21 -71 -45 -68q-13 1 -13.5 14.5t11.5 57.5q15 58 -8 73.5t-86 -10.5q-64 -26 -120 -89.5t-81.5 -134.5t-5.5 -118q7 -17 29.5 -27.5t42.5 -5.5q48 10 100 58q25 25 39 22q29 -4 5 -36q-31 -39 -93 -64q-38 -15 -56.5 -16t-48.5 10 q-29 10 -44 27.5t-23 48.5z" />
<glyph unicode="&#xaa;" horiz-adv-x="317" d="M50.5 1007q-2.5 7 0.5 27q6 43 40.5 80t66.5 37h6q19 -4 31 -16l12 -13l16 13q26 19 43 2v2q11 -11 -20 -76q-30 -66 -37 -90q-21 -61 -49 -33q-9 9 2 39q11 32 8 33t-25 -13q-30 -20 -46 -22t-33 12q-13 11 -15.5 18zM96.5 1030q-2.5 -12 1.5 -14q8 0 39 28l-2 3 q32 29 29 47t-12 18q-11 0 -27 -22q-9 -11 -17.5 -29.5t-11 -30.5z" />
<glyph unicode="&#xab;" horiz-adv-x="653" d="M47.5 602.5q4.5 16.5 26.5 28.5q34 20 172.5 78t146.5 55q11 -3 9.5 -14.5t-13.5 -18.5q-7 -4 -147 -67q-142 -63 -146 -66q-9 -7 28 -28q25 -14 87 -44h2q94 -47 94 -63t-26 -7q-25 8 -105 48q-106 54 -119 67q-14 15 -9.5 31.5zM285 577q-27 26 9 49q23 15 101 46 q117 47 123 49q48 20 68 20h4q9 -3 12.5 -10.5t-0.5 -13.5q-3 -6 -141 -62h-2q-137 -56 -137 -59q0 -8 192 -102q47 -23 60 -33t8 -21q-5 -9 -22.5 -3t-90.5 40q-157 75 -184 100z" />
<glyph unicode="&#xac;" horiz-adv-x="266" d="M45 1006q-1 5 4 10q7 7 67.5 11.5t73.5 -1.5h7q2 0 6 -4q9 -6 6 -12l-2 -4q5 -15 7 -39t-1 -29q-9 -11 -18 17l-7 28v14q-20 -3 -51 -6q-87 -5 -92 15z" />
<glyph unicode="&#xad;" horiz-adv-x="0" />
<glyph unicode="&#xae;" horiz-adv-x="610" d="M49 784q-10 64 33 136q41 72 113.5 123.5t113.5 39.5q20 -4 51 2q30 5 33 5q44 0 94 -33h2q40 -25 57 -55t17 -76q0 -30 -4.5 -45.5t-19.5 -42.5q-50 -85 -156.5 -138t-194.5 -36q-52 10 -91.5 44.5t-47.5 75.5zM98 825q-3 -39 3.5 -58t29.5 -38q32 -26 70 -30.5t96 10.5 q42 10 87 36.5t75 57.5l-2 -2q60 66 60 131.5t-60 99.5q-37 21 -64 21q-9 0 -33 -4q-31 -5 -45 0q-27 12 -78 -24.5t-93 -95.5t-46 -104zM143 791q6 15 45 81q45 74 65 100t32 25q6 0 16 -10q7 -7 13 -8t18 4q41 20 71 0l-2 -2q16 -14 11 -34.5t-31.5 -41.5t-61.5 -31 q-34 -11 -34 -14q0 -5 41 -41q47 -42 37 -52q-2 -3 -9 -5q-13 -3 -69 45l-56 47l-24 -43q-38 -63 -58 -45q-10 10 -4 25zM285 901q12 1 37 12l-5 -2q13 6 24 14.5t16 16t1 10.5q-8 0 -33.5 -14.5t-37.5 -26.5q-13 -11 -2 -10z" />
<glyph unicode="&#xaf;" horiz-adv-x="243" d="M45 1006q-1 5 4 10q7 7 67.5 11.5t73.5 -1.5h7l-9 -29q-20 -3 -51 -6q-87 -5 -92 15z" />
<glyph unicode="&#xb0;" horiz-adv-x="350" d="M50 1078q10 40 50 71q41 33 101 33l-2 -2q60 0 88 -43.5t0 -94.5q-24 -45 -72 -65q-49 -20 -86 -12q-46 9 -67.5 41t-11.5 72zM92 1065q-9 -46 28.5 -62t84.5 13l2 -2q47 27 47 80q0 25 -15 38t-38 13q-35 2 -68.5 -21t-40.5 -59z" />
<glyph unicode="&#xb1;" horiz-adv-x="649" d="M51 455q-3 13 10 16q4 2 50 2q92 0 235.5 -5t147.5 -9h4q7 -7 4 -17q-3 -6 -29 -7.5t-113 -0.5q-129 0 -223 4q-59 3 -72 5.5t-14 11.5zM150 698q8 8 110 11l105 2l41 63q42 63 57 66h6q30 0 1 -51q-5 -9 -13 -21q-29 -47 -37 -55q-1 -1 9.5 -2t30 -1.5t42.5 -0.5l2 2 q35 0 55.5 -1t32 -4t15 -7t1.5 -11q-2 -8 -19 -10.5t-89 -3.5l-109 -2l-45 -78q-45 -78 -53 -78q-9 0 -17 8q-11 9 -5.5 25t34.5 63l37 62h-90q-89 0 -100 8q-10 8 -2 16z" />
<glyph unicode="&#xb2;" horiz-adv-x="292" d="M43 930q-4 7 5.5 19.5t49.5 49.5q29 26 53.5 53t36.5 45.5t7 22.5q-6 5 -24.5 -4t-33.5 -24q-20 -20 -33 -13q-10 7 -14 15q-3 9 28 33t54 30q19 5 27.5 4t21.5 -8q32 -20 20.5 -54t-69.5 -91l-37 -37h39l-8 -4q21 0 36.5 -3.5t22.5 -9t4 -12.5q-5 -7 -73 -10 q-63 -3 -86 -8q-19 -5 -27 6z" />
<glyph unicode="&#xb3;" horiz-adv-x="301" d="M46 959q2 6 9 6h35q22 0 63 15.5t50 27.5q15 21 -47 30q-54 7 -57.5 23t42.5 45q12 8 22 15t15 12t4 6q-4 3 -26.5 -5.5t-34.5 -17.5q-13 -11 -27.5 -9.5t-15.5 13.5q-3 13 20 27q37 22 77.5 26.5t57.5 -10.5q9 -8 10 -13t-5 -17q-7 -18 -41 -37l-33 -19l33 -12l-4 -2 q84 -35 38 -84q-23 -25 -87 -41t-87 -4q-7 4 -10 11.5t-1 13.5z" />
<glyph unicode="&#xb4;" horiz-adv-x="198" d="M47 1018q0 9 36 45t48 39h-4q27 7 21 -10q-7 -14 -33 -41q-52 -52 -65 -40q-3 2 -3 7z" />
<glyph unicode="&#xb7;" horiz-adv-x="215" d="M49.5 575q3.5 26 26.5 37v-2q41 19 74.5 -8t11.5 -61q-12 -19 -44 -21.5t-52 12.5q-20 17 -16.5 43z" />
<glyph unicode="&#xb8;" horiz-adv-x="210" d="M47 1032q-4 8 14 41t33 33q28 0 4 -37q-6 -10 -6 -13t3 -5t16 -4q19 -3 35 -17.5t16 -28.5t-13 -31t-30 -24q-20 -9 -31.5 -9t-26.5 9q-20 10 -8 19q8 7 27 4t32.5 8.5t10.5 26.5q-2 9 -8 12t-29 4q-36 3 -39 12z" />
<glyph unicode="&#xb9;" horiz-adv-x="212" d="M47 905q-17 17 31 127l18 43l-14 6q-10 3 -14 6.5t-2 9.5t9.5 14t22.5 22q23 21 33.5 26t18.5 0q12 -6 16 -18l-4 -2q4 -11 -33 -105q-33 -85 -43 -114q-6 -17 -17.5 -21.5t-21.5 6.5z" />
<glyph unicode="&#xba;" horiz-adv-x="286" d="M48 1003q1 40 38 87q33 45 78 45h12v-2q52 -6 60 -55.5t-35 -96.5q-17 -20 -41 -33.5t-41 -13.5q-13 0 -37 12q-35 17 -34 57zM92 997q0 -24 11 -27.5t36 11.5l2 -2q19 12 33 37t14 47q0 21 -18 29q-12 4 -14 4q-8 0 -23 -15q-41 -44 -41 -84z" />
<glyph unicode="&#xbb;" horiz-adv-x="733" d="M53 449q-14 11 14 27q29 16 138 59q157 64 160 67q3 7 -136 68q-45 19 -59 28q-15 9 -19 21t7 16q15 -2 127.5 -53t132.5 -66h2q26 -18 4 -34q-13 -10 -176.5 -74t-175.5 -64q-14 0 -19 5zM319 457q0 9 15 17t72 30q70 27 157 67l72 35l-25 15q-34 21 -174 88 q-79 40 -49 55q19 1 116.5 -45t149.5 -80v-4q34 -23 31.5 -38t-45.5 -38q-45 -24 -158 -69t-137 -48q-17 -1 -21 1.5t-4 13.5z" />
<glyph unicode="&#xbc;" horiz-adv-x="1069" d="M55 240q-8 7 8 28q26 32 295 303q255 258 439 426q194 174 211 174q8 0 16 -8l2 -4q7 -7 -8 -23.5t-82 -74.5q-225 -193 -733 -707q-85 -85 -110.5 -104t-37.5 -10zM455 889v8q0 16 104 203l19 35q-5 -5 -11 -9q-10 -10 -14 -8q-4 4 -4 6q-1 1 22 22.5t29 24.5t11 0.5 t5 -8.5q0 -9 -45 -86q-76 -137 -92 -174q-11 -25 -22 -18q-2 0 -2 4zM539 557.5q3 8.5 24 34.5q35 45 55 70q29 36 33 36q3 2 7 -1t4 -7q0 -9 -64 -82q-43 -49 -43 -53h53h54l22 41q50 92 59 92l7 -4q11 0 -1 -25l-24 -43q-33 -57 -33 -59t10 -2q11 0 19 -4q7 -5 2 -10 q-4 -4 -21 -4h-18l-27 -54q-6 -12 -13.5 -27.5t-12 -26t-6.5 -13.5q-8 -16 -11 -19t-7 -3.5t-5 1.5q-9 6 37 103q18 36 18 39q0 2 -51 2q-53 0 -59 4q-11 6 -8 14.5z" />
<glyph unicode="&#xbd;" horiz-adv-x="1069" d="M49 252q-8 7 9 29q27 35 294 303q255 258 439 426q194 174 210 174q9 0 17 -8l2 -5q7 -7 -8 -23.5t-82 -74.5q-231 -198 -733 -706q-86 -86 -111 -105t-37 -10zM475 889v8q0 14 105 203l18 35q-4 -5 -10 -9q-10 -10 -15 -8q-4 4 -4 6q-1 1 22.5 22.5t29.5 24.5t11 0.5 t5 -8.5q0 -9 -45 -86q-76 -137 -92 -174q-4 -10 -11 -15.5t-12 -2.5q-2 0 -2 4zM479 424q15 10 35 10q6 0 32.5 15t49.5 32q75 52 117 123q24 41 24 62q0 12 -8 20q-6 6 -18 4q-43 -6 -84 -39q-15 -12 -21 -12q-15 6 14 28q20 15 46 25q57 21 79 2l-2 6q30 -24 -2 -84 q-22 -42 -63 -85.5t-90 -75.5l-23 -17q7 -2 13 -4q9 -1 28 -9t25 -13q5 -3 5 -9.5t-5 -7.5q-3 0 -19 8q-56 31 -90 17q-30 -14 -41 -10q-13 7 -2 14z" />
<glyph unicode="&#xbe;" horiz-adv-x="1069" d="M53 225q-8 7 9 29q27 35 294 303q255 258 439 426q194 174 211 174q8 0 16 -8l2 -4q7 -7 -8 -23.5t-82 -74.5q-225 -193 -733 -707q-86 -86 -111 -105t-37 -10zM354 887q0 11 17 4q23 -10 69 4q54 17 85 49.5t22 61.5q-10 33 -64 38q-18 1 -22 2.5t-4 6.5q0 7 28 20 q37 19 62.5 40t23.5 32q0 8 -10 8q-15 1 -40.5 -9t-43.5 -24q-19 -15 -23 -6q-3 7 13 19q39 31 90 34q22 1 31.5 -9.5t1.5 -27.5q-5 -11 -28 -30t-44 -29l-18 -12q6 -2 12 -2q19 -3 34.5 -19.5t20.5 -36.5q6 -26 -14 -53q-31 -43 -96 -63q-45 -13 -68 -11l-2 -6 q-33 6 -33 19zM537 542.5q3 9.5 24 35.5q7 9 55 69q30 37 33 37q3 2 6.5 -1t3.5 -7q0 -10 -63 -82q-43 -49 -43 -53h53h53l23 41q50 92 59 92l7 -4q11 0 -1 -25l-24 -43q-33 -57 -33 -59t10 -2q11 0 19 -4q8 -5 2 -11q-4 -4 -21 -4h-18l-27 -53q-8 -16 -19 -40.5t-13 -27.5 q-7 -14 -11 -18q-3 -3 -7 -3.5t-5 1.5q-8 6 37 102q18 36 18 39q0 2 -51 2q-53 0 -59 4q-11 5 -8 14.5z" />
<glyph unicode="&#xbf;" horiz-adv-x="770" d="M55 283q0 58 51.5 126.5t190.5 198.5q83 76 189 194t104 130q-3 17 4.5 20t26.5 -6q12 -8 12 -20q0 -21 -102 -135.5t-242 -251.5q-107 -104 -149 -163.5t-42 -105.5q0 -56 70 -65q88 -10 228 42.5t212 123.5q47 46 66 82t4 53q-9 10 -6 17t16 7l2 9q37 0 37 -47 q0 -69 -92 -148.5t-227 -126.5q-128 -46 -209 -43q-46 0 -86 19q-32 15 -45 35.5t-13 54.5zM621 1040q6 21 19.5 27t25.5 -6q11 -11 0.5 -31t-27.5 -20h2q-29 0 -20 30z" />
<glyph unicode="&#xc0;" horiz-adv-x="1300" d="M-37 520q0 35 285 74l98 12l29 37q189 244 370.5 437t301.5 278q88 61 137 61q63 0 63 -104q0 -53 -16 -130.5t-68 -273.5q-63 -232 -63 -239q0 -4 63 -4h8q29 0 48 -1.5t31 -4.5t17 -7.5t3 -11.5q-1 -9 -13.5 -10.5t-74.5 -1.5h-84l-25 -90q-45 -170 -73 -312.5 t-23 -179.5q4 -30 0 -37q-5 -9 -23 -8t-24 10q-12 18 -3 91t44 235q32 161 65 272l4 15l-61 -4q-197 -12 -442 -35q-146 -15 -148 -15q-9 0 -133 -189t-143 -232q-7 -20 -13.5 -26.5t-17.5 -6.5t-15.5 4t-5.5 14q-2 15 56.5 114.5t138.5 217.5q60 85 55 90 q-4 4 -103.5 -11.5t-154.5 -29.5t-72.5 -13.5t-17.5 15.5zM420 616q0 -2 9 -2l108 11q232 26 487 39l29 2l14 53l-2 2q1 2 21 78t34 125q43 153 60 223q25 100 29 162t-15 69h-6q-37 3 -168 -104q-190 -156 -424 -434q-39 -46 -107.5 -133.5t-68.5 -90.5zM1135 1588 q4 3 16 3t54 -42t42 -54v-2q0 -24 -40 4q-18 13 -38 33q-48 50 -34 58z" />
<glyph unicode="&#xc1;" horiz-adv-x="1300" d="M-41 522q0 35 285 74l98 12l29 37q189 245 370 437.5t301 277.5q88 61 138 61q63 0 63 -104q0 -53 -16 -130.5t-68 -273.5q-63 -232 -63 -239q0 -4 63 -4h8q29 0 48 -1.5t31 -4.5t17 -7.5t3 -11.5q-1 -9 -13.5 -10.5t-74.5 -1.5h-84l-25 -90q-45 -170 -73 -312.5 t-23 -179.5q4 -30 0 -37q-5 -9 -23 -8t-24 10q-12 18 -3 91t44 235q32 161 65 272l4 15l-61 -4q-200 -12 -443 -35q-146 -15 -147 -15q-9 0 -133 -189t-143 -232q-7 -20 -13.5 -26.5t-17.5 -6.5t-15.5 4t-5.5 14q-2 15 56.5 114.5t138.5 217.5q60 85 55 90 q-4 4 -103.5 -11.5t-154.5 -29.5t-72.5 -13.5t-17.5 15.5zM416 618q0 -2 5 -2q2 0 111 11q231 26 488 39l29 2l14 53l-2 2q1 2 21 78t34 125q43 153 60 223q25 100 29 162t-15 69h-6q-37 3 -168 -104q-190 -156 -424 -434q-39 -46 -107.5 -133.5t-68.5 -90.5zM1114 1503 q3 11 54.5 42.5t66.5 31.5q59 3 -26 -51q-1 -1 -3 -2h-4q-76 -47 -87 -30q-3 3 -1 9z" />
<glyph unicode="&#xc2;" horiz-adv-x="1339" d="M-41 520q0 35 285 74l98 12l29 37q189 245 370 437.5t301 277.5q88 61 138 61q63 0 63 -104q0 -53 -16 -130.5t-68 -273.5q-63 -232 -63 -239q0 -4 63 -4h8q29 0 48 -1.5t31 -4.5t17 -7.5t3 -11.5q-1 -9 -13.5 -10.5t-74.5 -1.5h-84l-25 -90q-45 -170 -73 -312.5 t-23 -179.5q4 -30 0 -37q-5 -9 -23 -8t-24 10q-12 18 -3 91t44 235q32 161 65 272l4 15l-61 -4q-200 -12 -443 -35q-146 -15 -147 -15q-9 0 -133 -189t-143 -232q-7 -20 -13.5 -26.5t-17.5 -6.5t-15.5 4t-5.5 14q-2 15 56.5 114.5t138.5 217.5q60 85 55 90 q-4 4 -103.5 -11.5t-154.5 -29.5t-72.5 -13.5t-17.5 15.5zM416 616q0 -2 5 -2q2 0 111 11q231 26 488 39l29 2l14 53l-2 2q1 2 21 78t34 125q43 153 60 223q25 100 29 162t-15 69h-6q-37 3 -168 -104q-190 -156 -424 -434q-39 -46 -107.5 -133.5t-68.5 -90.5zM1100 1505 q-3 7 41.5 45.5t64.5 46.5q17 6 29 -6l-4 -2q14 -12 41 -70.5t24 -68.5q-6 -21 -26 -3q-13 12 -23 34q-10 25 -26 57l-13 21l-39 -35q-56 -50 -69 -19z" />
<glyph unicode="&#xc3;" horiz-adv-x="1327" d="M-37 520q0 35 285 74l98 12l29 37q189 244 370.5 437t301.5 278q88 61 137 61q63 0 63 -104q0 -53 -16 -130.5t-68 -273.5q-63 -232 -63 -239q0 -4 63 -4h8q29 0 48 -1.5t31 -4.5t17 -7.5t3 -11.5q-1 -9 -13.5 -10.5t-74.5 -1.5h-84l-25 -90q-45 -170 -73 -312.5 t-23 -179.5q4 -30 0 -37q-5 -9 -23 -8t-24 10q-12 18 -3 91t44 235q32 161 65 272l4 15l-61 -4q-197 -12 -442 -35q-146 -15 -148 -15q-9 0 -133 -189t-143 -232q-7 -20 -13.5 -26.5t-17.5 -6.5t-15.5 4t-5.5 14q-2 15 56.5 114.5t138.5 217.5q60 85 55 90 q-4 4 -103.5 -11.5t-154.5 -29.5t-72.5 -13.5t-17.5 15.5zM420 616q0 -2 9 -2l108 11q232 26 487 39l29 2l14 53l-2 2q1 2 21 78t34 125q43 153 60 223q25 100 29 162t-15 69h-6q-37 3 -168 -104q-190 -156 -424 -434q-39 -46 -107.5 -133.5t-68.5 -90.5zM1081 1505 q0 17 20.5 35.5t39.5 18.5q18 0 47 -25t37 -25q7 0 22 27q13 26 27 23v-3q15 -3 15 -19t-15 -36q-19 -25 -47.5 -25t-57.5 25l-28 23l-19 -19q-12 -12 -21.5 -16.5t-14.5 0t-5 16.5z" />
<glyph unicode="&#xc4;" horiz-adv-x="1320" d="M-39 522q0 35 285 74l98 12l29 37q189 245 370 437.5t301 277.5q88 61 138 61q63 0 63 -104q0 -53 -16 -130.5t-68 -273.5q-63 -232 -63 -239q0 -4 63 -4h8q29 0 48 -1.5t31 -4.5t17 -7.5t3 -11.5q-1 -9 -13.5 -10.5t-74.5 -1.5h-84l-25 -90q-45 -170 -73 -312.5 t-23 -179.5q4 -30 0 -37q-5 -9 -23 -8t-24 10q-12 18 -3 91t44 235q32 161 65 272l4 15l-61 -4q-197 -12 -442 -35q-146 -15 -148 -15q-9 0 -133 -189t-143 -232q-7 -20 -13.5 -26.5t-17.5 -6.5t-15.5 4t-5.5 14q-2 15 56.5 114.5t138.5 217.5q60 85 55 90 q-4 4 -103.5 -11.5t-154.5 -29.5t-72.5 -13.5t-17.5 15.5zM418 618q0 -2 9 -2l108 11q232 26 487 39l29 2l14 53l-2 2q1 2 21 78t34 125q43 153 60 223q25 100 29 162t-15 69h-6q-37 3 -168 -104q-190 -156 -424 -434q-39 -46 -107.5 -133.5t-68.5 -90.5zM1118 1524 q0 22 25 22q23 0 31 -15t-7 -30q-23 -23 -41 -8q-8 8 -8 31zM1231 1499q-8 19 2 33.5t29 11.5h-2q22 -3 22 -28q0 -22 -21 -29t-30 12z" />
<glyph unicode="&#xc5;" horiz-adv-x="1300" d="M-37 522q0 35 285 74l98 12l29 37q189 244 370.5 437t301.5 278q88 61 137 61q63 0 63 -104q0 -53 -16 -130.5t-68 -273.5q-63 -232 -63 -239q0 -4 63 -4h8q29 0 48 -1.5t31 -4.5t17 -7.5t3 -11.5q-1 -9 -13.5 -10.5t-74.5 -1.5h-84l-25 -90q-45 -170 -73 -312.5 t-23 -179.5q4 -30 0 -37q-5 -9 -23 -8t-24 10q-12 18 -3 91t44 235q32 161 65 272l4 15l-61 -4q-197 -12 -442 -35q-146 -15 -148 -15q-9 0 -133 -189t-143 -232q-7 -20 -13.5 -26.5t-17.5 -6.5t-15.5 4t-5.5 14q-2 15 56.5 114.5t138.5 217.5q60 85 55 90 q-4 4 -103.5 -11.5t-154.5 -29.5t-72.5 -13.5t-17.5 15.5zM420 618q0 -2 9 -2l108 11q232 26 487 39l29 2l14 53l-2 2q1 2 21 78t34 125q43 153 60 223q25 100 29 162t-15 69h-6q-37 3 -168 -104q-190 -156 -424 -434q-39 -46 -107.5 -133.5t-68.5 -90.5z" />
<glyph unicode="&#xc6;" horiz-adv-x="2009" d="M-37 520q0 35 285 74l98 12l29 37q189 244 370.5 437t301.5 278q88 61 137 61q63 0 63 -104q0 -48 -13.5 -117.5t-55.5 -228.5q75 91 211 184q106 74 264 149.5t270 106.5q63 16 139 16q54 0 68.5 -2t32.5 -14l12 -4q29 -19 40 -39t11 -57q-2 -63 -62 -160.5t-143 -169.5 q-51 -44 -68.5 -54t-29.5 -1q-4 3 -4.5 6t4 9.5t13.5 15t28 24.5q87 75 150 173.5t63 160.5q0 23 -14.5 43t-34.5 26q-43 14 -137.5 -7t-210.5 -70q-189 -78 -353.5 -191.5t-218.5 -202.5q-29 -47 -25 -77.5t44 -61.5q74 -58 276 -74q102 -7 102 -25q0 -2 -1 -5 q-5 -10 -25 -13q-17 -3 -96 -26q-104 -34 -197 -95.5t-153 -136.5q-39 -48 -52.5 -79t-13.5 -72q0 -50 24 -83.5t76 -58.5q22 -11 39 -13.5t62 -2.5q60 0 100 9.5t96 35.5q69 34 142 88.5t98 91.5q8 11 8 16t-8 11q-10 9 -5.5 18t19.5 9q17 0 28 -10t11 -25q0 -29 -67 -92.5 t-142 -106.5q-104 -60 -206 -78t-181 8q-44 15 -81 46.5t-54 68.5q-10 23 -13 39t-1 47t7.5 49t24.5 49q50 85 145 160t212 121q54 22 54 26q-2 2 -9 3q-69 4 -140 26.5t-112 51.5q-32 22 -51 59q-8 -34 -17.5 -69t-13.5 -51t-4 -17q0 -4 63 -4q29 0 48 -1.5t31 -4.5 t17 -7.5t3 -11.5q-1 -9 -13.5 -10.5t-74.5 -1.5h-84l-25 -90q-45 -170 -73 -312.5t-23 -179.5q4 -30 0 -37q-5 -9 -23 -8t-24 10q-12 18 -3 91t44 235q32 161 65 272l4 15l-61 -4q-197 -12 -442 -35q-146 -15 -148 -15q-9 0 -133 -189t-143 -232q-7 -20 -13.5 -26.5 t-17.5 -6.5t-15.5 4t-5.5 14q-2 15 56.5 114.5t138.5 217.5q60 85 55 90q-4 4 -103.5 -11.5t-154.5 -29.5t-72.5 -13.5t-17.5 15.5zM422 614q0 -2 9 -2l108 11q232 26 487 39l29 2l14 53q1 2 21 78t34 125q43 153 60 223l-2 2q25 100 29 162t-15 69h-6q-37 3 -168 -104 q-190 -156 -424 -434q-39 -46 -107.5 -133.5t-68.5 -90.5z" />
<glyph unicode="&#xc7;" horiz-adv-x="1345" d="M51 362q0 60 3.5 88t15.5 68q58 190 176 369q128 194 316.5 339t363.5 183q74 15 129.5 -6t70.5 -70q15 -47 -25 -146.5t-112 -189.5q-85 -108 -112 -108q-37 0 0 39l4 4q82 82 140 188t58 174q0 34 -2.5 42t-19.5 20q-23 16 -64 16q-80 0 -189.5 -50.5t-221.5 -139.5 q-141 -112 -242 -245.5t-176 -305.5q-93 -214 -60 -363q27 -123 127 -157q101 -32 254 8q145 42 316 149q176 109 334 240q38 32 61 49.5t38.5 26.5t22.5 8.5t11 -8.5l-2 -9q3 -5 -22 -28t-83 -70q-218 -180 -375.5 -272.5t-302.5 -126.5q-98 -23 -149 -23q-2 -4 -10 -12 q-9 -10 -10.5 -13.5t2 -6.5t16.5 -7q22 -7 38 -27.5t13 -35.5q-3 -17 -22.5 -33.5t-41.5 -21.5q-26 -6 -39 -4t-30 16q-19 15 -4 23q11 6 33 -1t40.5 2.5t18.5 28.5q0 11 -7.5 16t-33.5 11q-39 9 -43 20q-3 9 27 47l6 6q-33 3 -68 15q-110 36 -156 155q-12 35 -12 129z" />
<glyph unicode="&#xc8;" horiz-adv-x="1050" d="M43 264q1 30 7.5 48.5t25.5 49.5q50 85 145 160t211 121q54 22 54 26q-2 2 -9 3q-69 4 -140 26.5t-112 51.5q-25 19 -44 49t-19 51q0 54 71.5 134.5t196.5 166.5q106 74 264.5 149.5t270.5 106.5q63 16 139 16q54 0 68 -2t32 -14l2 -2q29 -19 40 -39t11 -57 q-2 -64 -61.5 -161.5t-142.5 -168.5q-51 -44 -69 -54t-30 -1q-4 3 -4.5 6t4 9.5t13.5 15t28 24.5q87 75 150 173.5t63 160.5q0 23 -14.5 43t-34.5 26q-43 14 -137.5 -7t-210.5 -70q-189 -78 -353 -191.5t-218 -202.5q-29 -47 -25.5 -77.5t43.5 -61.5t103.5 -48t173.5 -26 q101 -7 101 -25l-1 -5q-5 -10 -25 -13q-17 -3 -96 -26q-104 -34 -197 -95.5t-153 -136.5q-39 -48 -52.5 -79t-13.5 -72q0 -49 24 -83t77 -59q22 -11 38.5 -13.5t61.5 -2.5q60 0 100.5 9.5t96.5 35.5q69 34 141.5 88.5t97.5 91.5q7 10 7 15.5t-7 11.5q-10 9 -5 18t20 9 q17 0 27.5 -10t10.5 -25q0 -29 -66.5 -92.5t-141.5 -106.5q-104 -60 -206 -78t-181 8q-44 15 -81.5 46.5t-54.5 68.5q-10 23 -13 39t-1 47zM1080 1617q4 3 16 3t54 -42t42 -54v-2q0 -24 -40 4q-18 13 -38 33q-48 50 -34 58z" />
<glyph unicode="&#xc9;" horiz-adv-x="1050" d="M41 266q2 49 33 99q50 85 144.5 159.5t211.5 120.5q54 22 54 26q-2 2 -9 3q-69 4 -140 26.5t-112 51.5q-25 19 -44 49t-19 51q0 54 71.5 134.5t196.5 166.5q106 74 264.5 149.5t270.5 106.5q63 16 139 16q54 0 68 -2t32 -14l4 -2q29 -19 40 -39t11 -57 q-2 -64 -61.5 -161.5t-142.5 -168.5q-51 -44 -69 -54t-30 -1q-4 3 -4.5 6t4 9.5t13.5 15t28 24.5q87 75 150 173.5t63 160.5q0 23 -14.5 43t-34.5 26q-43 14 -137.5 -7t-210.5 -70q-189 -78 -353 -191.5t-218 -202.5q-29 -47 -25.5 -77.5t43.5 -61.5t103.5 -48t173.5 -26 q101 -7 101 -25l-1 -5q-5 -10 -25 -13q-17 -3 -96 -26q-104 -34 -197 -95.5t-153 -136.5q-39 -48 -52.5 -79t-13.5 -72q0 -94 99 -142q22 -11 38.5 -13.5t61.5 -2.5q60 0 100.5 9.5t96.5 35.5q69 34 141.5 88.5t97.5 91.5q7 11 7 16t-7 11q-10 9 -5 18t20 9q17 0 27.5 -10 t10.5 -25q0 -29 -66.5 -92.5t-141.5 -106.5q-104 -60 -206.5 -78t-181.5 9q-44 15 -81 46t-54 68q-10 23 -13 39t-1 47zM1057 1507q2 11 49.5 48t62.5 38q35 5 20 -16q-11 -15 -44 -41h-2q-70 -54 -84 -39q-3 3 -2 10z" />
<glyph unicode="&#xca;" horiz-adv-x="1050" d="M43 262q1 30 7.5 48.5t25.5 49.5q50 85 145 160t211 121q54 22 54 26q-2 2 -9 3q-69 4 -140 26.5t-112 51.5q-25 19 -44 49t-19 51q0 54 71.5 134.5t196.5 166.5q106 74 264.5 149.5t270.5 106.5q63 16 139 16q54 0 68 -2t32 -14l4 -2q30 -19 41 -39.5t11 -56.5 q-2 -63 -62 -160.5t-143 -169.5q-51 -44 -69 -54t-30 -1q-4 3 -4.5 6t4 9.5t13.5 15t28 24.5q87 75 150 173.5t63 160.5q0 23 -14.5 43t-34.5 26q-43 14 -137.5 -7t-210.5 -70q-189 -78 -353 -191.5t-218 -202.5q-29 -47 -25.5 -77.5t43.5 -61.5t103.5 -48t173.5 -26 q101 -7 101 -25l-1 -5q-5 -10 -25 -13q-17 -3 -96 -26q-104 -34 -197 -95.5t-153 -136.5q-39 -48 -52.5 -79t-13.5 -72q0 -94 99 -142q22 -11 38.5 -13.5t61.5 -2.5q60 0 100.5 9.5t96.5 35.5q69 34 141.5 88.5t97.5 91.5q7 10 7 15.5t-7 11.5q-10 9 -5 18t20 9 q17 0 27.5 -10t10.5 -25q0 -29 -66.5 -92.5t-141.5 -106.5q-104 -60 -206 -78t-181 8q-44 15 -81.5 46.5t-54.5 68.5q-10 23 -13 39t-1 47zM1024 1507q-3 6 38.5 49t59.5 52q17 8 31 0q13 -10 45 -66t31 -67q-4 -20 -24 -6q-16 10 -27 32q-21 38 -33 53l-15 21l-36 -39v-4 q-54 -57 -70 -25z" />
<glyph unicode="&#xcb;" horiz-adv-x="1050" d="M43 264q1 30 7.5 48.5t25.5 49.5q50 85 145 160t211 121q54 22 54 26q-2 2 -9 3q-69 4 -140 26.5t-112 51.5q-25 19 -44 49t-19 51q0 54 71.5 134.5t196.5 166.5q106 74 264.5 149.5t270.5 106.5q63 16 139 16q54 0 68 -2t32 -14l2 -2q29 -19 40 -39t11 -57 q-2 -64 -61.5 -161.5t-142.5 -168.5q-51 -44 -69 -54t-30 -1q-4 3 -4.5 6t4 9.5t13.5 15t28 24.5q87 75 150 173.5t63 160.5q0 23 -14.5 43t-34.5 26q-43 14 -137.5 -7t-210.5 -70q-189 -78 -353 -191.5t-218 -202.5q-29 -47 -25.5 -77.5t43.5 -61.5t103.5 -48t173.5 -26 q101 -7 101 -25l-1 -5q-5 -10 -25 -13q-17 -3 -96 -26q-104 -34 -197 -95.5t-153 -136.5q-39 -48 -52.5 -79t-13.5 -72q0 -49 24 -83t77 -59q22 -11 38.5 -13.5t61.5 -2.5q60 0 100.5 9.5t96.5 35.5q69 34 141.5 88.5t97.5 91.5q7 10 7 15.5t-7 11.5q-10 9 -5 18t20 9 q17 0 27.5 -10t10.5 -25q0 -29 -66.5 -92.5t-141.5 -106.5q-104 -60 -206 -78t-181 8q-44 15 -81.5 46.5t-54.5 68.5q-10 23 -13 39t-1 47zM1087 1516q3 17 21 14q17 -1 21.5 -12.5t-7.5 -20.5h-2q-16 -14 -28 -2q-5 5 -5 21zM1169 1489q-4 13 3.5 23.5t19.5 7.5 q16 -3 12 -21l2 -2q-1 -15 -17 -18.5t-20 10.5z" />
<glyph unicode="&#xcc;" horiz-adv-x="1067" d="M47 72q-1 6 6.5 11t20.5 7q46 9 272 25l27 2l28 65q154 366 590 1026q129 194 129 199q0 7 -108.5 -1t-192.5 -22q-44 -7 -55 2q-22 20 31 32q7 2 14 3q191 31 487 31q299 0 320 -18l4 2q12 -10 6.5 -20t-20.5 -7q-18 4 -202 7.5t-202 0.5q-20 -3 -47 -47 q-9 -16 -108 -170q-346 -531 -494 -815q-39 -75 -82 -165.5t-43 -96.5q0 -4 152 -4q150 0 168 -10q15 -8 17 -18t-8 -13.5t-26 2.5q-15 6 -158 6q-103 -2 -124.5 -3.5t-28.5 -8.5q-9 -11 -22.5 -12t-22.5 8t-74 4q-121 -7 -209 -17q-20 -3 -35 4q-9 5 -10 11zM1145 1633 q4 3 16 3t54 -42t42 -54v-2q0 -25 -42 6q-16 12 -35 31q-48 50 -35 58z" />
<glyph unicode="&#xcd;" horiz-adv-x="1064" d="M43 74q-1 6 6.5 11t20.5 7q46 9 272 25l27 2l28 65q154 366 590 1026q129 194 129 199q0 7 -108.5 -1t-192.5 -22q-43 -7 -55 3q-22 19 31 31q7 2 14 3q191 31 487 31q299 0 320 -18l4 2q12 -10 6.5 -20t-20.5 -7q-18 4 -202 7.5t-202 0.5q-20 -3 -47 -47 q-2 -3 -109 -170q-341 -523 -493 -815q-39 -75 -82 -165.5t-43 -96.5q0 -4 151 -4t168 -10q15 -8 17 -18t-7.5 -13.5t-25.5 2.5q-15 6 -158 6q-103 -2 -124.5 -3.5t-28.5 -8.5q-9 -11 -22.5 -12t-22.5 8t-74 4q-121 -7 -209 -17q-20 -3 -35 4q-9 5 -10 11zM1100 1560 q-1 4 0 9q3 10 55.5 40.5t67.5 30.5q59 0 -33 -53h-2q-78 -45 -88 -27z" />
<glyph unicode="&#xce;" horiz-adv-x="1064" d="M45 77q-1 6 6.5 10.5t20.5 6.5q46 9 272 25l27 2l28 65q154 366 590 1026q129 194 129 199q-7 4 -53.5 2.5t-120 -8.5t-127.5 -16q-44 -7 -55 2q-22 19 31 31q7 2 14 3q191 31 487 31q299 0 320 -18l4 2q12 -10 6.5 -20t-20.5 -7q-18 4 -202 7.5t-202 0.5q-20 -3 -47 -47 q-2 -3 -109 -170q-341 -523 -493 -815q-39 -75 -82 -165.5t-43 -96.5q0 -4 152 -4q150 0 167 -10q15 -8 17 -18t-7.5 -13.5t-25.5 2.5q-15 6 -158 6q-103 -2 -124.5 -3.5t-28.5 -8.5q-9 -11 -22.5 -12t-22.5 8t-74 4q-121 -7 -209 -17q-19 -3 -35 5q-9 5 -10 11zM1077 1591 q-3 7 40.5 47t62.5 48q16 5 28 -7q14 -12 42.5 -70.5t25.5 -68.5q-6 -21 -26 -3q-13 12 -23 34q-4 9 -27 55l-12 21l-39 -35l-2 2q-57 -54 -70 -23z" />
<glyph unicode="&#xcf;" horiz-adv-x="1064" d="M47 74q-1 6 6.5 11t20.5 7q46 9 272 25l27 2l28 65q154 366 590 1026q129 194 129 199q0 7 -108.5 -1t-192.5 -22q-43 -7 -55 3q-22 19 31 31q7 2 14 3q191 31 487 31q299 0 320 -18l4 2q12 -10 6.5 -20t-20.5 -7q-18 4 -202 7.5t-202 0.5q-20 -3 -47 -47 q-9 -16 -108 -170q-346 -531 -494 -815q-39 -75 -82 -165.5t-43 -96.5q0 -4 152 -4q150 0 168 -10q15 -8 17 -18t-8 -13.5t-26 2.5q-15 6 -158 6q-103 -2 -124.5 -3.5t-28.5 -8.5q-9 -11 -22.5 -12t-22.5 8t-74 4q-121 -7 -209 -17q-20 -3 -35 4q-9 5 -10 11z" />
<glyph unicode="&#xd0;" horiz-adv-x="1454" d="M46.5 954.5q0.5 27.5 19.5 61.5q45 85 116 149q93 80 263 150t339 98q75 12 174 12t162 -12q280 -56 369 -264l-6 -4q14 -33 18.5 -99t-4.5 -108q-38 -180 -221.5 -389t-441.5 -367q-179 -111 -347 -155q-57 -15 -132.5 -16t-121.5 12q-86 25 -120.5 87t-6.5 144 q68 206 357 328q60 25 65 41q2 12 70 155l-215 -26q-15 0 -18 16q-1 7 3.5 14t12.5 9l237 30q9 19 26.5 54.5t23.5 48.5q28 56 85 150t93 145q28 38 39 49.5t20 9.5q34 -5 -1 -60q-5 -9 -13 -20q-92 -129 -168 -274q-2 -4 -20 -41t-29 -60l491 62q7 1 14 -4t9 -13 q1 -7 -4 -13.5t-13 -8.5l-516 -66q-60 -123 -67 -145q-3 -11 -1.5 -12t13.5 2q75 17 158.5 12t97.5 -27q13 -22 1.5 -30t-34.5 6q-20 12 -91 12t-122 -12q-44 -10 -51 -17q-11 -15 -30.5 -77t-20.5 -86q-1 -32 -10.5 -43.5t-24.5 -0.5q-12 8 -10.5 43.5t18.5 83.5 q19 58 17 60q-3 3 -60 -26t-94 -52q-86 -55 -141.5 -135.5t-55.5 -149.5q0 -66 50.5 -100.5t146.5 -34.5q132 0 313 87.5t371 244.5q164 135 273.5 278.5t144.5 270.5q10 38 10 98t-10 92q-31 97 -122.5 164t-223.5 90q-191 32 -438 -33q-333 -90 -478 -241 q-32 -32 -63 -81.5t-31 -68.5q0 -31 -27 -28q-17 3 -16.5 30.5z" />
<glyph unicode="&#xd1;" horiz-adv-x="1609" d="M43 74q-11 25 315 665q62 121 220 408q131 241 155 270q11 13 26.5 12t24.5 -16q14 -23 -28 -231q-44 -220 -61 -360t-17 -290q0 -158 17 -254t55 -159q69 -114 208 -60q45 18 116 74t114 111q89 110 178 283.5t150 357.5q44 132 87.5 310t43.5 228q0 14 3.5 17t16.5 2 l16 -6l-2 -56q-5 -137 -86.5 -399.5t-181.5 -460.5q-137 -272 -300 -412t-298 -102q-66 20 -106.5 76.5t-65.5 163.5q-26 112 -26 274.5t26 339.5q26 172 70 379q15 63 12 66l-10 -14q-9 -16 -64 -116q-31 -56 -51 -92q-111 -201 -292 -555t-212 -430q-7 -20 -13 -26t-17 -6 q-19 0 -23 8zM1110 1542q0 20 25 42t47 22q18 0 53 -31t41 -31q8 0 27 31q17 30 32 27q19 -3 19 -22t-19 -42q-22 -29 -56 -29t-69 29l-32 27l-23 -23h2q-14 -14 -25 -19t-16.5 0t-5.5 19z" />
<glyph unicode="&#xd2;" horiz-adv-x="1396" d="M52 587q-20 121 34 255q72 181 276 347t429 226q105 27 190 27q143 0 231 -82v-2q183 -167 119 -473q-43 -208 -176 -412t-293 -319q-142 -102 -250 -134q-133 -38 -215 -11.5t-151 130.5q-23 35 -31.5 67.5t-11.5 90.5l-2 59l-41 35q-88 75 -108 196zM96 659 q-9 -137 80 -239q23 -27 27 -23t18 70q25 118 105.5 278.5t181.5 294.5q81 106 113 103q34 -3 -6 -49q-1 -2 -3 -4q-77 -85 -160 -225.5t-137 -276.5q-17 -42 -36 -116.5t-19 -96.5q0 -9 50 -21t87 -12q39 0 66 12q44 19 49 0q1 -4 0 -8q-4 -14 -35 -27q-62 -27 -172 -2 l-49 11v-43q0 -74 31 -131q42 -74 103 -99.5t155 -13.5q145 21 334 182q219 186 342 484q42 104 56 163t17 144l-4 -8q9 210 -119 311q-101 80 -221 74q-131 -6 -282 -73.5t-282.5 -177t-207.5 -233.5q-73 -118 -82 -248zM1007 1629q7 7 29 7q20 0 86 -66.5t66 -86.5v2 q0 -33 -49 -4q-33 20 -74 61q-72 72 -58 87z" />
<glyph unicode="&#xd3;" horiz-adv-x="1396" d="M52 581q-20 121 34 255q72 181 276 347t429 226q105 27 190 27q143 0 231 -82v-2q183 -167 119 -473q-43 -208 -176 -412.5t-293 -319.5q-139 -100 -250 -133q-133 -38 -215 -11.5t-151 130.5q-23 35 -31.5 67.5t-11.5 90.5l-2 59l-41 35q-88 75 -108 196zM96 653 q-9 -137 80 -239q23 -27 27 -23t18 70q25 118 105.5 278.5t181.5 294.5q81 106 113 103q36 -3 -9 -54q-77 -85 -160 -225t-137 -276q-17 -42 -36 -116.5t-19 -96.5q0 -9 50 -21t87 -12q39 0 66 12q44 19 49 0q1 -4 0 -8q-4 -14 -35 -27q-62 -27 -172 -2l-49 11v-43 q0 -75 31 -132q42 -74 103 -99t155 -13q145 21 334 182q219 186 342 483q42 104 56 163.5t17 144.5l-4 -9q9 211 -119 312q-100 79 -221 73q-131 -6 -282 -73t-282.5 -176.5t-207.5 -233.5q-73 -118 -82 -248zM899 1513q5 14 79.5 54.5t96.5 40.5q58 -2 12 -37 q-20 -16 -61 -37v-2q-108 -55 -126 -34q-4 5 -1 15z" />
<glyph unicode="&#xd4;" horiz-adv-x="1396" d="M54 587q-20 121 34 255q72 181 276 347t429 226q105 27 190 27q143 0 231 -82v-2q183 -167 119 -473q-43 -208 -176 -412t-293 -319q-142 -102 -250 -134q-133 -38 -215 -11.5t-151 130.5q-23 35 -31.5 67.5t-11.5 90.5l-2 59l-41 35q-88 75 -108 196zM98 659 q-9 -137 80 -239q23 -27 27 -23t18 70q25 118 105.5 278.5t181.5 294.5q81 106 113 103q34 -3 -6 -49q-1 -2 -3 -4q-77 -85 -160 -225.5t-137 -276.5q-17 -42 -36 -116.5t-19 -96.5q0 -9 50 -21t87 -12q39 0 66 12q44 19 49 0q1 -4 0 -8q-4 -14 -35 -27q-62 -27 -172 -2 l-49 11v-43q0 -74 31 -131q42 -74 103 -99.5t155 -13.5q145 21 334 182q219 186 342 484q42 104 56 163t17 144l-4 -8q9 211 -118 311q-101 80 -222 74q-131 -6 -282 -73.5t-282.5 -177t-207.5 -233.5q-73 -118 -82 -248zM879 1528q-4 9 47.5 58.5t74.5 58.5q19 8 35 -5 q17 -13 53 -83t33 -84q-5 -25 -28 -8q-18 13 -31 40q-19 37 -37 68l-14 24l-47 -45l2 4q-70 -66 -88 -28z" />
<glyph unicode="&#xd5;" horiz-adv-x="1396" d="M46 585q-20 121 34 255q72 181 276 347t428 226q105 27 191 27q143 0 231 -82v-2q183 -167 119 -473q-43 -208 -176 -412t-293 -319q-142 -102 -250 -134q-133 -38 -215 -11.5t-151 130.5q-23 35 -31.5 67.5t-11.5 90.5l-2 59l-41 35q-88 75 -108 196zM90 657 q-9 -137 80 -239q23 -27 27 -23t18 70q25 118 105.5 278.5t181.5 294.5q81 106 112 103q37 -3 -8 -54q-77 -85 -160 -225t-137 -276q-17 -42 -36 -116.5t-19 -96.5q0 -9 50 -21t87 -12q39 0 66 12q44 19 49 0q1 -4 0 -8q-4 -14 -35 -27q-62 -27 -172 -2l-49 11v-43 q0 -74 31 -131q42 -74 103 -99.5t155 -13.5q144 21 333 182q219 186 342 484q42 105 56.5 164t17.5 143l-4 -8q9 210 -119 311q-101 80 -221 74q-131 -6 -282 -73.5t-282.5 -177t-207.5 -233.5q-73 -118 -82 -248zM823 1522q0 25 31 52.5t59 27.5q24 0 70 -37t55 -37 q11 0 33 37q23 37 43 34q23 -3 23.5 -26.5t-21.5 -52.5q-28 -37 -71 -37t-87 35l-40 34l-29 -28h-6q-40 -42 -55 -22q-5 6 -5 20z" />
<glyph unicode="&#xd6;" horiz-adv-x="1396" d="M48 581q-20 121 34 255q72 181 276 347t428 226q105 27 191 27q143 0 231 -82v-2q183 -167 119 -473q-43 -208 -176 -412.5t-293 -319.5q-139 -100 -250 -133q-133 -38 -215 -11.5t-151 130.5q-23 35 -31.5 67.5t-11.5 90.5l-2 59l-41 35q-88 75 -108 196zM92 653 q-9 -137 80 -239q23 -27 27 -23t18 70q25 118 105.5 278.5t181.5 294.5q81 106 112 103q37 -3 -8 -54q-77 -85 -160 -225t-137 -276q-17 -42 -36 -116.5t-19 -96.5q0 -9 50 -21t87 -12q39 0 66 12q44 19 49 0q1 -4 0 -8q-4 -14 -35 -27q-62 -27 -172 -2l-49 11v-43 q0 -75 31 -132q42 -74 103 -99t155 -13q144 21 333 182q221 188 343 483q42 104 56 163.5t17 144.5l-4 -9q9 211 -119 312q-100 79 -221 73q-131 -6 -282 -73t-282.5 -176.5t-207.5 -233.5q-73 -118 -82 -248zM854 1550q0 19 8.5 27t28.5 8q34 0 46.5 -21.5t-9.5 -43.5 q-35 -32 -60 -13l-2 -2q-12 12 -12 45zM1020 1516q-12 26 1.5 46.5t39.5 16.5q33 -3 33 -39l-2 -2q0 -31 -30 -40.5t-42 18.5z" />
<glyph unicode="&#xd7;" horiz-adv-x="483" d="M53 504q-6 9 76 76l80 67l-33 51q-33 53 -33 70q-1 10 1.5 13t13.5 3q14 0 20 -7t33 -56q25 -45 36 -45q5 0 9 6q9 12 79.5 56t80.5 44h6q30 0 11 -20q-16 -16 -75 -57q-86 -60 -86 -68q0 -7 41 -55q49 -56 29 -63q-4 -1 -10 -1q-14 0 -53 45q-36 45 -46 45q-8 0 -77 -55 q-27 -21 -44.5 -33.5t-30 -18.5t-19 -5t-9.5 8z" />
<glyph unicode="&#xd8;" horiz-adv-x="1415" d="M54 581q-20 121 34 255q72 181 276 347t429 226q105 27 190 27q143 0 231 -82l119 141q11 14 27 2l2 -2q14 -11 2 -27l-121 -143q150 -163 90 -446q-43 -208 -176 -412.5t-293 -319.5q-139 -100 -250 -133q-133 -38 -215 -11.5t-151 130.5l-6 12l-68 -77q-7 -7 -16 -7 q-3 0 -13 5q-14 10 -2 26l78 90q-13 40 -16 109l-2 59l-41 35q-88 75 -108 196zM98 662q-9 -138 80 -240q23 -27 27 -23t18 70l-8 -4q25 118 105.5 278.5t181.5 294.5q81 106 112 103q37 -3 -8 -54q-77 -85 -160 -225t-137 -276q-17 -42 -36 -116.5t-19 -96.5q0 -6 32 -15 t68 -14l826 969l-6 6q-101 80 -222 74q-131 -6 -282 -73.5t-282.5 -177t-207.5 -233.5q-73 -118 -82 -247zM252 283l2 -2q0 -20 4 -52l68 80q-4 1 -12.5 3t-12.5 3l-49 11v-43zM266 182q3 -9 17 -37q42 -74 103 -99t155 -13q144 21 333 182q221 188 343 483q42 104 56 163.5 t17 144.5h-2q8 179 -84 278l-805 -946q34 0 58 12q44 19 49 0q1 -4 0 -8q-4 -14 -35 -27q-39 -17 -104 -14z" />
<glyph unicode="&#xd9;" horiz-adv-x="1157" d="M61 322q46 414 390 997q43 72 61 90.5t35 7.5q9 -5 5.5 -15.5t-28.5 -53.5q-254 -435 -352 -760q-60 -197 -63 -367q-1 -121 24.5 -151.5t102.5 0.5q41 18 123 85.5t141 133.5q139 155 270.5 343.5t347.5 543.5q153 247 164 251l12 5q10 3 21.5 -3.5t11.5 -15.5 q0 -6 -37 -67q-67 -110 -160 -295.5t-147 -317.5q-110 -270 -127 -450q-6 -60 -3.5 -76.5t19.5 -22.5q33 -12 7 -32q-15 -12 -34 -12t-30 12q-19 23 -8.5 133t39.5 215q34 127 86 248q5 12 7 18t5 13.5t4 10.5t0 3t-53 -74q-106 -158 -222.5 -302.5t-217.5 -242.5 q-85 -82 -170 -125t-138 -31q-116 26 -86 304zM784 1604q7 5 23 6q17 2 78.5 -54t62.5 -75q2 -31 -46 -4q-28 17 -64 49h2q-72 65 -56 78z" />
<glyph unicode="&#xda;" horiz-adv-x="1157" d="M61 322q46 414 390 997q43 72 61 90.5t35 7.5q9 -5 5.5 -15.5t-28.5 -53.5q-254 -435 -352 -760q-60 -197 -63 -367q-1 -121 24.5 -151.5t102.5 0.5q41 18 123 85.5t141 133.5q139 155 270.5 343.5t347.5 543.5q153 247 164 251l12 5q10 3 21.5 -3.5t11.5 -15.5 q0 -6 -37 -67q-67 -110 -160 -295.5t-147 -317.5q-110 -270 -127 -450q-6 -60 -3.5 -76.5t19.5 -22.5q33 -12 7 -32q-15 -12 -34 -12t-30 12q-19 23 -8.5 133t39.5 215q34 127 86 248q5 12 7 18t5 13.5t4 10.5t0 3t-53 -74q-106 -158 -222.5 -302.5t-217.5 -242.5 q-85 -82 -170 -125t-138 -31q-116 26 -86 304zM803 1507q3 15 79 63t99 48q59 2 19 -35q-20 -19 -66 -47h2q-111 -66 -131 -44q-4 5 -2 15z" />
<glyph unicode="&#xdb;" horiz-adv-x="1157" d="M63 317q46 415 390 998q43 72 61 90.5t35 7.5q9 -4 5.5 -16t-28.5 -54q-254 -436 -352 -759q-60 -197 -63 -367q-1 -121 24.5 -151.5t102.5 0.5q41 18 123 85.5t141 133.5q139 155 271 344t347 542q154 249 164 252l12 4q11 3 22 -3t11 -15q0 -7 -37 -68 q-68 -110 -160.5 -295t-146.5 -317q-110 -270 -127 -450q-6 -60 -3.5 -76.5t19.5 -22.5q34 -12 7 -33q-15 -12 -34 -12t-30 12q-19 23 -8.5 133.5t39.5 215.5q33 124 86 247q5 12 7 18t5 13.5t4 10.5t0 3t-53 -73q-106 -158 -222.5 -302.5t-217.5 -242.5 q-85 -82 -169.5 -125t-137.5 -31q-60 13 -81 87.5t-6 215.5zM776 1532q-3 8 49 46t74 44q17 6 29 -6q14 -14 37.5 -80t19.5 -78q-7 -22 -26 -3q-14 14 -23 40q-16 46 -25 64l-10 24l-47 -35l4 -2q-70 -51 -82 -14z" />
<glyph unicode="&#xdc;" horiz-adv-x="1157" d="M59 322q46 414 390 997q43 72 61 90.5t35 7.5q9 -5 5.5 -15.5t-28.5 -53.5q-254 -435 -352 -760q-61 -201 -64 -367q-1 -121 24.5 -151.5t102.5 0.5q41 18 124 85.5t141 133.5q139 155 270.5 343.5t347.5 543.5q153 247 164 251l12 5q10 3 21.5 -3.5t11.5 -15.5 q0 -6 -37 -67q-67 -110 -160 -295.5t-147 -317.5q-110 -270 -127 -450q-6 -60 -3.5 -76.5t19.5 -22.5q33 -12 7 -32q-15 -12 -34 -12t-30 12q-19 23 -8.5 133t39.5 215q34 127 86 248q5 12 7 18t5 13.5t4 10.5t0 3t-53 -74q-106 -158 -222.5 -302.5t-217.5 -242.5 q-85 -82 -170 -125t-138 -31q-116 26 -86 304zM786 1526q0 15 7 21.5t24 6.5q29 0 39 -19t-10 -38q-28 -28 -51 -10l2 2q-11 7 -11 37zM932 1495q-10 23 2 41.5t35 15.5q26 -3 26 -34v-2q0 -28 -26.5 -36t-36.5 15z" />
<glyph unicode="&#xdd;" horiz-adv-x="1007" d="M92 918q54 128 164.5 279.5t198.5 217.5q25 19 34.5 23t18.5 0q14 -7 14 -15q0 -10 -51 -57q-99 -94 -190 -227t-141 -255t-38 -186q15 -86 125 -86q119 0 310 123q60 40 167 126t173 147q77 71 198.5 195.5t163.5 176.5q29 36 46 54.5t30 28t20 8t13 -12.5l2 -6 q4 -7 -8 -26t-60 -76q-138 -168 -311.5 -421t-276.5 -435q-79 -139 -137.5 -269t-52.5 -153t-16 -35.5t-39 4.5q-9 8 -1.5 38.5t37.5 102.5q96 234 248 480q145 234 236 358q9 13 6 12q-2 0 -23 -20q-412 -384 -659 -437q-66 -13 -129 3q-195 47 -72 340zM846 1532v2 q-26 10 14 40q24 19 62 36q73 34 80 19q2 -7 -3 -23q-4 -15 -71 -47t-82 -27z" />
<glyph unicode="&#xde;" horiz-adv-x="800" d="M51 135l481 1299q5 11 16 15.5t21 0.5q11 -5 16 -16t1 -21l-162 -440l12 12q97 68 187 33q93 -36 120 -146h7q28 -108 -17 -225q-44 -116 -133 -180q-43 -28 -84 -37q-52 -12 -102 6q-45 17 -76.5 55t-44.5 91l-6 18l-181 -483q-6 -16 -20 -19q-9 -3 -18 0q-11 5 -16 16 t-1 21zM346 594q22 -83 86 -105q65 -22 133 25q76 51 115 154q37 97 14 190q-22 83 -86 105q-36 12 -71 4q-29 -6 -62 -29q-76 -51 -115 -154q-37 -97 -14 -190z" />
<glyph unicode="&#xdf;" horiz-adv-x="911" d="M49 254q-6 14 83 182t171 297q76 121 146.5 197t158.5 133q140 92 215 70q23 -6 32 -17.5t9 -34.5q0 -29 -35 -62.5t-141 -107.5v-4q-129 -88 -141 -104q-3 -7 -4.5 -11.5t6.5 -10t22.5 -11t42.5 -14.5q59 -19 90.5 -38.5t51.5 -49.5q44 -70 -2 -152q-34 -61 -98.5 -99 t-135.5 -38q-49 0 -100 13.5t-80 33.5q-48 35 -53 65q0 16 18 17q16 0 33 -25q11 -15 24.5 -24t43.5 -21q89 -37 170.5 -12.5t128.5 102.5q43 68 14 121q-13 26 -38 42t-77 34q-99 35 -108 61q-8 19 28.5 52t151.5 112q164 114 141 148q-9 13 -62 -4.5t-106 -51.5 q-71 -47 -121.5 -95.5t-109.5 -127.5q-41 -55 -114.5 -178t-133.5 -238q-72 -135 -74 -139q-9 -15 -25 -18.5t-22 8.5z" />
<glyph unicode="&#xe0;" d="M-143 436q-38 23 2.5 96.5t115.5 116.5q45 25 78 25q46 0 64 -37l10 -21l20 17q17 14 25.5 15.5t17.5 -7.5q10 -10 -12 -49q-42 -76 -22 -105q10 -12 39 -10q68 6 198 111q60 45 64 47l-4 2q43 30 48 12q1 -3 1 -10q0 -6 -23 -29q-30 -30 -80 -68.5t-88 -60.5 q-67 -38 -109.5 -43.5t-72.5 19.5q-17 13 -21 22t-4 33v35l-49 -37q-142 -109 -198 -74zM-113 481q-4 -19 6 -19q12 0 54 25q35 22 90 62l4 -2q36 26 41.5 34t1.5 23q-8 24 -14 27q-4 4 -11 4q-34 2 -98 -54.5t-74 -99.5zM9 793q4 4 16 6q12 3 60.5 -31.5t51.5 -46.5 q2 -13 -12 -12q-24 1 -70 34h-2q-56 39 -44 50z" />
<glyph unicode="&#xe1;" d="M-141 436q-38 23 2.5 96.5t115.5 116.5q45 25 78 25q46 0 64 -37l10 -21l21 17q17 14 25.5 15.5t17.5 -7.5q6 -7 3.5 -15.5t-16.5 -33.5q-42 -76 -22 -105q10 -12 39 -10q68 6 198 111q60 45 64 47l-4 2q43 30 48 12q1 -3 1 -10q0 -6 -23 -29q-30 -30 -80 -68.5 t-88 -60.5q-67 -38 -109.5 -43.5t-72.5 19.5q-17 13 -21 22t-4 33v35l-49 -37q-142 -109 -198 -74zM-111 481q-4 -19 6 -19q12 0 54 25q35 22 90 62l4 -2q36 26 41.5 34t1.5 23q-8 24 -14 27q-4 4 -11 4q-34 2 -98 -54.5t-74 -99.5zM-10 731q3 10 57.5 37t69.5 25 q53 -3 -9 -39l-26 -13q-79 -37 -91 -20q-3 3 -1 10z" />
<glyph unicode="&#xe2;" d="M-139 440q-38 23 3 96.5t116 116.5q45 25 77 25q46 0 64 -37l10 -20l21 16q17 14 25.5 15.5t17.5 -7.5q6 -7 3.5 -15.5t-16.5 -33.5q-41 -75 -22 -104q11 -13 39 -11q68 6 198 111q60 45 64 47l-4 2q43 30 48 12q1 -3 1 -10q0 -6 -23 -29q-30 -30 -80 -68.5t-88 -60.5 q-67 -38 -109.5 -43.5t-72.5 19.5q-17 13 -20.5 22t-3.5 33v35l-50 -37q-142 -109 -198 -74zM-109 485q-4 -18 5 -18q11 -1 55 25q43 26 90 61l4 -2q36 26 41.5 34t1.5 23q-8 24 -14 27q-4 4 -11 4q-34 2 -98 -54.5t-74 -99.5zM-8 731q-3 5 23 35.5t38 36.5t21 0 q10 -6 34.5 -42t22.5 -44q-2 -16 -20 -5q-9 6 -17 19q-22 33 -24 35l-11 12l-22 -28l2 2q-35 -41 -47 -21z" />
<glyph unicode="&#xe3;" d="M-143 434q-38 23 2.5 96.5t115.5 116.5q45 25 78 25q46 0 64 -37l10 -21l20 17q17 14 25.5 15.5t17.5 -7.5q10 -10 -12 -49q-42 -76 -22 -105q10 -12 39 -10q68 6 198 111q60 45 64 47l-4 2q43 30 48 12q1 -3 1 -10q0 -6 -23 -29q-30 -30 -80 -68.5t-88 -60.5 q-67 -38 -109.5 -43.5t-72.5 19.5q-17 13 -21 22t-4 33v35l-49 -37q-142 -109 -198 -74zM-113 479q-4 -19 6 -19q12 0 54 25q35 22 90 62l4 -2q36 26 41.5 34t1.5 23q-8 24 -14 27q-4 4 -11 4q-34 2 -98 -54.5t-74 -99.5zM-33 731q0 17 20.5 35t39.5 18q20 0 47 -24 q29 -25 37 -25q7 0 22 27q13 26 27 22q15 -3 15 -19t-15 -36q-19 -25 -47.5 -25t-57.5 25l-28 23l-19 -19v-2q-12 -12 -21.5 -16.5t-14.5 0t-5 16.5z" />
<glyph unicode="&#xe4;" d="M-141 438q-38 23 2.5 96.5t115.5 116.5q45 25 78 25q46 0 64 -37l10 -21l21 17q17 14 25.5 15.5t17.5 -7.5q6 -7 3.5 -15.5t-16.5 -33.5q-42 -76 -22 -105q10 -12 39 -10q68 6 198 111q60 45 64 47l-4 2q43 30 48 12q1 -3 1 -10q0 -6 -23 -29q-30 -30 -80 -68.5 t-88 -60.5q-67 -38 -109.5 -43.5t-72.5 19.5q-17 13 -21 22t-4 33v35l-49 -37q-142 -109 -198 -74zM-111 483q-4 -19 6 -19q12 0 54 25q35 22 90 62l4 -2q36 26 41.5 34t1.5 23q-8 24 -14 27q-4 4 -11 4q-34 2 -98 -54.5t-74 -99.5zM0 735q0 17 16 17q17 0 23.5 -11 t-4.5 -22q-17 -17 -29 -6q-6 3 -6 22zM84 719q-6 12 0 22.5t18 8.5q17 -3 17 -21q0 -15 -14.5 -19t-20.5 9z" />
<glyph unicode="&#xe5;" d="M-141 436q-38 23 2.5 96.5t115.5 116.5q45 25 78 25q46 0 64 -37l10 -21l21 17q17 14 25.5 15.5t17.5 -7.5q6 -7 3.5 -15.5t-16.5 -33.5q-42 -76 -22 -105q10 -12 39 -10q68 6 198 111q60 45 64 47l-4 2q43 30 48 12q1 -3 1 -10q0 -6 -23 -29q-30 -30 -80 -68.5 t-88 -60.5q-67 -38 -109.5 -43.5t-72.5 19.5q-17 13 -21 22t-4 33v35l-49 -37q-142 -109 -198 -74zM-111 481q-4 -19 6 -19q12 0 54 25q35 22 90 62l4 -2q36 26 41.5 34t1.5 23q-8 24 -14 27q-4 4 -11 4q-34 2 -98 -54.5t-74 -99.5zM23 754q0 19 14 30q13 13 16 13h19h6 q14 0 28 -11t17 -24q6 -28 -19 -45.5t-53 -5.5l-4 2q-24 11 -24 41zM51 748q0 -15 13.5 -20t25.5 5q9 8 8 20.5t-10 20.5q-9 6 -18 6l4 -2q-9 0 -16 -8.5t-7 -21.5z" />
<glyph unicode="&#xe6;" horiz-adv-x="669" d="M-37 430q-38 23 3 96.5t116 116.5q45 25 78 25q45 0 63 -37l10 -21l21 17q26 20 39 12q47 31 80 31q12 0 24 -6q26 -12 23.5 -37.5t-33.5 -51.5q-26 -22 -72 -26h-20.5h-13.5t-8 -0.5t-5 -2t-4 -5.5q-8 -15 -4 -37q3 -49 80 -49q105 0 303 155h-4q79 61 80 33v-4 q0 -14 -68 -68q-114 -89 -196 -124.5t-150 -24.5q-53 9 -78 37q-4 -21 2 -27q14 -23 6 -36t-32 7q-4 3 -7 8.5t-4.5 10t-1.5 12.5v13.5t1.5 15t2.5 13.5t3 14t2 12q2 6 7 19.5t5 19.5l-49 -37q-142 -109 -199 -74zM-10 483q-4 -19 6 -19q11 1 53 25q35 22 90 62l2 -4 q36 26 41.5 34t1.5 23q-8 22 -14 29q-4 4 -10 4q-34 2 -97 -54t-73 -100zM301 594q9 -4 14 -3.5t25 9.5q15 7 25 20.5t4 18.5h-4q-20 0 -56 -29l2 6q-19 -16 -10 -22zM369 674z" />
<glyph unicode="&#xe7;" horiz-adv-x="460" d="M-55 537q19 69 74.5 113.5t101.5 27.5q28 -10 37 -46q9 -32 -12 -37l-5 -1q-12 0 -17.5 7t-10.5 26q-3 15 -13 20q-12 3 -44.5 -25t-47.5 -55q-53 -89 23 -104q118 -25 366 145l13 -6q89 61 98 43l2 -8q0 -11 -43 -43q-102 -76 -238 -137q-77 -34 -143 -41 q-1 -1 -3.5 -4.5t-4.5 -5.5q-11 -10 -10 -13.5t16 -9.5q17 -6 29.5 -22.5t9.5 -28.5q-3 -14 -19 -27t-34 -16q-22 -5 -33.5 -2.5t-24.5 14.5q-16 14 -3 20q9 4 26 -2t32 2t15 23q0 9 -5.5 13t-27.5 10q-34 10 -37 18q-3 7 23 37q-3 1 -9.5 3t-9.5 3q-40 8 -60.5 39.5 t-10.5 69.5z" />
<glyph unicode="&#xe8;" horiz-adv-x="399" d="M-61 524q6 53 58.5 101.5t100.5 48.5q13 0 25 -6q27 -12 24.5 -37t-32.5 -51q-27 -23 -72 -27h-20.5h-13.5t-8 -0.5t-5 -2t-4 -5.5q-8 -15 -4 -37q3 -49 80 -49q105 0 303 155l2 -2q79 61 80 33v-4q0 -14 -68 -68q-114 -89 -196 -124.5t-150 -24.5q-52 9 -78.5 35.5 t-21.5 64.5zM35 596q9 -4 14 -3.5t25 9.5q15 7 24.5 20.5t3.5 18.5h-4q-19 0 -55 -29l2 6q-19 -16 -10 -22zM64 787q5 3 14 4q12 2 60.5 -34t49.5 -48q2 -13 -11 -12q-25 2 -71 36h-2q-58 45 -40 54z" />
<glyph unicode="&#xe9;" horiz-adv-x="399" d="M-59 526q6 53 58.5 101.5t100.5 48.5q13 0 25 -6q27 -12 24.5 -37t-32.5 -51q-27 -23 -72 -27h-20.5h-13.5t-8 -0.5t-5 -2t-4 -5.5q-8 -15 -4 -37q3 -49 80 -49q105 0 303 155l2 -2q79 61 80 33v-4q0 -14 -68 -68q-114 -89 -196 -124.5t-150 -24.5q-52 9 -78.5 35.5 t-21.5 64.5zM12 713q2 11 50 48t63 38q29 3 23 -12q-9 -16 -50 -46q-67 -52 -83 -39q-4 3 -3 11zM37 598q9 -4 14 -3.5t25 9.5q15 7 24.5 20.5t3.5 18.5h-4q-19 0 -55 -29l2 7q-19 -17 -10 -23z" />
<glyph unicode="&#xea;" horiz-adv-x="399" d="M-55 524q6 53 58.5 101.5t100.5 48.5q13 0 25 -6q27 -12 24.5 -37t-32.5 -51q-27 -23 -72 -27h-20.5h-13.5t-8 -0.5t-5 -2t-4 -5.5q-8 -15 -4 -37q3 -49 80 -49q105 0 303 155l2 -2q79 61 80 33v-4q0 -14 -68 -68q-114 -89 -196 -124.5t-150 -24.5q-52 9 -78.5 35.5 t-21.5 64.5zM41 596q9 -4 14 -3.5t25 9.5q15 7 25 20.5t4 18.5h-5q-19 0 -55 -29l2 6q-19 -16 -10 -22zM51 731q-1 4 23 27t35 28q9 3 16 -2q8 -6 25 -38.5t16 -38.5q-2 -12 -16 -1q-8 6 -13 17q-2 4 -9 16t-9 15l-8 12l-23 -21l4 -2q-31 -31 -41 -12z" />
<glyph unicode="&#xeb;" horiz-adv-x="399" d="M-57 524q6 53 58.5 101.5t100.5 48.5q13 0 25 -6q27 -12 24.5 -37t-32.5 -51q-27 -23 -72 -27h-20.5h-13.5t-8 -0.5t-5 -2t-4 -5.5q-8 -15 -4 -37q3 -49 80 -49q105 0 303 155l2 -2q79 61 80 33v-4q0 -14 -68 -68q-114 -89 -196 -124.5t-150 -24.5q-52 9 -78.5 35.5 t-21.5 64.5zM31 741q0 17 16 17q17 0 23.5 -11t-4.5 -22q-18 -17 -29 -6q-6 3 -6 22zM39 596q9 -4 14 -3.5t25 9.5q15 7 24.5 20.5t3.5 18.5h-4q-19 0 -55 -29l2 6q-19 -16 -10 -22zM115 725q-6 12 0 22.5t18 8.5q17 -3 17 -21q0 -15 -14.5 -19t-20.5 9z" />
<glyph unicode="&#xec;" horiz-adv-x="372" d="M-59 498q0 20 14.5 55.5t34.5 64.5q42 62 59 62q9 0 19 -10q6 -6 1 -19t-28 -49q-63 -102 -38 -121q8 -6 26 -6q35 0 116.5 37.5t178.5 99.5h-2q85 56 95 35q1 -2 1 -4q0 -5 -41 -35q-74 -53 -195 -114q-64 -32 -97 -43t-65 -11q-33 0 -57 19q-22 17 -22 39zM22 840 q5 2 15 2q12 0 54 -42.5t42 -54.5v-2q0 -24 -40 4q-18 13 -38 33q-50 52 -33 60z" />
<glyph unicode="&#xed;" horiz-adv-x="372" d="M-57 500q0 20 14.5 56t34.5 65q41 61 59 61q9 0 19 -10q6 -6 1 -19t-28 -49q-63 -102 -38 -121q8 -6 26 -6q35 0 116.5 37.5t178.5 99.5h-2q85 56 95 35q1 -2 1 -4q0 -5 -41 -35q-74 -53 -195 -114q-65 -32 -97 -43t-64 -11q-34 0 -58 19q-22 17 -22 39zM16 758q-1 3 0 8 q2 11 51 47t64 37q53 5 -15 -47q-6 -5 -14 -10h2q-79 -56 -88 -35z" />
<glyph unicode="&#xee;" horiz-adv-x="372" d="M-57 500q0 20 14.5 56t34.5 65q41 61 59 61q9 0 19 -10q6 -6 1 -19t-28 -49q-63 -102 -38 -121q8 -6 26 -6q35 0 116.5 37.5t178.5 99.5h-2q85 56 95 35q1 -2 1 -4q0 -5 -41 -35q-74 -53 -195 -114q-65 -32 -97 -43t-64 -11q-34 0 -58 19q-22 17 -22 39zM12 752 q-1 4 16 17.5t37 27t29 16.5q12 3 21 -6t25.5 -53.5t13.5 -51.5q-6 -17 -22 2q-8 9 -13 23q-5 16 -17 41l-8 16l-31 -22h3q-45 -35 -54 -10z" />
<glyph unicode="&#xef;" horiz-adv-x="372" d="M-63 500q0 20 14.5 56t34.5 65q41 61 59 61q8 0 18 -10q7 -5 2 -18.5t-28 -49.5q-63 -102 -38 -121q8 -6 26 -6q35 0 116 37t178 100h-2q88 58 96 33q1 -1 1 -2q0 -5 -41 -35q-74 -53 -195 -114q-64 -32 -97 -43t-65 -11q-33 0 -57 19q-22 17 -22 39zM-2 760q0 16 16 16 q17 0 23.5 -11t-4.5 -22q-17 -17 -29 -6q-6 3 -6 23zM80 743q-6 12 1 22.5t19 8.5q17 -3 17 -20h-2q0 -15 -14.5 -19.5t-20.5 8.5z" />
<glyph unicode="&#xf0;" horiz-adv-x="372" d="M10 516q-1 87 36 125t89.5 12.5t93.5 -106.5l17 -35l6 29q15 70 11 159.5t-25 167.5l-93 -69q-4 -4 -10 -4t-12 6q-10 10 2 22l100 78q-18 59 -43 90q-15 19 -15 27t15 10q7 0 19 -4q32 -19 61 -98l92 69q10 11 23 -2h2q10 -10 -2 -22l-101 -76q17 -53 25 -102 q26 -182 -14 -308q-11 -33 -11 -53q0 -18 -10 -20q-9 0 -22 -21q-10 -17 -33.5 -36t-40.5 -25q-12 -6 -37 -6q-24 0 -37 10q-32 19 -59 75t-27 107zM48.5 495.5q4.5 -50.5 29.5 -92.5q19 -34 33 -41q47 -28 100 60l20 35l-24 53q-22 47 -39.5 70.5t-38.5 35.5 q-42 23 -66 -30q-19 -40 -14.5 -90.5z" />
<glyph unicode="&#xf1;" horiz-adv-x="624" d="M-76 479q6 34 51 108.5t66 84.5q12 6 22 -4q9 -7 8 -12.5t-14 -24.5q-20 -28 -48.5 -75.5t-33.5 -61.5q-6 -16 76 49q196 151 246 112q29 -20 -4 -98q-15 -37 -18 -63t8 -29q28 -7 105 32.5t185 116.5q42 31 60 37t24 -8l7 8q3 -10 -33 -39q-45 -39 -118 -86t-126 -69 q-109 -49 -147 10q-11 17 -7.5 41t23.5 76q18 47 14 51q-8 6 -66.5 -28.5t-99.5 -69.5t-88 -67t-57 -32q-16 0 -27 11q-11 8 -8 30zM80 735q0 17 20 35t39 18q20 0 47 -24q29 -25 37 -25t23 27q13 25 26 22q15 -3 15 -19t-15 -36q-19 -25 -47 -25t-57 25l-29 23l-18 -19v-2 q-12 -12 -21.5 -16.5t-14.5 0t-5 16.5z" />
<glyph unicode="&#xf2;" horiz-adv-x="434" d="M-97 506q8 50 58 110q30 37 41 41q9 3 29 15q18 12 45 12q28 0 43 -12q24 -23 28 -45.5t-10 -57.5l-10 -28h33q112 0 243 80q41 25 58 31.5t26 -1.5l2 -4q4 -5 -0.5 -13.5t-20.5 -21t-44 -28.5q-142 -82 -272 -82q-43 0 -48 -10q-5 -12 -36.5 -38t-51.5 -32 q-50 -16 -86 8q-35 26 -27 76zM-49 461q7 -13 19.5 -13.5t37.5 11.5q26 11 41 30l14 17l-18 10q-38 27 -43 35l-16 22l-17 -28q-33 -56 -18 -84zM31 590q0 -18 22 -35q21 -14 29 -10q6 3 14 35h2q12 58 -18 61h-6q-15 -2 -29 -18t-14 -33zM45 818q4 3 16 3t54.5 -42 t42.5 -54v-2q0 -24 -40 4q-18 13 -38 33q-48 50 -35 58z" />
<glyph unicode="&#xf3;" horiz-adv-x="434" d="M-97 504q8 50 58 110q30 37 41 41q9 3 29 15q18 12 45 12q28 0 43 -12q24 -23 28 -45.5t-10 -57.5l-10 -28h33q114 0 243 79q42 26 58.5 32.5t25.5 -1.5l2 -4q4 -5 -0.5 -13.5t-20.5 -21t-44 -28.5q-142 -82 -272 -82q-42 0 -48 -11q-5 -12 -36.5 -37.5t-51.5 -31.5 q-50 -16 -86 8q-35 26 -27 76zM-49 459q7 -13 19.5 -13.5t37.5 11.5q26 11 41 30l14 17l-18 10q-38 27 -43 35l-16 22l-17 -28q-33 -56 -18 -84zM4 737q0 10 42 54t56 49q37 9 20 -18q-9 -15 -36 -42v-4q-60 -60 -78 -49q-4 2 -4 10zM31 588q0 -18 22 -35q21 -14 29 -10 q6 3 14 35h2q12 58 -18 61h-6q-15 -2 -29 -18t-14 -33z" />
<glyph unicode="&#xf4;" horiz-adv-x="434" d="M-93 508q8 50 58 110q30 37 41 41q9 3 29 15q18 12 45 12q28 0 43 -12q24 -23 28 -45.5t-10 -57.5l-10 -28h33q113 0 244 80q41 25 58 31.5t26 -1.5l2 -4q4 -5 -1 -13.5t-21 -21t-44 -28.5q-142 -82 -272 -82q-42 0 -47 -10q-5 -12 -37 -38t-52 -32q-50 -16 -86 8 q-35 26 -27 76zM-45 463q7 -13 19.5 -13.5t37.5 11.5q25 11 41 31l15 16l-19 10q-38 27 -43 35l-16 22l-17 -28q-33 -56 -18 -84zM33 750q-1 4 16 18t37 28t29 17q11 3 20 -6t25.5 -53.5t13.5 -51.5q-6 -17 -22 2q-8 10 -13 23q-15 35 -18 41l-8 16l-31 -24h4 q-44 -35 -53 -10zM35 592q0 -18 22 -35q21 -14 29 -10q6 3 14 35h2q12 58 -18 61h-6q-15 -2 -29 -18t-14 -33z" />
<glyph unicode="&#xf5;" horiz-adv-x="434" d="M-97 506q8 50 58 110q30 37 41 41q9 3 29 15q18 12 45 12q28 0 43 -12q24 -23 28 -45.5t-10 -57.5l-10 -28h33q112 0 243 80q41 25 58 31.5t26 -1.5l2 -4q4 -5 -0.5 -13.5t-20.5 -21t-44 -28.5q-142 -82 -272 -82q-43 0 -48 -10q-5 -12 -36.5 -38t-51.5 -32 q-50 -16 -86 8q-35 26 -27 76zM-49 461q7 -13 19.5 -13.5t37.5 11.5q26 11 41 30l14 17l-18 10q-38 27 -43 35l-16 22l-17 -28q-33 -56 -18 -84zM-25 737q0 17 20.5 35.5t39.5 18.5q18 0 47 -25t37 -25q7 0 22 27q13 26 27 23q15 -3 15 -19.5t-15 -36.5q-19 -25 -47.5 -25 t-57.5 25l-28 23l-19 -19v-2q-12 -12 -21.5 -16.5t-14.5 0t-5 16.5zM31 590q0 -18 22 -35q21 -14 29 -10q6 3 14 35h2q12 58 -18 61h-6q-15 -2 -29 -18t-14 -33z" />
<glyph unicode="&#xf6;" horiz-adv-x="434" d="M-95 508q8 50 58 110q30 37 41 41q9 3 29 15q18 12 45 12q28 0 43 -12q24 -23 28 -45.5t-10 -57.5l-10 -28h33q113 0 244 80q41 26 57.5 32t25.5 -2l3 -4q4 -5 -1 -13.5t-21 -21t-44 -28.5q-142 -82 -272 -82q-43 0 -48 -10q-5 -12 -36.5 -38t-51.5 -32q-50 -16 -86 8 q-35 26 -27 76zM-47 463q7 -13 19.5 -13.5t37.5 11.5q25 11 41 31l15 16l-19 10q-38 27 -43 35l-16 22l-17 -28q-33 -56 -18 -84zM6 758q0 16 17 16t23 -11t-5 -22q-17 -17 -29 -6q-6 3 -6 23zM33 592q0 -18 22 -35q21 -14 29 -10q6 3 14 35h2q12 58 -18 61h-6 q-15 -2 -29 -18t-14 -33zM90 741q-6 12 0.5 22.5t18.5 8.5q16 -3 16 -20q0 -15 -14.5 -19.5t-20.5 8.5z" />
<glyph unicode="&#xf7;" horiz-adv-x="493" d="M51 641q1 5 9.5 8.5t33.5 8t69.5 9.5t119.5 13q88 8 116 8q13 0 25 -4h2q23 -8 23 -16t-62 -11q-81 -6 -291 -32q-26 -4 -37 0q-12 4 -8 16zM183 517q8 16 22 18h6h-2q15 -1 17.5 -17t-9.5 -26q-11 -9 -17.5 -9t-15.5 9t-1 25zM240 799q0 4 10.5 8t21.5 4q9 0 13 -2 q14 -6 12.5 -17t-16.5 -14v-2q-32 -8 -37 6q-4 12 -4 17z" />
<glyph unicode="&#xf8;" horiz-adv-x="456" d="M-100 391q-8 7 0 15l34 34q-48 58 46 176q30 38 40 41q9 3 29 15q18 12 45 12q28 0 43 -12q6 -4 15 -13l36 35q8 8 15 0q7 -7 0 -14l-39 -39q11 -24 -4 -70l-10 -28h32q113 0 244 80q41 25 58 31.5t26 -1.5l-8 -8q4 -5 -1 -13.5t-21 -21t-44 -28.5q-142 -82 -272 -82 q-42 0 -47 -11q-5 -12 -36.5 -37.5t-51.5 -31.5q-47 -16 -82 6l-35 -35q-4 -4 -6 -4t-6 4zM-37 467l70 70q-15 10 -17 12l-16 22l-16 -28q-27 -49 -21 -76zM-27 449q15 -9 50 8q24 10 40 30l17 21l-19 10l-12 6zM47 592q0 -16 14 -27l56 53q-3 22 -21 25h-6q-15 -2 -29 -18 t-14 -33zM78 553q16 -10 20 -6q7 4 15 35v6z" />
<glyph unicode="&#xf9;" horiz-adv-x="550" d="M-53 473q-27 35 37 145q26 43 40 53.5t29 -1.5q8 -6 5.5 -15t-21.5 -39q-32 -57 -37 -69q-6 -14 -8.5 -28.5t-1.5 -24t6 -9.5q16 0 151 109q56 45 75.5 53.5t27.5 -8.5q4 -7 -19 -66q-22 -57 -22 -71q0 -53 130 14q68 35 161 98q12 9 45 31q28 20 37 2l-2 -2 q6 -11 -8 -25.5t-72 -52.5q-184 -126 -264 -123q-41 1 -57 24.5t-13 55.5l4 41l-55 -45q-67 -54 -106 -64.5t-62 17.5zM82 812l16 3q12 0 55.5 -42t43.5 -54q0 -24 -40 4q-18 13 -38 33q-51 49 -37 56z" />
<glyph unicode="&#xfa;" horiz-adv-x="550" d="M-55 469q-27 35 37 145q26 43 40 53.5t29 -1.5q8 -6 5.5 -15t-21.5 -39q-32 -57 -37 -69q-6 -14 -8.5 -28.5t-1.5 -24t6 -9.5q16 0 151 109q56 45 75.5 53.5t27.5 -8.5q4 -7 -19 -66q-22 -57 -22 -71q0 -53 130 14q68 35 161 98q12 9 45 31q28 20 37 2l-2 -2 q6 -11 -8 -25.5t-72 -52.5q-84 -58 -155.5 -91t-109.5 -32q-41 1 -56.5 24.5t-12.5 55.5l4 41l-55 -45q-67 -54 -106 -64.5t-62 17.5zM98 711q0 10 42.5 53.5t56.5 48.5q28 7 25 -6q-4 -15 -42 -53v-4q-60 -60 -78 -49q-4 2 -4 10z" />
<glyph unicode="&#xfb;" horiz-adv-x="550" d="M-53 471q-27 35 37 145q26 43 40 53.5t29 -1.5q8 -6 5.5 -15t-21.5 -39q-32 -57 -37 -69q-6 -14 -8.5 -28.5t-1.5 -24t6 -9.5q16 0 151 109q56 45 75.5 53.5t27.5 -8.5q4 -7 -19 -66q-22 -57 -22 -71q0 -53 130 14q68 35 161 98q12 9 45 31q28 20 37 2l-2 -2 q6 -11 -8 -25.5t-72 -52.5q-184 -126 -264 -123q-41 1 -57 24.5t-13 55.5l4 41l-55 -45q-67 -54 -106 -64.5t-62 17.5zM78 731q-3 5 25.5 35.5t41.5 36.5q12 6 21 0q11 -8 34.5 -46.5t22.5 -45.5q-2 -15 -18 -4q-11 7 -19 22q-3 4 -12 18t-12 19l-10 14l-25 -28v-2 q-37 -40 -49 -19z" />
<glyph unicode="&#xfc;" horiz-adv-x="552" d="M-57 473q-27 35 37 145q26 43 40 53.5t29 -1.5q8 -6 5.5 -15t-21.5 -39q-32 -57 -37 -69q-6 -14 -8.5 -28.5t-1.5 -24t6 -9.5q16 0 151 109q56 45 75.5 53.5t27.5 -8.5q4 -7 -19 -66q-22 -57 -22 -71q0 -53 130 14q68 35 161 98q12 9 45 31q28 20 37 2l-3 -2 q6 -11 -8 -25.5t-71 -52.5q-84 -58 -155.5 -91t-109.5 -32q-41 1 -56.5 24.5t-12.5 55.5l4 41l-55 -45q-67 -54 -106 -64.5t-62 17.5zM80 727q0 16 16 16q17 0 23.5 -10.5t-4.5 -21.5q-17 -17 -29 -6q-6 3 -6 22zM162 711q-6 12 1 22t19 8q17 -3 17 -20h-2q0 -15 -14.5 -19 t-20.5 9z" />
<glyph unicode="&#xfd;" horiz-adv-x="518" d="M-200.5 116.5q-9.5 28.5 12.5 65.5t116 112t217 152q72 46 74 48q3 3 16 56.5t13 65.5q0 17 -6 17q-7 0 -82 -68q-85 -77 -111 -95t-55 -21q-21 -1 -29 1t-16 11q-19 22 -7 76t46 104q24 37 41 37q8 0 14 -6q8 -6 5.5 -13.5t-19.5 -35.5q-37 -60 -45 -111q-5 -29 6 -29 q18 0 155 129q38 38 70 52q23 9 30.5 9.5t20.5 -7.5q19 -10 23 -28t-4 -56q-7 -44 -4 -47q6 -6 116 55q32 18 55 30t41 21t29 12.5t18.5 4t11 -2t5.5 -8.5h4q1 -3 -11 -12t-39.5 -25t-70.5 -39q-23 -13 -61 -33q-86 -47 -101.5 -58t-23.5 -33q-1 -3 -2 -5q-13 -36 -50 -98 t-65 -96q-47 -58 -112.5 -105t-116.5 -59q-37 -8 -64 -4q-35 8 -44.5 36.5zM-162 119q6 -12 35 -7.5t64 23.5q39 22 82 57.5t69 67.5l-4 2q25 32 63 93t35 67q-14 0 -136 -87t-161 -126q-60 -60 -47 -90zM78 717q3 10 56.5 38.5t68.5 28.5q60 -3 -33 -53q-78 -41 -91 -24 q-3 4 -1 10z" />
<glyph unicode="&#xfe;" horiz-adv-x="694" d="M53 276l537 822q10 17 28 6t7 -29l-183 -278q2 1 6.5 3t6.5 3q77 32 133 -6t59 -121h2q3 -78 -45 -154t-121 -104q-35 -12 -65 -12q-41 0 -70 20q-56 38 -59 121v12l-201 -305q-7 -10 -16 -10q-5 0 -13 4q-17 10 -6 28zM330 547q3 -62 41 -86q40 -25 96 -4q60 25 102 88 v2q42 64 39 127q-3 62 -41 86q-21 12 -49 12q-20 0 -47 -10q-60 -25 -102 -88q-42 -64 -39 -127z" />
<glyph unicode="&#xff;" horiz-adv-x="518" d="M-200.5 116.5q-9.5 28.5 12.5 65.5t116 112t217 152q72 46 74 48q3 3 16 56.5t13 65.5q0 17 -6 17q-7 0 -82 -68q-85 -77 -111 -95t-55 -21q-21 -1 -29 1t-16 11q-19 22 -7 76t46 104q24 37 41 37q8 0 14 -6q8 -6 5.5 -13.5t-19.5 -35.5q-37 -60 -45 -111q-5 -29 6 -29 q18 0 155 129q38 38 70 52q23 9 30.5 9.5t20.5 -7.5q19 -10 23 -28t-4 -56q-7 -44 -4 -47q6 -6 116 55q32 18 55 30t41 21t29 12.5t18.5 4t11 -2t5.5 -8.5h4q1 -3 -11 -12t-39.5 -25t-70.5 -39q-23 -13 -61 -33q-86 -47 -101.5 -58t-23.5 -33q-1 -3 -2 -5q-13 -36 -50 -98 t-65 -96q-47 -58 -112.5 -105t-116.5 -59q-37 -8 -64 -4q-35 8 -44.5 36.5zM-162 119q6 -12 35 -7.5t64 23.5q39 22 82 57.5t69 67.5l-4 2q25 32 63 93t35 67q-14 0 -136 -87t-161 -126q-60 -60 -47 -90zM86 750q0 16 16 16q17 0 23.5 -11t-4.5 -22q-17 -17 -29 -6 q-6 3 -6 23zM168 733q-6 12 1 22.5t19 8.5q17 -3 17 -21h-2q0 -15 -14.5 -19t-20.5 9z" />
<glyph unicode="&#x152;" horiz-adv-x="2170" d="M52 583q-20 121 34 255q72 181 276 347t429 226q105 27 190 27q143 0 231 -82q154 -140 134 -381q77 90 204 178q106 74 264.5 149.5t270.5 106.5q63 16 139 16q54 0 68 -2t32 -14l9 2q29 -19 40 -39t11 -57q-2 -65 -62 -162.5t-143 -169.5q-51 -44 -68.5 -54t-29.5 -1 q-4 3 -4.5 6t4 9.5t13.5 15t28 24.5q87 75 150 173.5t63 160.5q0 23 -14.5 43t-34.5 26q-43 14 -138 -7t-211 -70q-189 -78 -353 -191.5t-218 -202.5q-29 -47 -25.5 -77.5t43.5 -61.5t103.5 -48t173.5 -26q101 -7 101 -25l-1 -5q-5 -10 -24 -13t-97 -26q-104 -34 -197 -95.5 t-153 -136.5q-38 -47 -51.5 -78.5t-13.5 -72.5q0 -49 23.5 -82.5t74.5 -58.5q23 -11 39.5 -14t60.5 -3q60 0 100.5 9.5t96.5 35.5q69 32 142 86.5t98 91.5q8 11 8 16t-8 11q-10 9 -5.5 18t19.5 9q17 0 28 -10t11 -25q0 -29 -67.5 -92.5t-143.5 -106.5q-104 -60 -206 -78 t-181 9q-44 15 -81 46t-54 68q-17 38 -15 86q2 49 33 99q50 85 144.5 159.5t211.5 120.5q54 22 54 26q-2 2 -9 3q-69 4 -139 26.5t-112 51.5q-22 16 -41 41q-58 -190 -181 -366t-264 -277q-142 -102 -250 -134q-133 -38 -215 -11.5t-151 130.5q-23 35 -31.5 67.5t-11.5 90.5 l-2 59l-41 35q-88 75 -108 196zM104 659q-9 -137 80 -239q23 -27 27 -23t18 70q25 118 105.5 278.5t181.5 294.5q81 106 113 103q36 -3 -8 -53q-77 -85 -160 -225.5t-137 -276.5q-17 -42 -36.5 -116.5t-19.5 -96.5q0 -9 50.5 -21t87.5 -12q38 0 65 12q44 19 49 0q1 -4 0 -8 q-4 -14 -35 -27q-62 -27 -172 -2l-49 11v-43q0 -74 31 -131q42 -74 103 -99.5t155 -13.5q145 21 334 182q219 186 342 484q42 105 56.5 164t17.5 143l-5 -8q9 211 -118 311q-101 80 -222 74q-131 -6 -282 -73.5t-282.5 -177t-207.5 -233.5q-73 -118 -82 -248z" />
<glyph unicode="&#x153;" horiz-adv-x="536" d="M-93 504q8 50 58 110q30 37 41 41q9 3 29 15q18 12 45 12q28 0 43 -12q19 -18 24 -35q48 41 93 41q12 0 24 -6q27 -12 24.5 -37t-32.5 -51q-27 -23 -72 -27h-20.5h-13.5t-8 -0.5t-5 -2t-4 -5.5q-8 -15 -4 -37q3 -49 80 -49q105 0 303 155l8 -4q79 61 80 33v-4 q0 -14 -68 -68q-114 -89 -196 -124.5t-150 -24.5q-68 13 -88 49q-42 -42 -78 -53q-50 -16 -86 8q-35 26 -27 76zM-41 469q7 -13 19.5 -13.5t37.5 11.5q25 11 41 31l15 16l-19 10q-38 27 -43 35l-16 23l-17 -29q-33 -56 -18 -84zM43 598q0 -18 23 -35q18 -12 28 -12 q2 8 10 24v13h7q12 58 -19 61h-6q-15 -2 -29 -18t-14 -33zM182 596q9 -4 14 -3.5t25 9.5q15 7 25 20.5t4 18.5h-4q-20 0 -56 -29l3 6q-19 -17 -11 -22z" />
<glyph unicode="&#x178;" horiz-adv-x="1007" d="M92 918q54 128 164.5 279.5t198.5 217.5q25 19 34.5 23t18.5 0q14 -7 14 -15q0 -10 -51 -57q-99 -94 -190 -227t-141 -255t-38 -186q15 -86 125 -86q119 0 310 123q60 40 167 126t173 147q77 71 198.5 195.5t163.5 176.5q29 36 46 54.5t30 28t20 8t13 -12.5l2 -6 q4 -7 -8 -26t-60 -76q-138 -168 -311.5 -421t-276.5 -435q-79 -139 -137.5 -269t-52.5 -153t-16 -35.5t-39 4.5q-9 8 -1.5 38.5t37.5 102.5q96 234 248 480q145 234 236 358q9 13 6 12q-2 0 -23 -20q-412 -384 -659 -437q-66 -13 -129 3q-195 47 -72 340zM793 1526 q0 26 28 26q26 0 35 -17t-8 -34q-25 -25 -45 -8h-2q-8 8 -8 33zM922 1503q-9 20 1.5 36t30.5 13q23 -3 23 -32v2q0 -25 -23 -33t-32 14z" />
<glyph unicode="&#x2c6;" horiz-adv-x="268" d="M49 1022q-4 4 24 44.5t42 49.5q10 8 22 2q13 -6 47.5 -47.5t34.5 -50.5q0 -18 -19 -9q-14 6 -26 23q-20 28 -33 41l-14 15l-25 -37q-35 -53 -53 -31z" />
<glyph unicode="&#x2000;" horiz-adv-x="843" />
<glyph unicode="&#x2001;" horiz-adv-x="1687" />
<glyph unicode="&#x2002;" horiz-adv-x="843" />
<glyph unicode="&#x2003;" horiz-adv-x="1687" />
<glyph unicode="&#x2004;" horiz-adv-x="562" />
<glyph unicode="&#x2005;" horiz-adv-x="421" />
<glyph unicode="&#x2006;" horiz-adv-x="281" />
<glyph unicode="&#x2007;" horiz-adv-x="281" />
<glyph unicode="&#x2008;" horiz-adv-x="210" />
<glyph unicode="&#x2009;" horiz-adv-x="337" />
<glyph unicode="&#x200a;" horiz-adv-x="93" />
<glyph unicode="&#x2010;" horiz-adv-x="387" d="M45 645q0 4 3 6.5t15.5 4.5t35.5 3t65 3q119 4 141 0l-2 -3q27 -2 34 -16q3 -6 -3 -10q-8 -6 -136.5 -9t-140.5 3q-12 8 -12 18z" />
<glyph unicode="&#x2011;" horiz-adv-x="387" d="M45 645q0 4 3 6.5t15.5 4.5t35.5 3t65 3q119 4 141 0l-2 -3q27 -2 34 -16q3 -6 -3 -10q-8 -6 -136.5 -9t-140.5 3q-12 8 -12 18z" />
<glyph unicode="&#x2012;" horiz-adv-x="387" d="M45 645q0 4 3 6.5t15.5 4.5t35.5 3t65 3q119 4 141 0l-2 -3q27 -2 34 -16q3 -6 -3 -10q-8 -6 -136.5 -9t-140.5 3q-12 8 -12 18z" />
<glyph unicode="&#x2013;" horiz-adv-x="503" d="M57 621q-23 20 6 26q18 4 195 8h4q176 6 193 -2q9 -5 4 -16q-5 -9 -52.5 -13.5t-185.5 -7.5q-154 -3 -164 5z" />
<glyph unicode="&#x2014;" horiz-adv-x="708" d="M47 651q7 14 467 17q105 1 125.5 -0.5t22.5 -10.5v2q1 -7 -2.5 -10.5t-14.5 -5.5q-14 -3 -236.5 -9.5t-291.5 -6.5q-51 0 -62 8q-12 8 -8 16z" />
<glyph unicode="&#x2018;" horiz-adv-x="202" d="M42 1157q3 16 15 43q23 54 49.5 78.5t43.5 9.5q7 -7 -19 -51q-30 -47 -37 -78q-6 -21 -10.5 -27t-15.5 -6h-5q-14 0 -19 7.5t-2 23.5z" />
<glyph unicode="&#x2019;" horiz-adv-x="208" d="M51 960q1 6 15 31q23 39 39 76.5t14 48.5q-2 17 1 22t13 5q19 0 26 -16.5t-1 -41.5q-9 -30 -35 -78.5t-37 -56.5q-12 -10 -27 -2q-9 6 -8 12z" />
<glyph unicode="&#x201a;" horiz-adv-x="174" d="M53 430q-4 8 15 27q26 29 13 34q-1 1 -3 1q-6 0 -9.5 9t-0.5 17q6 12 22 12q10 0 19 -6h4q20 -11 19 -35.5t-23 -46.5q-17 -17 -33.5 -20.5t-22.5 8.5z" />
<glyph unicode="&#x201c;" horiz-adv-x="309" d="M59 1202q23 54 49.5 78.5t43.5 9.5h-5q8 -8 -18 -51q-30 -47 -37 -78q-6 -21 -10.5 -27t-15.5 -6q-39 0 -7 74zM153 1182q17 52 54 90q13 15 29 19t20 -7l2 -2q4 -8 -18 -37q-52 -66 -52 -104q0 -27 -20 -27q-4 0 -12 4q-20 12 -3 64z" />
<glyph unicode="&#x201d;" horiz-adv-x="309" d="M53 1122q-4 8 19 39q51 69 51 109q0 26 20 26q5 0 13 -4h-2q20 -12 2.5 -64.5t-54.5 -92.5q-14 -15 -29 -19t-20 6zM158 1114q-9 9 18 55q30 47 37 78q6 21 11 27t16 6l4 2q39 0 6 -76q-23 -56 -49 -81.5t-43 -10.5z" />
<glyph unicode="&#x201e;" horiz-adv-x="253" d="M53 430q-4 8 15 27q26 29 13 34q-1 1 -3 1q-6 0 -9.5 9t-0.5 17q6 12 22 12q10 0 19 -6h4q20 -11 19 -35.5t-23 -46.5q-17 -17 -33.5 -20.5t-22.5 8.5zM137 430q-4 8 15 27q26 29 13 34q-1 1 -3 1q-6 0 -9.5 9t-0.5 17q6 12 22 12q10 0 19 -6h4q20 -11 19 -35.5 t-23 -46.5q-17 -17 -33.5 -20.5t-22.5 8.5z" />
<glyph unicode="&#x2022;" horiz-adv-x="280" d="M47 631q0 38 27 65t65 27t65 -27t27 -65t-27 -65t-65 -27t-65 27t-27 65z" />
<glyph unicode="&#x2026;" horiz-adv-x="444" d="M47 437q2 13 14 18h-2q22 9 39 -4.5t6 -30.5q-6 -9 -22.5 -10.5t-26.5 6.5t-8 21zM189 437q2 13 14 18h-2q22 9 39 -4.5t6 -30.5q-6 -9 -22.5 -10.5t-26.5 6.5t-8 21zM330 437q2 13 14 18h-2q22 9 39 -4.5t6 -30.5q-6 -9 -22.5 -10.5t-26.5 6.5t-8 21z" />
<glyph unicode="&#x202f;" horiz-adv-x="337" />
<glyph unicode="&#x2039;" horiz-adv-x="567" d="M47.5 648.5q-0.5 3.5 2 8t7.5 9.5t15 11.5t23 14.5t33 18.5t43 23t56 28.5q218 109 246 137q10 10 29 10h2q16 0 16 -14q0 -20 -60 -57.5t-220 -114.5q-138 -67 -138 -72q0 -3 25.5 -9.5t38.5 -6.5q12 0 127.5 -28.5t144.5 -37.5q49 -17 49 -30q-1 -5 -4 -9 q-7 -7 -12.5 -7.5t-15.5 5.5q-16 8 -103.5 30.5t-156.5 35.5q-78 15 -106.5 24.5t-37.5 22.5q-3 4 -3.5 7.5z" />
<glyph unicode="&#x203a;" horiz-adv-x="647" d="M45 522q0 12 117 64q277 127 346 162l31 16l-19 8q-22 9 -131 41q-126 37 -170.5 54t-46.5 26q-4 17 12 17q20 -1 82 -21q98 -30 123 -37q60 -15 126 -38t75 -32l2 -2q16 -16 -6 -34q-35 -28 -293 -144h-1h-1l-1 -1h-1l-2 -1q-157 -70 -190 -82.5t-44 -9.5q-8 4 -8 14z " />
<glyph unicode="&#x205f;" horiz-adv-x="421" />
<glyph unicode="&#x20ac;" horiz-adv-x="690" d="M53 618q-16 16 11 25q11 3 26 4q22 1 28.5 7t18.5 32q19 38 19 41q0 4 -50 4q-36 0 -42.5 2t-6.5 12q0 11 8.5 13.5t51.5 5.5q61 4 63 6q3 3 19 31q23 38 74.5 95t93.5 91q89 72 156 79.5t102 -50.5v6q17 -27 18 -66.5t-14 -42.5q-14 -2 -20.5 7.5t-6.5 31.5 q0 23 -15 48.5t-32 31.5q-38 14 -124.5 -48.5t-158.5 -156.5q-30 -43 -30 -45q0 -6 73 -10q75 -3 82 -10q12 -16 -7 -19q-15 -3 -58 -2q-74 2 -95.5 -3.5t-33.5 -28.5q-22 -40 -19 -46t43 -6q37 0 52.5 -6.5t9.5 -19.5q-5 -8 -64 -8q-51 0 -60.5 -8.5t-19.5 -63.5 q-12 -58 10 -117.5t60 -73.5q28 -8 39 -8q15 0 67 22.5t74 37.5t35.5 15t13.5 -15q0 -20 -67 -55t-113 -40q-26 -3 -59 5q-32 9 -60 36t-41 64q-14 42 -12 104q3 60 8 74q3 6 0 8t-16 2q-23 0 -31 8z" />
<glyph unicode="&#x2122;" horiz-adv-x="665" d="M52 1171.5q0 2.5 1 4.5q3 3 43 8q61 8 117 12h14l4 4q3 6 7 6q2 0 2 -4v-4h10h45q92 4 106 -6q2 -1 1.5 -4t-3.5 -4q-2 0 -4 2l2 -4q-4 4 -86 4h-73l-7 -2l-24 -41q-25 -40 -33 -53q-50 -88 -72 -148q-4 -14 -2 -16t0 -4q-7 -3 -10 0q-5 5 23 69q16 39 88 164l20 35h-6 q-19 0 -59 -4q-72 -8 -88 -12l-15 -5q-1 0 -1 2.5zM301 961q-3 6 41 81q79 142 100 152q4 2 9 0q4 0 4 -4q2 -10 -19 -82q-9 -30 -16 -57t-6 -27q3 6 26 33q11 14 76 82q45 45 68 63q19 17 26 17l4 -5q4 0 5.5 -2t0.5 -6.5t-3.5 -12t-8.5 -19.5q-4 -13 -18 -37 q-5 -10 -16 -32.5t-20 -40.5l-11 -22q-45 -102 -41 -114q2 -4 -4 -4q-3 0 -4 2q-2 2 12 47q19 56 80 172q11 20 17.5 34t8 19.5t0.5 5.5q-2 0 -47 -39q-43 -43 -129 -137q-15 -18 -22 -18q-8 0 -8 8q0 15 22 88q4 11 9 26.5t5 16.5q4 13 6 23t1 10q-5 0 -27 -35 q-30 -40 -74 -117q-18 -31 -37 -69q-1 -1 -5 -1t-5 1z" />
<glyph unicode="&#x25fc;" horiz-adv-x="696" d="M0 0v696h696v-696h-696z" />
</font>
</defs>
</svg>
